<?xml version="1.0" encoding="UTF-8" standalone="no"?>
<svg
   xmlns:dc="http://purl.org/dc/elements/1.1/"
   xmlns:cc="http://creativecommons.org/ns#"
   xmlns:rdf="http://www.w3.org/1999/02/22-rdf-syntax-ns#"
   xmlns:svg="http://www.w3.org/2000/svg"
   xmlns="http://www.w3.org/2000/svg"
   xmlns:sodipodi="http://sodipodi.sourceforge.net/DTD/sodipodi-0.dtd"
   xmlns:inkscape="http://www.inkscape.org/namespaces/inkscape"
   inkscape:version="1.0 (4035a4f, 2020-05-01)"
   sodipodi:docname="communication-rootless-containers.svg"
   viewBox="0 0 603.72266 331.51068"
   height="331.51068"
   width="603.72266"
   xml:space="preserve"
   id="svg10"
   version="1.1"><metadata
     id="metadata16"><rdf:RDF><cc:Work
         rdf:about=""><dc:format>image/svg+xml</dc:format><dc:type
           rdf:resource="http://purl.org/dc/dcmitype/StillImage" /><dc:title></dc:title><dc:subject><rdf:Bag><rdf:li>do180</rdf:li><rdf:li>networking</rdf:li></rdf:Bag></dc:subject></cc:Work></rdf:RDF></metadata><defs
     id="defs14"><clipPath
       id="clipPath34"
       clipPathUnits="userSpaceOnUse"><path
         id="path32"
         d="M 0,248.633 H 452.792 V 0 H 0 Z" /></clipPath></defs><sodipodi:namedview
     inkscape:current-layer="g18"
     inkscape:window-maximized="0"
     inkscape:window-y="25"
     inkscape:window-x="0"
     inkscape:cy="165.75534"
     inkscape:cx="301.86133"
     inkscape:zoom="0.82985125"
     showgrid="false"
     id="namedview12"
     inkscape:window-height="480"
     inkscape:window-width="987"
     inkscape:pageshadow="2"
     inkscape:pageopacity="0"
     guidetolerance="10"
     gridtolerance="10"
     objecttolerance="10"
     borderopacity="1"
     bordercolor="#666666"
     pagecolor="#ffffff" /><g
     transform="matrix(1.3333333,0,0,-1.3333333,0,331.51067)"
     inkscape:label="communication-rootless-containers"
     inkscape:groupmode="layer"
     id="g18"><path
       id="path20"
       style="fill:#e8e8e8;fill-opacity:1;fill-rule:nonzero;stroke:none"
       d="M 0,0 H 452.792 V 248.633 H 0 Z" /><path
       id="path22"
       style="fill:#ffffff;fill-opacity:1;fill-rule:nonzero;stroke:none"
       d="M 437.912,14.174 H 290.511 v 162.817 h 147.401 z" /><g
       transform="translate(316.3508,106.5721)"
       id="g24"><path
         id="path26"
         style="fill:#161616;fill-opacity:1;fill-rule:nonzero;stroke:none"
         d="M 0,0 H 5.027 V -1.02 H 1.199 v -1.998 h 2.639 v -1 H 1.199 V -6.996 H 0 Z" /></g><g
       id="g28"><g
         clip-path="url(#clipPath34)"
         id="g30"><g
           transform="translate(322.55,104.5839)"
           id="g36"><path
             id="path38"
             style="fill:#161616;fill-opacity:1;fill-rule:nonzero;stroke:none"
             d="m 0,0 h 1.13 v -1.09 c 0.269,0.77 0.749,1.18 1.379,1.18 0.19,-0.01 0.32,-0.03 0.49,-0.101 V -1 c -0.18,0.08 -0.41,0.12 -0.62,0.12 C 1.84,-0.88 1.38,-1.189 1.13,-1.709 V -5.008 H 0 Z" /></g><g
           transform="translate(330.1682,102.0653)"
           id="g40"><path
             id="path42"
             style="fill:#161616;fill-opacity:1;fill-rule:nonzero;stroke:none"
             d="m 0,0 c 0,0.949 -0.59,1.629 -1.399,1.629 -0.82,0 -1.4,-0.68 -1.4,-1.629 0,-0.939 0.58,-1.609 1.4,-1.609 C -0.58,-1.609 0,-0.93 0,0 m -1.399,2.599 c 1.439,0 2.518,-1.12 2.518,-2.589 0,-1.48 -1.089,-2.599 -2.518,-2.599 -1.429,0 -2.519,1.129 -2.519,2.599 0,1.469 1.09,2.589 2.519,2.589" /></g><g
           transform="translate(332.4602,104.5839)"
           id="g44"><path
             id="path46"
             style="fill:#161616;fill-opacity:1;fill-rule:nonzero;stroke:none"
             d="m 0,0 h 1.13 v -0.82 c 0.38,0.59 0.919,0.9 1.589,0.9 1.019,0 1.729,-0.74 1.729,-1.789 v -3.299 h -1.13 v 2.979 c 0,0.729 -0.429,1.199 -1.099,1.199 -0.449,0 -0.82,-0.21 -1.089,-0.6 V -5.008 H 0 Z" /></g><g
           transform="translate(338.8997,103.6844)"
           id="g48"><path
             id="path50"
             style="fill:#161616;fill-opacity:1;fill-rule:nonzero;stroke:none"
             d="M 0,0 H -1.01 V 0.899 H 0 V 2.278 L 1.129,2.519 V 0.899 H 2.528 V 0 H 1.129 v -2.539 c 0,-0.489 0.19,-0.68 0.7,-0.68 0.23,0 0.38,0.031 0.68,0.12 v -0.949 c -0.29,-0.09 -0.67,-0.14 -0.97,-0.14 -1.01,0 -1.539,0.48 -1.539,1.399 z" /></g><path
           id="path52"
           style="fill:#161616;fill-opacity:1;fill-rule:nonzero;stroke:none"
           d="m 345.768,101.935 h -3.479 v 0.949 h 3.479 z" /><g
           transform="translate(347.9397,102.495)"
           id="g54"><path
             id="path56"
             style="fill:#161616;fill-opacity:1;fill-rule:nonzero;stroke:none"
             d="M 0,0 H 2.608 C 2.479,0.739 1.969,1.249 1.299,1.249 0.629,1.249 0.13,0.759 0,0 m 1.419,-3.019 c -1.43,0 -2.549,1.14 -2.549,2.599 0,1.469 1.05,2.589 2.439,2.589 1.369,0 2.369,-1.09 2.369,-2.579 v -0.279 h -3.699 c 0.111,-0.79 0.73,-1.371 1.5,-1.371 0.469,0 0.91,0.17 1.189,0.47 l 0.739,-0.689 c -0.609,-0.51 -1.209,-0.74 -1.988,-0.74" /></g><g
           transform="translate(352.7698,104.5839)"
           id="g58"><path
             id="path60"
             style="fill:#161616;fill-opacity:1;fill-rule:nonzero;stroke:none"
             d="m 0,0 h 1.13 v -0.82 c 0.38,0.59 0.919,0.9 1.589,0.9 1.019,0 1.729,-0.74 1.729,-1.789 v -3.299 h -1.13 v 2.979 c 0,0.729 -0.429,1.199 -1.099,1.199 -0.449,0 -0.82,-0.21 -1.089,-0.6 V -5.008 H 0 Z" /></g><g
           transform="translate(360.968,100.4755)"
           id="g62"><path
             id="path64"
             style="fill:#161616;fill-opacity:1;fill-rule:nonzero;stroke:none"
             d="M 0,0 C 0.479,0 0.89,0.19 1.189,0.55 V 2.659 C 0.899,2.999 0.47,3.198 0,3.198 -0.859,3.198 -1.489,2.519 -1.489,1.6 -1.489,0.69 -0.85,0 0,0 M 1.199,-0.229 C 0.85,-0.68 0.29,-0.949 -0.34,-0.949 c -1.269,0 -2.268,1.13 -2.268,2.549 0,1.428 1.029,2.548 2.338,2.548 0.58,0 1.089,-0.24 1.459,-0.66 v 2.759 l 1.13,0.19 v -7.336 h -1.12 z" /></g><g
           transform="translate(372.2766,101.4657)"
           id="g66"><path
             id="path68"
             style="fill:#161616;fill-opacity:1;fill-rule:nonzero;stroke:none"
             d="M 0,0 0.789,-0.76 C 0.14,-1.529 -0.87,-1.989 -1.909,-1.989 c -2.049,0 -3.618,1.579 -3.618,3.597 0,2.03 1.579,3.609 3.618,3.609 1.069,0 2.089,-0.46 2.728,-1.239 L 0.01,3.178 c -0.49,0.62 -1.18,0.969 -1.919,0.969 -1.36,0 -2.389,-1.099 -2.389,-2.539 0,-1.428 1.049,-2.518 2.429,-2.518 0.729,0 1.389,0.32 1.869,0.91" /></g><g
           transform="translate(377.8577,102.0653)"
           id="g70"><path
             id="path72"
             style="fill:#161616;fill-opacity:1;fill-rule:nonzero;stroke:none"
             d="m 0,0 c 0,0.949 -0.59,1.629 -1.399,1.629 -0.82,0 -1.4,-0.68 -1.4,-1.629 0,-0.939 0.58,-1.609 1.4,-1.609 C -0.58,-1.609 0,-0.93 0,0 m -1.399,2.599 c 1.439,0 2.518,-1.12 2.518,-2.589 0,-1.48 -1.089,-2.599 -2.518,-2.599 -1.429,0 -2.519,1.129 -2.519,2.599 0,1.469 1.09,2.589 2.519,2.589" /></g><g
           transform="translate(380.1487,104.5839)"
           id="g74"><path
             id="path76"
             style="fill:#161616;fill-opacity:1;fill-rule:nonzero;stroke:none"
             d="m 0,0 h 1.13 v -0.82 c 0.38,0.59 0.919,0.9 1.589,0.9 1.019,0 1.729,-0.74 1.729,-1.789 v -3.299 h -1.13 v 2.979 c 0,0.729 -0.429,1.199 -1.099,1.199 -0.449,0 -0.82,-0.21 -1.089,-0.6 V -5.008 H 0 Z" /></g><g
           transform="translate(386.5891,103.6844)"
           id="g78"><path
             id="path80"
             style="fill:#161616;fill-opacity:1;fill-rule:nonzero;stroke:none"
             d="M 0,0 H -1.01 V 0.899 H 0 V 2.278 L 1.129,2.519 V 0.899 H 2.528 V 0 H 1.129 v -2.539 c 0,-0.489 0.19,-0.68 0.7,-0.68 0.23,0 0.38,0.031 0.68,0.12 v -0.949 c -0.29,-0.09 -0.67,-0.14 -0.97,-0.14 -1.01,0 -1.539,0.48 -1.539,1.399 z" /></g><g
           transform="translate(391.9377,100.286)"
           id="g82"><path
             id="path84"
             style="fill:#161616;fill-opacity:1;fill-rule:nonzero;stroke:none"
             d="m 0,0 c 0.45,0 0.84,0.13 1.18,0.409 v 0.82 c -0.36,0.17 -0.72,0.24 -1.159,0.24 -0.64,0 -1.041,-0.28 -1.041,-0.72 C -1.02,0.29 -0.619,0 0,0 m -2.078,0.729 c 0,0.9 0.729,1.469 1.908,1.469 0.47,0 0.899,-0.099 1.35,-0.309 v 0.549 c 0,0.661 -0.38,1 -1.15,1 -0.42,0 -0.88,-0.12 -1.459,-0.39 l -0.4,0.82 c 0.75,0.35 1.409,0.51 2.079,0.51 1.3,0 2.049,-0.66 2.049,-1.819 V -0.71 H 1.18 v 0.51 c -0.451,-0.409 -0.92,-0.59 -1.49,-0.59 -1.049,0 -1.768,0.62 -1.768,1.519" /></g><path
           id="path86"
           style="fill:#161616;fill-opacity:1;fill-rule:nonzero;stroke:none"
           d="m 396.739,99.576 h -1.13 v 5.008 h 1.13 z m -1.27,6.717 c 0,0.38 0.32,0.699 0.7,0.699 0.39,0 0.709,-0.319 0.709,-0.699 0,-0.39 -0.309,-0.69 -0.709,-0.69 -0.39,0 -0.7,0.3 -0.7,0.69" /><g
           transform="translate(398.1282,104.5839)"
           id="g88"><path
             id="path90"
             style="fill:#161616;fill-opacity:1;fill-rule:nonzero;stroke:none"
             d="m 0,0 h 1.13 v -0.82 c 0.38,0.59 0.919,0.9 1.589,0.9 1.019,0 1.729,-0.74 1.729,-1.789 v -3.299 h -1.13 v 2.979 c 0,0.729 -0.429,1.199 -1.099,1.199 -0.449,0 -0.82,-0.21 -1.089,-0.6 V -5.008 H 0 Z" /></g><g
           transform="translate(404.8479,102.495)"
           id="g92"><path
             id="path94"
             style="fill:#161616;fill-opacity:1;fill-rule:nonzero;stroke:none"
             d="M 0,0 H 2.609 C 2.479,0.739 1.97,1.249 1.3,1.249 0.63,1.249 0.131,0.759 0,0 m 1.42,-3.019 c -1.43,0 -2.549,1.14 -2.549,2.599 0,1.469 1.05,2.589 2.439,2.589 1.369,0 2.369,-1.09 2.369,-2.579 V -0.689 H -0.02 c 0.111,-0.79 0.73,-1.371 1.499,-1.371 0.47,0 0.911,0.17 1.19,0.47 L 3.408,-2.279 C 2.799,-2.789 2.199,-3.019 1.42,-3.019" /></g><g
           transform="translate(409.678,104.5839)"
           id="g96"><path
             id="path98"
             style="fill:#161616;fill-opacity:1;fill-rule:nonzero;stroke:none"
             d="m 0,0 h 1.13 v -1.09 c 0.269,0.77 0.749,1.18 1.379,1.18 0.19,-0.01 0.32,-0.03 0.49,-0.101 V -1 C 2.818,-0.92 2.589,-0.88 2.379,-0.88 1.84,-0.88 1.38,-1.189 1.13,-1.709 V -5.008 H 0 Z" /></g><g
           transform="translate(313.5911,80.3837)"
           id="g100"><path
             id="path102"
             style="fill:#161616;fill-opacity:1;fill-rule:nonzero;stroke:none"
             d="m 0,0 0.657,0.135 v -2.89 c 0.333,0.522 0.811,0.783 1.396,0.783 0.945,0 1.593,-0.657 1.593,-1.621 V -6.437 H 2.989 v 2.656 c 0,0.774 -0.459,1.26 -1.179,1.26 -0.486,0 -0.891,-0.234 -1.153,-0.675 v -3.241 l -0.657,0 z" /></g><g
           transform="translate(319.0813,77.7997)"
           id="g104"><path
             id="path106"
             style="fill:#161616;fill-opacity:1;fill-rule:nonzero;stroke:none"
             d="M 0,0 H -0.909 V 0.54 H 0 V 1.746 L 0.657,1.899 V 0.54 H 1.918 V 0 H 0.657 v -2.692 c 0,-0.468 0.18,-0.658 0.64,-0.658 0.224,0 0.378,0.028 0.621,0.118 V -3.817 C 1.675,-3.898 1.404,-3.935 1.152,-3.935 0.396,-3.935 0,-3.565 0,-2.863 Z" /></g><g
           transform="translate(322.4836,77.7997)"
           id="g108"><path
             id="path110"
             style="fill:#161616;fill-opacity:1;fill-rule:nonzero;stroke:none"
             d="M 0,0 H -0.909 V 0.54 H 0 V 1.746 L 0.657,1.899 V 0.54 H 1.918 V 0 H 0.657 v -2.692 c 0,-0.468 0.18,-0.658 0.64,-0.658 0.224,0 0.378,0.028 0.621,0.118 V -3.817 C 1.675,-3.898 1.404,-3.935 1.152,-3.935 0.396,-3.935 0,-3.565 0,-2.863 Z" /></g><g
           transform="translate(326.0198,77.2147)"
           id="g112"><path
             id="path114"
             style="fill:#161616;fill-opacity:1;fill-rule:nonzero;stroke:none"
             d="m 0,0 v -2.152 c 0.288,-0.387 0.748,-0.613 1.252,-0.613 0.882,0 1.539,0.721 1.539,1.684 0,0.964 -0.657,1.684 -1.539,1.684 C 0.729,0.603 0.279,0.387 0,0 m -0.657,1.125 h 0.648 v -0.63 c 0.333,0.441 0.837,0.684 1.423,0.684 1.143,0 2.025,-0.991 2.025,-2.25 0,-1.27 -0.9,-2.26 -2.061,-2.26 -0.55,0 -1.035,0.216 -1.378,0.612 v -2.43 h -0.657 z" /></g><g
           transform="translate(331.3928,74.37)"
           id="g116"><path
             id="path118"
             style="fill:#161616;fill-opacity:1;fill-rule:nonzero;stroke:none"
             d="m 0,0 c 0,-0.279 -0.216,-0.496 -0.468,-0.496 -0.261,0 -0.477,0.217 -0.477,0.496 0,0.27 0.216,0.485 0.477,0.485 C -0.216,0.485 0,0.27 0,0 M 0,3.573 C 0,3.295 -0.216,3.078 -0.468,3.078 c -0.261,0 -0.477,0.217 -0.477,0.495 0,0.271 0.216,0.487 0.477,0.487 C -0.216,4.06 0,3.844 0,3.573" /></g><g
           transform="translate(335.0745,80.2479)"
           id="g120"><path
             id="path122"
             style="fill:#161616;fill-opacity:1;fill-rule:nonzero;stroke:none"
             d="M 0,0 H 0.657 L -2.944,-8.147 H -3.592 Z" /></g><g
           transform="translate(339.2688,80.2479)"
           id="g124"><path
             id="path126"
             style="fill:#161616;fill-opacity:1;fill-rule:nonzero;stroke:none"
             d="M 0,0 H 0.657 L -2.944,-8.147 H -3.593 Z" /></g><g
           transform="translate(342.3284,73.9462)"
           id="g128"><path
             id="path130"
             style="fill:#161616;fill-opacity:1;fill-rule:nonzero;stroke:none"
             d="M 0,0 H -0.648 V 5.6 L -1.656,5.149 v 0.595 l 1.251,0.558 H 0 Z" /></g><g
           transform="translate(347.1165,79.6718)"
           id="g132"><path
             id="path134"
             style="fill:#161616;fill-opacity:1;fill-rule:nonzero;stroke:none"
             d="M 0,0 H -3.79 V 0.576 H 0.702 V 0.072 l -3.097,-5.798 h -0.738 z" /></g><g
           transform="translate(348.5374,74.4237)"
           id="g136"><path
             id="path138"
             style="fill:#161616;fill-opacity:1;fill-rule:nonzero;stroke:none"
             d="m 0,0 2.521,2.755 c 0.584,0.648 0.765,0.999 0.765,1.476 0,0.63 -0.558,1.098 -1.323,1.098 -0.595,0 -1.045,-0.207 -1.666,-0.765 l -0.378,0.451 c 0.657,0.602 1.314,0.89 2.053,0.89 1.133,0 1.953,-0.683 1.953,-1.637 0,-0.622 -0.198,-1.009 -0.963,-1.856 L 0.811,0.081 4.061,0.09 V -0.478 H 0 Z" /></g><g
           transform="translate(354.4778,74.37)"
           id="g140"><path
             id="path142"
             style="fill:#161616;fill-opacity:1;fill-rule:nonzero;stroke:none"
             d="m 0,0 c 0,-0.279 -0.216,-0.496 -0.468,-0.496 -0.261,0 -0.477,0.217 -0.477,0.496 0,0.27 0.216,0.485 0.477,0.485 C -0.216,0.485 0,0.27 0,0" /></g><g
           transform="translate(355.4495,74.4237)"
           id="g144"><path
             id="path146"
             style="fill:#161616;fill-opacity:1;fill-rule:nonzero;stroke:none"
             d="m 0,0 2.521,2.755 c 0.584,0.648 0.765,0.999 0.765,1.476 0,0.63 -0.558,1.098 -1.323,1.098 -0.595,0 -1.045,-0.207 -1.666,-0.765 l -0.378,0.451 c 0.657,0.602 1.314,0.89 2.053,0.89 1.133,0 1.953,-0.683 1.953,-1.637 0,-0.622 -0.198,-1.009 -0.963,-1.856 L 0.811,0.081 4.061,0.09 V -0.478 H 0 Z" /></g><g
           transform="translate(360.6965,80.2479)"
           id="g148"><path
             id="path150"
             style="fill:#161616;fill-opacity:1;fill-rule:nonzero;stroke:none"
             d="M 0,0 H 3.583 V -0.566 H 0.558 L 0.459,-2.745 c 0.477,0.233 0.9,0.333 1.395,0.333 1.234,0 2.062,-0.766 2.062,-1.891 0,-1.242 -0.892,-2.089 -2.206,-2.089 -0.828,0 -1.548,0.288 -2.143,0.856 l 0.406,0.441 c 0.548,-0.522 1.062,-0.738 1.746,-0.738 0.919,0 1.549,0.611 1.549,1.503 0,0.828 -0.63,1.395 -1.549,1.395 -0.477,0 -0.918,-0.108 -1.413,-0.36 l -0.451,0.145 z" /></g><g
           transform="translate(366.5188,74.37)"
           id="g152"><path
             id="path154"
             style="fill:#161616;fill-opacity:1;fill-rule:nonzero;stroke:none"
             d="m 0,0 c 0,-0.279 -0.216,-0.496 -0.468,-0.496 -0.261,0 -0.477,0.217 -0.477,0.496 0,0.27 0.216,0.485 0.477,0.485 C -0.216,0.485 0,0.27 0,0" /></g><g
           transform="translate(367.4915,74.4237)"
           id="g156"><path
             id="path158"
             style="fill:#161616;fill-opacity:1;fill-rule:nonzero;stroke:none"
             d="m 0,0 2.521,2.755 c 0.584,0.648 0.765,0.999 0.765,1.476 0,0.63 -0.558,1.098 -1.323,1.098 -0.595,0 -1.045,-0.207 -1.666,-0.765 l -0.378,0.451 c 0.657,0.602 1.314,0.89 2.053,0.89 1.133,0 1.953,-0.683 1.953,-1.637 0,-0.622 -0.197,-1.009 -0.963,-1.856 L 0.811,0.081 4.061,0.09 V -0.478 H 0 Z" /></g><g
           transform="translate(372.7385,80.2479)"
           id="g160"><path
             id="path162"
             style="fill:#161616;fill-opacity:1;fill-rule:nonzero;stroke:none"
             d="M 0,0 H 3.583 V -0.566 H 0.558 L 0.459,-2.745 c 0.477,0.233 0.9,0.333 1.395,0.333 1.234,0 2.062,-0.766 2.062,-1.891 0,-1.242 -0.892,-2.089 -2.206,-2.089 -0.828,0 -1.548,0.288 -2.143,0.856 l 0.406,0.441 c 0.548,-0.522 1.062,-0.738 1.746,-0.738 0.919,0 1.549,0.611 1.549,1.503 0,0.828 -0.63,1.395 -1.549,1.395 -0.477,0 -0.918,-0.108 -1.413,-0.36 l -0.451,0.145 z" /></g><g
           transform="translate(381.8743,77.0975)"
           id="g164"><path
             id="path166"
             style="fill:#161616;fill-opacity:1;fill-rule:nonzero;stroke:none"
             d="M 0,0 C 0,1.62 -0.711,2.655 -1.801,2.655 -2.89,2.655 -3.602,1.611 -3.602,0 c 0,-1.611 0.712,-2.656 1.801,-2.656 C -0.702,-2.656 0,-1.621 0,0 m -4.259,0 c 0,1.908 1.018,3.241 2.458,3.241 1.449,0 2.458,-1.333 2.458,-3.241 0,-1.909 -0.999,-3.241 -2.458,-3.241 -1.449,0 -2.458,1.332 -2.458,3.241" /></g><g
           transform="translate(384.5002,74.37)"
           id="g168"><path
             id="path170"
             style="fill:#161616;fill-opacity:1;fill-rule:nonzero;stroke:none"
             d="m 0,0 c 0,-0.279 -0.216,-0.496 -0.468,-0.496 -0.261,0 -0.477,0.217 -0.477,0.496 0,0.27 0.216,0.485 0.477,0.485 C -0.216,0.485 0,0.27 0,0" /></g><g
           transform="translate(389.4163,77.7548)"
           id="g172"><path
             id="path174"
             style="fill:#161616;fill-opacity:1;fill-rule:nonzero;stroke:none"
             d="m 0,0 c -0.136,1.206 -0.828,1.998 -1.792,1.998 -0.855,0 -1.494,-0.63 -1.494,-1.477 0,-0.845 0.639,-1.449 1.549,-1.449 0.657,0 1.287,0.352 1.737,0.928 m 0.666,-0.441 c 0,-2.071 -1.125,-3.44 -2.827,-3.44 -0.522,0 -1.071,0.153 -1.477,0.424 l 0.325,0.504 c 0.369,-0.216 0.792,-0.342 1.207,-0.342 1.295,0 2.097,1.053 2.124,2.791 -0.468,-0.603 -1.153,-0.955 -1.846,-0.955 -1.224,0 -2.107,0.828 -2.107,1.963 0,1.188 0.91,2.061 2.134,2.061 1.449,0 2.467,-1.242 2.467,-3.006" /></g><g
           transform="translate(392.051,74.37)"
           id="g176"><path
             id="path178"
             style="fill:#161616;fill-opacity:1;fill-rule:nonzero;stroke:none"
             d="m 0,0 c 0,-0.279 -0.216,-0.496 -0.468,-0.496 -0.261,0 -0.477,0.217 -0.477,0.496 0,0.27 0.216,0.485 0.477,0.485 C -0.216,0.485 0,0.27 0,0 M 0,3.573 C 0,3.295 -0.216,3.078 -0.468,3.078 c -0.261,0 -0.477,0.217 -0.477,0.495 0,0.271 0.216,0.487 0.477,0.487 C -0.216,4.06 0,3.844 0,3.573" /></g><g
           transform="translate(396.7151,78.6815)"
           id="g180"><path
             id="path182"
             style="fill:#161616;fill-opacity:1;fill-rule:nonzero;stroke:none"
             d="m 0,0 c 0,0.648 -0.595,1.144 -1.378,1.144 -0.774,0 -1.368,-0.496 -1.368,-1.144 0,-0.647 0.603,-1.143 1.368,-1.143 C -0.604,-1.143 0,-0.647 0,0 m 0.225,-2.988 c 0,0.728 -0.694,1.287 -1.603,1.287 -0.909,0 -1.602,-0.559 -1.602,-1.287 0,-0.739 0.693,-1.306 1.602,-1.306 0.909,0 1.603,0.567 1.603,1.306 m -3.844,-0.045 c 0,0.764 0.612,1.413 1.485,1.62 -0.738,0.207 -1.242,0.774 -1.242,1.44 0,0.937 0.855,1.639 1.998,1.639 1.144,0 2.008,-0.702 2.008,-1.639 0,-0.666 -0.504,-1.233 -1.242,-1.44 0.873,-0.207 1.476,-0.847 1.476,-1.62 0,-1.045 -0.936,-1.792 -2.242,-1.792 -1.296,0 -2.241,0.756 -2.241,1.792" /></g><g
           transform="translate(402.8704,77.0975)"
           id="g184"><path
             id="path186"
             style="fill:#161616;fill-opacity:1;fill-rule:nonzero;stroke:none"
             d="M 0,0 C 0,1.62 -0.711,2.655 -1.801,2.655 -2.89,2.655 -3.602,1.611 -3.602,0 c 0,-1.611 0.712,-2.656 1.801,-2.656 C -0.702,-2.656 0,-1.621 0,0 m -4.259,0 c 0,1.908 1.018,3.241 2.458,3.241 1.449,0 2.458,-1.333 2.458,-3.241 0,-1.909 -0.999,-3.241 -2.458,-3.241 -1.449,0 -2.458,1.332 -2.458,3.241" /></g><g
           transform="translate(408.1809,78.6815)"
           id="g188"><path
             id="path190"
             style="fill:#161616;fill-opacity:1;fill-rule:nonzero;stroke:none"
             d="m 0,0 c 0,0.648 -0.595,1.144 -1.378,1.144 -0.774,0 -1.368,-0.496 -1.368,-1.144 0,-0.647 0.603,-1.143 1.368,-1.143 C -0.604,-1.143 0,-0.647 0,0 m 0.225,-2.988 c 0,0.728 -0.694,1.287 -1.603,1.287 -0.909,0 -1.602,-0.559 -1.602,-1.287 0,-0.739 0.693,-1.306 1.602,-1.306 0.909,0 1.603,0.567 1.603,1.306 m -3.844,-0.045 c 0,0.764 0.612,1.413 1.485,1.62 -0.738,0.207 -1.242,0.774 -1.242,1.44 0,0.937 0.855,1.639 1.998,1.639 1.144,0 2.008,-0.702 2.008,-1.639 0,-0.666 -0.504,-1.233 -1.242,-1.44 0.873,-0.207 1.476,-0.847 1.476,-1.62 0,-1.045 -0.936,-1.792 -2.242,-1.792 -1.296,0 -2.241,0.756 -2.241,1.792" /></g><g
           transform="translate(414.3362,77.0975)"
           id="g192"><path
             id="path194"
             style="fill:#161616;fill-opacity:1;fill-rule:nonzero;stroke:none"
             d="M 0,0 C 0,1.62 -0.711,2.655 -1.801,2.655 -2.89,2.655 -3.602,1.611 -3.602,0 c 0,-1.611 0.712,-2.656 1.801,-2.656 C -0.702,-2.656 0,-1.621 0,0 m -4.259,0 c 0,1.908 1.018,3.241 2.458,3.241 1.449,0 2.458,-1.333 2.458,-3.241 0,-1.909 -0.999,-3.241 -2.458,-3.241 -1.449,0 -2.458,1.332 -2.458,3.241" /></g><g
           transform="translate(302.2151,69.5839)"
           id="g196"><path
             id="path198"
             style="fill:#161616;fill-opacity:1;fill-rule:nonzero;stroke:none"
             d="m 0,0 0.657,0.135 v -2.89 c 0.333,0.522 0.811,0.783 1.396,0.783 0.945,0 1.593,-0.657 1.593,-1.621 V -6.437 H 2.989 v 2.656 c 0,0.774 -0.459,1.26 -1.179,1.26 -0.486,0 -0.891,-0.234 -1.153,-0.675 v -3.241 l -0.657,0 z" /></g><g
           transform="translate(307.7053,66.9999)"
           id="g200"><path
             id="path202"
             style="fill:#161616;fill-opacity:1;fill-rule:nonzero;stroke:none"
             d="M 0,0 H -0.909 V 0.54 H 0 V 1.746 L 0.657,1.899 V 0.54 H 1.918 V 0 H 0.657 v -2.692 c 0,-0.468 0.18,-0.658 0.64,-0.658 0.224,0 0.378,0.028 0.621,0.118 V -3.817 C 1.675,-3.898 1.404,-3.935 1.152,-3.935 0.396,-3.935 0,-3.565 0,-2.863 Z" /></g><g
           transform="translate(311.1077,66.9999)"
           id="g204"><path
             id="path206"
             style="fill:#161616;fill-opacity:1;fill-rule:nonzero;stroke:none"
             d="M 0,0 H -0.909 V 0.54 H 0 V 1.746 L 0.657,1.899 V 0.54 H 1.918 V 0 H 0.657 v -2.692 c 0,-0.468 0.18,-0.658 0.64,-0.658 0.224,0 0.378,0.028 0.621,0.118 V -3.817 C 1.675,-3.898 1.404,-3.935 1.152,-3.935 0.396,-3.935 0,-3.565 0,-2.863 Z" /></g><g
           transform="translate(314.6438,66.4149)"
           id="g208"><path
             id="path210"
             style="fill:#161616;fill-opacity:1;fill-rule:nonzero;stroke:none"
             d="m 0,0 v -2.152 c 0.288,-0.387 0.748,-0.613 1.252,-0.613 0.882,0 1.539,0.721 1.539,1.684 0,0.964 -0.657,1.684 -1.539,1.684 C 0.729,0.603 0.279,0.387 0,0 m -0.657,1.125 h 0.648 v -0.63 c 0.333,0.441 0.838,0.684 1.423,0.684 1.144,0 2.025,-0.991 2.025,-2.25 0,-1.27 -0.9,-2.26 -2.061,-2.26 -0.549,0 -1.035,0.216 -1.378,0.612 v -2.43 h -0.657 z" /></g><g
           transform="translate(320.0168,63.5702)"
           id="g212"><path
             id="path214"
             style="fill:#161616;fill-opacity:1;fill-rule:nonzero;stroke:none"
             d="m 0,0 c 0,-0.279 -0.216,-0.496 -0.468,-0.496 -0.261,0 -0.477,0.217 -0.477,0.496 0,0.27 0.216,0.485 0.477,0.485 C -0.216,0.485 0,0.27 0,0 M 0,3.573 C 0,3.295 -0.216,3.078 -0.468,3.078 c -0.261,0 -0.477,0.217 -0.477,0.495 0,0.271 0.216,0.487 0.477,0.487 C -0.216,4.06 0,3.844 0,3.573" /></g><g
           transform="translate(323.6985,69.4481)"
           id="g216"><path
             id="path218"
             style="fill:#161616;fill-opacity:1;fill-rule:nonzero;stroke:none"
             d="M 0,0 H 0.657 L -2.944,-8.147 H -3.593 Z" /></g><g
           transform="translate(327.8928,69.4481)"
           id="g220"><path
             id="path222"
             style="fill:#161616;fill-opacity:1;fill-rule:nonzero;stroke:none"
             d="M 0,0 H 0.657 L -2.944,-8.147 H -3.592 Z" /></g><g
           transform="translate(329.6018,69.5839)"
           id="g224"><path
             id="path226"
             style="fill:#161616;fill-opacity:1;fill-rule:nonzero;stroke:none"
             d="m 0,0 0.657,0.135 v -2.89 c 0.333,0.522 0.811,0.783 1.396,0.783 0.945,0 1.593,-0.657 1.593,-1.621 V -6.437 H 2.989 v 2.656 c 0,0.774 -0.459,1.26 -1.179,1.26 -0.486,0 -0.891,-0.234 -1.153,-0.675 v -3.241 l -0.657,0 z" /></g><g
           transform="translate(338.0002,65.3339)"
           id="g228"><path
             id="path230"
             style="fill:#161616;fill-opacity:1;fill-rule:nonzero;stroke:none"
             d="M 0,0 C 0,0.973 -0.64,1.702 -1.495,1.702 -2.35,1.702 -2.98,0.973 -2.98,0 c 0,-0.98 0.63,-1.692 1.485,-1.692 C -0.64,-1.692 0,-0.972 0,0 m -1.495,2.278 c 1.224,0 2.143,-0.972 2.143,-2.268 0,-1.306 -0.927,-2.287 -2.143,-2.287 -1.206,0 -2.133,0.99 -2.133,2.287 0,1.296 0.918,2.268 2.133,2.268" /></g><g
           transform="translate(339.7268,64.1464)"
           id="g232"><path
             id="path234"
             style="fill:#161616;fill-opacity:1;fill-rule:nonzero;stroke:none"
             d="m 0,0 c 0.521,-0.388 0.945,-0.55 1.413,-0.55 0.64,0 1.108,0.333 1.108,0.792 0,0.361 -0.235,0.55 -0.792,0.657 L 1.008,1.025 c -0.856,0.154 -1.242,0.514 -1.242,1.153 0,0.757 0.657,1.288 1.584,1.288 0.603,0 1.117,-0.171 1.674,-0.55 L 2.7,2.457 C 2.241,2.781 1.791,2.926 1.323,2.926 0.747,2.926 0.369,2.655 0.369,2.224 0.369,1.863 0.558,1.692 1.125,1.593 L 1.863,1.458 c 0.882,-0.162 1.279,-0.531 1.279,-1.18 0,-0.764 -0.739,-1.359 -1.711,-1.359 -0.72,0 -1.35,0.226 -1.783,0.648 z" /></g><g
           transform="translate(344.3889,66.9999)"
           id="g236"><path
             id="path238"
             style="fill:#161616;fill-opacity:1;fill-rule:nonzero;stroke:none"
             d="M 0,0 H -0.909 V 0.54 H 0 V 1.746 L 0.657,1.899 V 0.54 H 1.918 V 0 H 0.657 v -2.692 c 0,-0.468 0.18,-0.658 0.64,-0.658 0.224,0 0.378,0.028 0.621,0.118 V -3.817 C 1.675,-3.898 1.404,-3.935 1.152,-3.935 0.396,-3.935 0,-3.565 0,-2.863 Z" /></g><g
           transform="translate(348.051,63.5702)"
           id="g240"><path
             id="path242"
             style="fill:#161616;fill-opacity:1;fill-rule:nonzero;stroke:none"
             d="m 0,0 c 0,-0.279 -0.216,-0.496 -0.468,-0.496 -0.261,0 -0.477,0.217 -0.477,0.496 0,0.27 0.216,0.485 0.477,0.485 C -0.216,0.485 0,0.27 0,0" /></g><g
           transform="translate(349.7083,65.6669)"
           id="g244"><path
             id="path246"
             style="fill:#161616;fill-opacity:1;fill-rule:nonzero;stroke:none"
             d="M 0,0 H 2.781 C 2.683,0.793 2.124,1.378 1.404,1.378 0.675,1.378 0.116,0.811 0,0 m 1.521,-2.602 c -1.233,0 -2.178,0.991 -2.178,2.279 0,1.287 0.899,2.268 2.07,2.268 1.152,0 2.017,-0.954 2.017,-2.215 v -0.198 h -3.449 c 0.064,-0.891 0.73,-1.557 1.567,-1.557 0.459,0 0.909,0.171 1.207,0.45 L 3.169,-2.017 C 2.664,-2.412 2.133,-2.602 1.521,-2.602" /></g><g
           transform="translate(355.3782,65.4061)"
           id="g248"><path
             id="path250"
             style="fill:#161616;fill-opacity:1;fill-rule:nonzero;stroke:none"
             d="m 0,0 -1.594,2.134 h 0.783 L 0.404,0.469 1.602,2.134 H 2.35 L 0.773,0.019 2.476,-2.26 H 1.692 L 0.378,-0.468 -0.928,-2.26 h -0.747 z" /></g><g
           transform="translate(360.1389,63.5702)"
           id="g252"><path
             id="path254"
             style="fill:#161616;fill-opacity:1;fill-rule:nonzero;stroke:none"
             d="M 0,0 C 0.495,0 0.9,0.161 1.26,0.504 V 1.35 C 0.891,1.566 0.513,1.665 0.018,1.665 -0.657,1.665 -1.099,1.341 -1.099,0.854 -1.099,0.342 -0.657,0 0,0 m -1.729,0.837 c 0,0.783 0.658,1.306 1.648,1.306 0.504,0 0.954,-0.109 1.341,-0.343 v 0.603 c 0,0.72 -0.387,1.089 -1.134,1.089 -0.405,0 -0.819,-0.116 -1.333,-0.378 l -0.242,0.504 c 0.602,0.288 1.125,0.424 1.656,0.424 1.089,0 1.701,-0.55 1.701,-1.549 V -0.424 H 1.26 V 0.09 c -0.387,-0.397 -0.855,-0.595 -1.396,-0.595 -0.935,0 -1.593,0.55 -1.593,1.342" /></g><g
           transform="translate(363.3782,67.5399)"
           id="g256"><path
             id="path258"
             style="fill:#161616;fill-opacity:1;fill-rule:nonzero;stroke:none"
             d="m 0,0 h 0.657 v -0.685 c 0.333,0.505 0.766,0.757 1.306,0.757 0.621,0 1.107,-0.333 1.35,-0.855 0.342,0.567 0.829,0.855 1.468,0.855 0.882,0 1.494,-0.666 1.494,-1.63 V -4.394 H 5.618 v 2.674 c 0,0.766 -0.414,1.242 -1.08,1.242 -0.459,0 -0.828,-0.224 -1.099,-0.692 0.028,-0.127 0.037,-0.253 0.037,-0.388 V -4.394 H 2.818 v 2.674 c 0,0.766 -0.422,1.242 -1.089,1.242 -0.451,0 -0.81,-0.215 -1.072,-0.647 V -4.394 H 0 Z" /></g><g
           transform="translate(371.6399,66.4149)"
           id="g260"><path
             id="path262"
             style="fill:#161616;fill-opacity:1;fill-rule:nonzero;stroke:none"
             d="m 0,0 v -2.152 c 0.288,-0.387 0.748,-0.613 1.252,-0.613 0.882,0 1.539,0.721 1.539,1.684 0,0.964 -0.657,1.684 -1.539,1.684 C 0.729,0.603 0.279,0.387 0,0 m -0.657,1.125 h 0.648 v -0.63 c 0.333,0.441 0.838,0.684 1.423,0.684 1.144,0 2.025,-0.991 2.025,-2.25 0,-1.27 -0.9,-2.26 -2.061,-2.26 -0.549,0 -1.035,0.216 -1.378,0.612 v -2.43 h -0.657 z" /></g><g
           transform="translate(376.887,63.1464)"
           id="g264"><path
             id="path266"
             style="fill:#161616;fill-opacity:1;fill-rule:nonzero;stroke:none"
             d="M 0,0 H -0.657 V 6.437 L 0,6.572 Z" /></g><g
           transform="translate(378.6965,65.6669)"
           id="g268"><path
             id="path270"
             style="fill:#161616;fill-opacity:1;fill-rule:nonzero;stroke:none"
             d="M 0,0 H 2.781 C 2.683,0.793 2.124,1.378 1.404,1.378 0.675,1.378 0.116,0.811 0,0 m 1.521,-2.602 c -1.233,0 -2.178,0.991 -2.178,2.279 0,1.287 0.899,2.268 2.07,2.268 1.152,0 2.017,-0.954 2.017,-2.215 v -0.198 h -3.449 c 0.064,-0.891 0.73,-1.557 1.567,-1.557 0.459,0 0.909,0.171 1.207,0.45 L 3.169,-2.017 C 2.664,-2.412 2.133,-2.602 1.521,-2.602" /></g><g
           transform="translate(384.0325,63.5702)"
           id="g272"><path
             id="path274"
             style="fill:#161616;fill-opacity:1;fill-rule:nonzero;stroke:none"
             d="m 0,0 c 0,-0.279 -0.216,-0.496 -0.468,-0.496 -0.261,0 -0.477,0.217 -0.477,0.496 0,0.27 0.216,0.485 0.477,0.485 C -0.216,0.485 0,0.27 0,0" /></g><g
           transform="translate(388.4622,64.1815)"
           id="g276"><path
             id="path278"
             style="fill:#161616;fill-opacity:1;fill-rule:nonzero;stroke:none"
             d="m 0,0 0.405,-0.404 c -0.424,-0.45 -1.026,-0.712 -1.666,-0.712 -1.215,0 -2.169,1 -2.169,2.278 0,1.269 0.946,2.269 2.169,2.269 0.649,0 1.261,-0.252 1.693,-0.685 L 0.009,2.287 c -0.315,0.342 -0.783,0.549 -1.242,0.549 -0.865,0 -1.539,-0.738 -1.539,-1.674 0,-0.955 0.674,-1.683 1.547,-1.683 0.478,0 0.919,0.179 1.225,0.521" /></g><g
           transform="translate(393.2405,65.3339)"
           id="g280"><path
             id="path282"
             style="fill:#161616;fill-opacity:1;fill-rule:nonzero;stroke:none"
             d="M 0,0 C 0,0.973 -0.64,1.702 -1.495,1.702 -2.35,1.702 -2.98,0.973 -2.98,0 c 0,-0.98 0.63,-1.692 1.485,-1.692 C -0.64,-1.692 0,-0.972 0,0 m -1.495,2.278 c 1.224,0 2.143,-0.972 2.143,-2.268 0,-1.306 -0.927,-2.287 -2.143,-2.287 -1.206,0 -2.133,0.99 -2.133,2.287 0,1.296 0.918,2.268 2.133,2.268" /></g><g
           transform="translate(395.0393,67.5399)"
           id="g284"><path
             id="path286"
             style="fill:#161616;fill-opacity:1;fill-rule:nonzero;stroke:none"
             d="m 0,0 h 0.657 v -0.685 c 0.333,0.505 0.766,0.757 1.306,0.757 0.621,0 1.107,-0.333 1.35,-0.855 0.342,0.567 0.829,0.855 1.468,0.855 0.882,0 1.494,-0.666 1.494,-1.63 V -4.394 H 5.618 v 2.674 c 0,0.766 -0.414,1.242 -1.08,1.242 -0.46,0 -0.828,-0.224 -1.099,-0.692 0.028,-0.127 0.037,-0.253 0.037,-0.388 V -4.394 H 2.818 v 2.674 c 0,0.766 -0.422,1.242 -1.089,1.242 -0.451,0 -0.81,-0.215 -1.072,-0.647 V -4.394 H 0 Z" /></g><g
           transform="translate(403.427,63.5702)"
           id="g288"><path
             id="path290"
             style="fill:#161616;fill-opacity:1;fill-rule:nonzero;stroke:none"
             d="m 0,0 c 0,-0.279 -0.216,-0.496 -0.468,-0.496 -0.261,0 -0.477,0.217 -0.477,0.496 0,0.27 0.216,0.485 0.477,0.485 C -0.216,0.485 0,0.27 0,0 M 0,3.573 C 0,3.295 -0.216,3.078 -0.468,3.078 c -0.261,0 -0.477,0.217 -0.477,0.495 0,0.271 0.216,0.487 0.477,0.487 C -0.216,4.06 0,3.844 0,3.573" /></g><g
           transform="translate(408.0911,67.8817)"
           id="g292"><path
             id="path294"
             style="fill:#161616;fill-opacity:1;fill-rule:nonzero;stroke:none"
             d="m 0,0 c 0,0.648 -0.595,1.144 -1.378,1.144 -0.774,0 -1.368,-0.496 -1.368,-1.144 0,-0.647 0.603,-1.143 1.368,-1.143 C -0.604,-1.143 0,-0.647 0,0 m 0.225,-2.988 c 0,0.728 -0.694,1.287 -1.603,1.287 -0.909,0 -1.602,-0.559 -1.602,-1.287 0,-0.739 0.693,-1.306 1.602,-1.306 0.909,0 1.603,0.567 1.603,1.306 m -3.844,-0.045 c 0,0.764 0.612,1.413 1.485,1.62 -0.738,0.207 -1.242,0.774 -1.242,1.44 0,0.937 0.855,1.639 1.998,1.639 1.144,0 2.008,-0.702 2.008,-1.639 0,-0.666 -0.504,-1.233 -1.242,-1.44 0.873,-0.207 1.476,-0.847 1.476,-1.62 0,-1.045 -0.936,-1.792 -2.242,-1.792 -1.296,0 -2.241,0.756 -2.241,1.792" /></g><g
           transform="translate(414.2463,66.2977)"
           id="g296"><path
             id="path298"
             style="fill:#161616;fill-opacity:1;fill-rule:nonzero;stroke:none"
             d="M 0,0 C 0,1.62 -0.711,2.655 -1.801,2.655 -2.89,2.655 -3.602,1.611 -3.602,0 c 0,-1.611 0.712,-2.656 1.801,-2.656 C -0.702,-2.656 0,-1.621 0,0 m -4.259,0 c 0,1.908 1.018,3.241 2.458,3.241 1.449,0 2.458,-1.333 2.458,-3.241 0,-1.909 -0.999,-3.241 -2.458,-3.241 -1.449,0 -2.458,1.332 -2.458,3.241" /></g><g
           transform="translate(419.5569,67.8817)"
           id="g300"><path
             id="path302"
             style="fill:#161616;fill-opacity:1;fill-rule:nonzero;stroke:none"
             d="m 0,0 c 0,0.648 -0.595,1.144 -1.378,1.144 -0.774,0 -1.368,-0.496 -1.368,-1.144 0,-0.647 0.603,-1.143 1.368,-1.143 C -0.604,-1.143 0,-0.647 0,0 m 0.225,-2.988 c 0,0.728 -0.694,1.287 -1.603,1.287 -0.909,0 -1.602,-0.559 -1.602,-1.287 0,-0.739 0.693,-1.306 1.602,-1.306 0.909,0 1.603,0.567 1.603,1.306 m -3.844,-0.045 c 0,0.764 0.612,1.413 1.485,1.62 -0.738,0.207 -1.242,0.774 -1.242,1.44 0,0.937 0.855,1.639 1.998,1.639 1.144,0 2.008,-0.702 2.008,-1.639 0,-0.666 -0.504,-1.233 -1.242,-1.44 0.873,-0.207 1.476,-0.847 1.476,-1.62 0,-1.045 -0.936,-1.792 -2.242,-1.792 -1.296,0 -2.241,0.756 -2.241,1.792" /></g><g
           transform="translate(425.7122,66.2977)"
           id="g304"><path
             id="path306"
             style="fill:#161616;fill-opacity:1;fill-rule:nonzero;stroke:none"
             d="M 0,0 C 0,1.62 -0.711,2.655 -1.801,2.655 -2.89,2.655 -3.602,1.611 -3.602,0 c 0,-1.611 0.712,-2.656 1.801,-2.656 C -0.702,-2.656 0,-1.621 0,0 m -4.259,0 c 0,1.908 1.018,3.241 2.458,3.241 1.449,0 2.458,-1.333 2.458,-3.241 0,-1.909 -0.999,-3.241 -2.458,-3.241 -1.449,0 -2.458,1.332 -2.458,3.241" /></g><g
           transform="translate(381.9622,127.3827)"
           id="g308"><path
             id="path310"
             style="fill:#5c5c5c;fill-opacity:1;fill-rule:nonzero;stroke:none"
             d="M 0,0 -17.43,-10.063 -34.859,0 V 20.126 L -17.43,30.189 0,20.126 Z m 1.421,21.494 -18.377,10.61 c -0.293,0.169 -0.654,0.169 -0.947,0 L -36.28,21.494 c -0.293,-0.17 -0.474,-0.482 -0.474,-0.82 V -0.547 c 0,-0.339 0.181,-0.651 0.474,-0.821 l 18.377,-10.611 c 0.146,-0.084 0.31,-0.125 0.473,-0.125 0.163,0 0.327,0.041 0.474,0.125 L 1.421,-1.368 c 0.293,0.17 0.474,0.482 0.474,0.821 v 21.221 c 0,0.338 -0.181,0.65 -0.474,0.82" /></g><path
           id="path312"
           style="fill:#ffffff;fill-opacity:1;fill-rule:nonzero;stroke:none"
           d="M 163.236,14.174 H 15.834 v 162.817 h 147.402 z" /><g
           transform="translate(47.5803,101.6356)"
           id="g314"><path
             id="path316"
             style="fill:#161616;fill-opacity:1;fill-rule:nonzero;stroke:none"
             d="M 0,0 C 0,0.649 -0.49,1.069 -1.239,1.069 H -3.148 V -1.08 h 1.909 C -0.49,-1.08 0,-0.65 0,0 M -3.148,3.957 V 1.998 h 1.789 c 0.689,0 1.129,0.38 1.129,0.98 0,0.599 -0.44,0.979 -1.129,0.979 z m 1.909,0.98 c 1.319,0 2.208,-0.74 2.208,-1.839 0,-0.7 -0.44,-1.27 -1.119,-1.549 0.83,-0.26 1.359,-0.87 1.359,-1.659 0,-1.16 -0.93,-1.95 -2.309,-1.95 h -3.248 v 6.997 z" /></g><g
           transform="translate(51.8811,100.286)"
           id="g318"><path
             id="path320"
             style="fill:#161616;fill-opacity:1;fill-rule:nonzero;stroke:none"
             d="m 0,0 c 0.45,0 0.84,0.13 1.18,0.409 v 0.82 c -0.36,0.17 -0.72,0.24 -1.159,0.24 -0.64,0 -1.041,-0.28 -1.041,-0.72 C -1.02,0.29 -0.619,0 0,0 m -2.078,0.729 c 0,0.9 0.729,1.469 1.908,1.469 0.47,0 0.899,-0.099 1.35,-0.309 v 0.549 c 0,0.661 -0.38,1 -1.15,1 -0.42,0 -0.88,-0.12 -1.459,-0.39 l -0.4,0.82 c 0.75,0.35 1.409,0.51 2.079,0.51 1.3,0 2.049,-0.66 2.049,-1.819 V -0.71 H 1.18 v 0.51 c -0.451,-0.409 -0.92,-0.59 -1.49,-0.59 -1.049,0 -1.768,0.62 -1.768,1.519" /></g><g
           transform="translate(59.1301,101.0253)"
           id="g322"><path
             id="path324"
             style="fill:#161616;fill-opacity:1;fill-rule:nonzero;stroke:none"
             d="m 0,0 0.68,-0.68 c -0.47,-0.539 -1.19,-0.869 -1.959,-0.869 -1.419,0 -2.529,1.14 -2.529,2.599 0,1.449 1.1,2.578 2.529,2.578 0.78,0 1.499,-0.3 1.999,-0.839 L 0.021,2.06 c -0.35,0.389 -0.781,0.588 -1.26,0.588 -0.81,0 -1.439,-0.699 -1.439,-1.598 0,-0.909 0.629,-1.6 1.469,-1.6 0.48,0 0.909,0.191 1.209,0.55" /></g><g
           transform="translate(60.7815,106.7225)"
           id="g326"><path
             id="path328"
             style="fill:#161616;fill-opacity:1;fill-rule:nonzero;stroke:none"
             d="m 0,0 1.13,0.189 v -4.466 l 2.079,2.138 H 4.498 L 2.209,-4.458 4.638,-7.146 H 3.188 L 1.13,-4.838 V -7.146 H 0 Z" /></g><path
           id="path330"
           style="fill:#161616;fill-opacity:1;fill-rule:nonzero;stroke:none"
           d="m 69.54,101.935 h -3.479 v 0.949 h 3.479 z" /><g
           transform="translate(71.7122,102.495)"
           id="g332"><path
             id="path334"
             style="fill:#161616;fill-opacity:1;fill-rule:nonzero;stroke:none"
             d="M 0,0 H 2.608 C 2.479,0.739 1.969,1.249 1.299,1.249 0.629,1.249 0.13,0.759 0,0 m 1.419,-3.019 c -1.43,0 -2.549,1.14 -2.549,2.599 0,1.469 1.05,2.589 2.439,2.589 1.369,0 2.369,-1.09 2.369,-2.579 v -0.279 h -3.699 c 0.111,-0.79 0.73,-1.371 1.5,-1.371 0.469,0 0.91,0.17 1.189,0.47 l 0.739,-0.689 c -0.609,-0.51 -1.209,-0.74 -1.988,-0.74" /></g><g
           transform="translate(76.5413,104.5839)"
           id="g336"><path
             id="path338"
             style="fill:#161616;fill-opacity:1;fill-rule:nonzero;stroke:none"
             d="m 0,0 h 1.13 v -0.82 c 0.38,0.59 0.919,0.9 1.589,0.9 1.019,0 1.729,-0.74 1.729,-1.789 v -3.299 h -1.13 v 2.979 c 0,0.729 -0.429,1.199 -1.099,1.199 -0.449,0 -0.82,-0.21 -1.089,-0.6 V -5.008 H 0 Z" /></g><g
           transform="translate(84.7405,100.4755)"
           id="g340"><path
             id="path342"
             style="fill:#161616;fill-opacity:1;fill-rule:nonzero;stroke:none"
             d="M 0,0 C 0.479,0 0.89,0.19 1.189,0.55 V 2.659 C 0.899,2.999 0.47,3.198 0,3.198 -0.859,3.198 -1.489,2.519 -1.489,1.6 -1.489,0.69 -0.85,0 0,0 M 1.199,-0.229 C 0.85,-0.68 0.29,-0.949 -0.34,-0.949 c -1.269,0 -2.268,1.13 -2.268,2.549 0,1.428 1.029,2.548 2.338,2.548 0.58,0 1.089,-0.24 1.459,-0.66 v 2.759 l 1.13,0.19 v -7.336 h -1.12 z" /></g><g
           transform="translate(96.0491,101.4657)"
           id="g344"><path
             id="path346"
             style="fill:#161616;fill-opacity:1;fill-rule:nonzero;stroke:none"
             d="M 0,0 0.789,-0.76 C 0.14,-1.529 -0.87,-1.989 -1.909,-1.989 c -2.049,0 -3.618,1.579 -3.618,3.597 0,2.03 1.579,3.609 3.618,3.609 1.069,0 2.089,-0.46 2.728,-1.239 L 0.01,3.178 c -0.49,0.62 -1.18,0.969 -1.919,0.969 -1.36,0 -2.389,-1.099 -2.389,-2.539 0,-1.428 1.049,-2.518 2.429,-2.518 0.729,0 1.389,0.32 1.869,0.91" /></g><g
           transform="translate(101.6292,102.0653)"
           id="g348"><path
             id="path350"
             style="fill:#161616;fill-opacity:1;fill-rule:nonzero;stroke:none"
             d="m 0,0 c 0,0.949 -0.59,1.629 -1.399,1.629 -0.82,0 -1.4,-0.68 -1.4,-1.629 0,-0.939 0.58,-1.609 1.4,-1.609 C -0.58,-1.609 0,-0.93 0,0 m -1.399,2.599 c 1.439,0 2.518,-1.12 2.518,-2.589 0,-1.48 -1.089,-2.599 -2.518,-2.599 -1.429,0 -2.519,1.129 -2.519,2.599 0,1.469 1.09,2.589 2.519,2.589" /></g><g
           transform="translate(103.9211,104.5839)"
           id="g352"><path
             id="path354"
             style="fill:#161616;fill-opacity:1;fill-rule:nonzero;stroke:none"
             d="m 0,0 h 1.13 v -0.82 c 0.38,0.59 0.919,0.9 1.589,0.9 1.019,0 1.729,-0.74 1.729,-1.789 v -3.299 h -1.13 v 2.979 c 0,0.729 -0.429,1.199 -1.099,1.199 -0.449,0 -0.82,-0.21 -1.089,-0.6 V -5.008 H 0 Z" /></g><g
           transform="translate(110.3606,103.6844)"
           id="g356"><path
             id="path358"
             style="fill:#161616;fill-opacity:1;fill-rule:nonzero;stroke:none"
             d="M 0,0 H -1.01 V 0.899 H 0 V 2.278 L 1.129,2.519 V 0.899 H 2.528 V 0 H 1.129 v -2.539 c 0,-0.489 0.19,-0.68 0.7,-0.68 0.23,0 0.38,0.031 0.68,0.12 v -0.949 c -0.29,-0.09 -0.67,-0.14 -0.97,-0.14 -1.01,0 -1.539,0.48 -1.539,1.399 z" /></g><g
           transform="translate(115.7102,100.286)"
           id="g360"><path
             id="path362"
             style="fill:#161616;fill-opacity:1;fill-rule:nonzero;stroke:none"
             d="m 0,0 c 0.45,0 0.84,0.13 1.18,0.409 v 0.82 c -0.36,0.17 -0.72,0.24 -1.159,0.24 -0.64,0 -1.041,-0.28 -1.041,-0.72 C -1.02,0.29 -0.619,0 0,0 m -2.078,0.729 c 0,0.9 0.729,1.469 1.908,1.469 0.47,0 0.899,-0.099 1.35,-0.309 v 0.549 c 0,0.661 -0.38,1 -1.15,1 -0.42,0 -0.88,-0.12 -1.459,-0.39 l -0.4,0.82 c 0.75,0.35 1.409,0.51 2.079,0.51 1.3,0 2.049,-0.66 2.049,-1.819 V -0.71 H 1.18 v 0.51 c -0.451,-0.409 -0.92,-0.59 -1.49,-0.59 -1.049,0 -1.768,0.62 -1.768,1.519" /></g><path
           id="path364"
           style="fill:#161616;fill-opacity:1;fill-rule:nonzero;stroke:none"
           d="m 120.511,99.576 h -1.13 v 5.008 h 1.13 z m -1.27,6.717 c 0,0.38 0.321,0.699 0.701,0.699 0.389,0 0.709,-0.319 0.709,-0.699 0,-0.39 -0.31,-0.69 -0.709,-0.69 -0.391,0 -0.701,0.3 -0.701,0.69" /><g
           transform="translate(121.9006,104.5839)"
           id="g366"><path
             id="path368"
             style="fill:#161616;fill-opacity:1;fill-rule:nonzero;stroke:none"
             d="m 0,0 h 1.13 v -0.82 c 0.38,0.59 0.919,0.9 1.589,0.9 1.019,0 1.729,-0.74 1.729,-1.789 v -3.299 h -1.13 v 2.979 c 0,0.729 -0.429,1.199 -1.099,1.199 -0.449,0 -0.82,-0.21 -1.089,-0.6 V -5.008 H 0 Z" /></g><g
           transform="translate(128.6204,102.495)"
           id="g370"><path
             id="path372"
             style="fill:#161616;fill-opacity:1;fill-rule:nonzero;stroke:none"
             d="M 0,0 H 2.609 C 2.479,0.739 1.97,1.249 1.3,1.249 0.63,1.249 0.131,0.759 0,0 m 1.42,-3.019 c -1.43,0 -2.549,1.14 -2.549,2.599 0,1.469 1.05,2.589 2.439,2.589 1.369,0 2.369,-1.09 2.369,-2.579 V -0.689 H -0.02 c 0.111,-0.79 0.73,-1.371 1.499,-1.371 0.47,0 0.911,0.17 1.19,0.47 L 3.408,-2.279 C 2.799,-2.789 2.199,-3.019 1.42,-3.019" /></g><g
           transform="translate(133.4504,104.5839)"
           id="g374"><path
             id="path376"
             style="fill:#161616;fill-opacity:1;fill-rule:nonzero;stroke:none"
             d="m 0,0 h 1.13 v -1.09 c 0.269,0.77 0.749,1.18 1.379,1.18 0.19,-0.01 0.32,-0.03 0.49,-0.101 V -1 C 2.818,-0.92 2.589,-0.88 2.379,-0.88 1.84,-0.88 1.38,-1.189 1.13,-1.709 V -5.008 H 0 Z" /></g><g
           transform="translate(106.9651,127.3827)"
           id="g378"><path
             id="path380"
             style="fill:#5c5c5c;fill-opacity:1;fill-rule:nonzero;stroke:none"
             d="M 0,0 -17.43,-10.063 -34.859,0 V 20.126 L -17.43,30.189 0,20.126 Z m 1.421,21.494 -18.377,10.61 c -0.293,0.169 -0.654,0.169 -0.947,0 L -36.28,21.494 c -0.293,-0.17 -0.474,-0.482 -0.474,-0.82 V -0.547 c 0,-0.339 0.181,-0.651 0.474,-0.821 l 18.377,-10.611 c 0.146,-0.084 0.31,-0.125 0.473,-0.125 0.163,0 0.327,0.041 0.474,0.125 L 1.421,-1.368 c 0.293,0.17 0.474,0.482 0.474,0.821 v 21.221 c 0,0.338 -0.181,0.65 -0.474,0.82" /></g><path
           id="path382"
           style="fill:#d9ede0;fill-opacity:1;fill-rule:nonzero;stroke:none"
           d="M 149.063,28.347 H 30.008 v 50 h 119.055 z" /><g
           transform="translate(64.5354,57.9735)"
           id="g384"><path
             id="path386"
             style="fill:#161616;fill-opacity:1;fill-rule:nonzero;stroke:none"
             d="m 0,0 c 0.811,-0.667 1.396,-0.919 2.117,-0.919 0.836,0 1.412,0.424 1.412,1 0,0.513 -0.304,0.747 -1.142,0.899 L 1.225,1.179 c -1.088,0.198 -1.62,0.738 -1.62,1.602 0,1.135 0.909,1.891 2.323,1.891 0.945,0 1.808,-0.288 2.529,-0.819 L 3.908,3.042 C 3.277,3.528 2.594,3.771 1.891,3.771 c -0.756,0 -1.25,-0.377 -1.25,-0.89 0,-0.45 0.279,-0.685 0.972,-0.793 L 2.729,1.89 C 3.998,1.674 4.592,1.116 4.592,0.161 c 0,-1.152 -1.026,-1.971 -2.529,-1.971 -0.991,0 -1.846,0.342 -2.647,1.017 z" /></g><g
           transform="translate(70.9084,58.8827)"
           id="g388"><path
             id="path390"
             style="fill:#161616;fill-opacity:1;fill-rule:nonzero;stroke:none"
             d="M 0,0 H 2.35 C 2.232,0.666 1.773,1.125 1.17,1.125 0.568,1.125 0.117,0.684 0,0 m 1.279,-2.719 c -1.287,0 -2.297,1.027 -2.297,2.34 0,1.324 0.946,2.332 2.198,2.332 1.234,0 2.134,-0.981 2.134,-2.322 v -0.252 h -3.332 c 0.1,-0.712 0.659,-1.233 1.35,-1.233 0.424,0 0.82,0.152 1.072,0.422 L 3.07,-2.053 C 2.521,-2.512 1.98,-2.719 1.279,-2.719" /></g><g
           transform="translate(75.2542,60.7635)"
           id="g392"><path
             id="path394"
             style="fill:#161616;fill-opacity:1;fill-rule:nonzero;stroke:none"
             d="M 0,0 H 1.018 V -0.98 C 1.262,-0.288 1.693,0.081 2.26,0.081 2.432,0.072 2.549,0.055 2.701,-0.009 V -0.9 c -0.162,0.072 -0.369,0.108 -0.558,0.108 -0.485,0 -0.899,-0.279 -1.125,-0.747 V -4.51 H 0 Z" /></g><g
           transform="translate(78.26,60.7635)"
           id="g396"><path
             id="path398"
             style="fill:#161616;fill-opacity:1;fill-rule:nonzero;stroke:none"
             d="M 0,0 H 1.107 L 2.359,-3.295 3.611,0 H 4.682 L 2.828,-4.51 H 1.846 Z" /></g><path
           id="path400"
           style="fill:#161616;fill-opacity:1;fill-rule:nonzero;stroke:none"
           d="M 84.688,56.254 H 83.67 v 4.51 h 1.018 z m -1.145,6.05 c 0,0.341 0.289,0.629 0.631,0.629 0.352,0 0.639,-0.288 0.639,-0.629 0,-0.352 -0.28,-0.622 -0.639,-0.622 -0.351,0 -0.631,0.27 -0.631,0.622" /><g
           transform="translate(89.1624,57.5585)"
           id="g402"><path
             id="path404"
             style="fill:#161616;fill-opacity:1;fill-rule:nonzero;stroke:none"
             d="m 0,0 0.611,-0.611 c -0.424,-0.487 -1.072,-0.784 -1.763,-0.784 -1.28,0 -2.28,1.027 -2.28,2.34 0,1.306 0.991,2.324 2.28,2.324 0.701,0 1.349,-0.271 1.798,-0.756 L 0.018,1.855 c -0.317,0.351 -0.704,0.531 -1.135,0.531 -0.729,0 -1.297,-0.63 -1.297,-1.441 0,-0.818 0.568,-1.44 1.324,-1.44 0.432,0 0.819,0.172 1.09,0.495" /></g><g
           transform="translate(91.4553,58.8827)"
           id="g406"><path
             id="path408"
             style="fill:#161616;fill-opacity:1;fill-rule:nonzero;stroke:none"
             d="M 0,0 H 2.35 C 2.232,0.666 1.773,1.125 1.17,1.125 0.566,1.125 0.117,0.684 0,0 m 1.277,-2.719 c -1.287,0 -2.295,1.027 -2.295,2.34 0,1.324 0.946,2.332 2.198,2.332 1.232,0 2.133,-0.981 2.133,-2.322 v -0.252 h -3.331 c 0.098,-0.712 0.657,-1.233 1.35,-1.233 0.424,0 0.818,0.152 1.07,0.422 L 3.07,-2.053 C 2.52,-2.512 1.98,-2.719 1.277,-2.719" /></g><g
           transform="translate(98.844,59.4403)"
           id="g410"><path
             id="path412"
             style="fill:#161616;fill-opacity:1;fill-rule:nonzero;stroke:none"
             d="m 0,0 v -1.882 c 0.262,-0.314 0.648,-0.495 1.08,-0.495 0.775,0 1.342,0.612 1.342,1.44 0,0.82 -0.576,1.441 -1.342,1.441 C 0.631,0.504 0.271,0.333 0,0 m -1.018,1.323 h 1 V 0.676 c 0.315,0.431 0.821,0.683 1.405,0.683 1.144,0 2.043,-1.016 2.043,-2.296 0,-1.287 -0.926,-2.294 -2.116,-2.294 -0.531,0 -0.99,0.207 -1.314,0.585 v -2.45 h -1.018 z" /></g><g
           transform="translate(106.6487,58.495)"
           id="g414"><path
             id="path416"
             style="fill:#161616;fill-opacity:1;fill-rule:nonzero;stroke:none"
             d="M 0,0 C 0,0.855 -0.531,1.468 -1.262,1.468 -2,1.468 -2.521,0.855 -2.521,0 -2.521,-0.846 -2,-1.449 -1.262,-1.449 -0.523,-1.449 0,-0.837 0,0 m -1.262,2.341 c 1.297,0 2.27,-1.008 2.27,-2.332 0,-1.332 -0.981,-2.34 -2.27,-2.34 -1.287,0 -2.267,1.017 -2.267,2.34 0,1.324 0.98,2.332 2.267,2.332" /></g><g
           transform="translate(108.7073,60.7635)"
           id="g418"><path
             id="path420"
             style="fill:#161616;fill-opacity:1;fill-rule:nonzero;stroke:none"
             d="M 0,0 H 1.018 V -0.98 C 1.262,-0.288 1.693,0.081 2.26,0.081 2.432,0.072 2.549,0.055 2.701,-0.009 V -0.9 c -0.162,0.072 -0.369,0.108 -0.558,0.108 -0.485,0 -0.899,-0.279 -1.125,-0.747 V -4.51 H 0 Z" /></g><g
           transform="translate(112.803,59.954)"
           id="g422"><path
             id="path424"
             style="fill:#161616;fill-opacity:1;fill-rule:nonzero;stroke:none"
             d="M 0,0 H -0.91 V 0.81 H 0 V 2.053 L 1.018,2.269 V 0.81 H 2.277 V 0 H 1.018 v -2.287 c 0,-0.442 0.169,-0.612 0.628,-0.612 0.208,0 0.342,0.027 0.614,0.108 V -3.646 C 1.998,-3.728 1.656,-3.772 1.387,-3.772 0.477,-3.772 0,-3.34 0,-2.512 Z" /></g><g
           transform="translate(87.6721,50.0721)"
           id="g426"><path
             id="path428"
             style="fill:#161616;fill-opacity:1;fill-rule:nonzero;stroke:none"
             d="m 0,0 c 0,0.559 -0.506,0.981 -1.162,0.981 -0.666,0 -1.17,-0.422 -1.17,-0.981 0,-0.559 0.514,-0.973 1.17,-0.973 C -0.514,-0.973 0,-0.559 0,0 m 0.187,-2.809 c 0,0.613 -0.576,1.072 -1.349,1.072 -0.783,0 -1.359,-0.459 -1.359,-1.072 0,-0.621 0.576,-1.089 1.359,-1.089 0.773,0 1.349,0.468 1.349,1.089 m -3.689,-0.072 c 0,0.73 0.557,1.332 1.359,1.539 -0.685,0.226 -1.152,0.766 -1.152,1.405 0,0.981 0.908,1.719 2.123,1.719 1.217,0 2.135,-0.738 2.135,-1.719 0,-0.639 -0.469,-1.179 -1.145,-1.405 0.803,-0.207 1.36,-0.809 1.36,-1.539 0,-1.071 -0.971,-1.837 -2.34,-1.837 -1.377,0 -2.34,0.766 -2.34,1.837" /></g><g
           transform="translate(93.9436,48.6141)"
           id="g430"><path
             id="path432"
             style="fill:#161616;fill-opacity:1;fill-rule:nonzero;stroke:none"
             d="M 0,0 C 0,1.449 -0.621,2.367 -1.592,2.367 -2.564,2.367 -3.186,1.44 -3.186,0 c 0,-1.459 0.622,-2.377 1.594,-2.377 C -0.611,-2.377 0,-1.468 0,0 m -4.168,0 c 0,1.917 1.045,3.24 2.576,3.24 1.539,0 2.574,-1.323 2.574,-3.24 0,-1.936 -1.035,-3.25 -2.574,-3.25 -1.541,0 -2.576,1.314 -2.576,3.25" /></g><g
           transform="translate(16.4465,226.1288)"
           id="g434"><path
             id="path436"
             style="fill:#161616;fill-opacity:1;fill-rule:nonzero;stroke:none"
             d="M 0,0 H 1.549 V -2.448 H 4.096 V 0 H 5.645 V -6.302 H 4.096 v 2.494 H 1.549 V -6.302 H 0 Z" /></g><g
           transform="translate(26.4915,222.1405)"
           id="g438"><path
             id="path440"
             style="fill:#161616;fill-opacity:1;fill-rule:nonzero;stroke:none"
             d="m 0,0 c 0,0.693 -0.423,1.188 -1.008,1.188 -0.586,0 -1,-0.495 -1,-1.188 0,-0.685 0.414,-1.17 1,-1.17 C -0.414,-1.17 0,-0.685 0,0 m -1.008,2.403 c 1.386,0 2.431,-1.035 2.431,-2.403 0,-1.368 -1.054,-2.403 -2.431,-2.403 -1.378,0 -2.422,1.044 -2.422,2.403 0,1.368 1.044,2.403 2.422,2.403" /></g><g
           transform="translate(29.0999,221.2762)"
           id="g442"><path
             id="path444"
             style="fill:#161616;fill-opacity:1;fill-rule:nonzero;stroke:none"
             d="m 0,0 c 0.666,-0.352 1.044,-0.468 1.494,-0.468 0.415,0 0.667,0.144 0.667,0.378 0,0.18 -0.136,0.279 -0.432,0.333 L 0.837,0.405 c -0.899,0.171 -1.368,0.63 -1.368,1.351 0,0.954 0.729,1.521 1.944,1.521 0.649,0 1.288,-0.179 1.891,-0.531 L 2.638,1.818 C 2.17,2.089 1.737,2.215 1.306,2.215 0.954,2.215 0.747,2.098 0.747,1.891 c 0,-0.19 0.117,-0.27 0.478,-0.333 L 2.098,1.396 C 3.016,1.225 3.502,0.756 3.493,0.055 3.502,-0.855 2.638,-1.539 1.494,-1.539 c -0.846,0 -1.593,0.197 -2.133,0.566 z" /></g><g
           transform="translate(34.051,223.3466)"
           id="g446"><path
             id="path448"
             style="fill:#161616;fill-opacity:1;fill-rule:nonzero;stroke:none"
             d="M 0,0 H -0.9 V 1.126 H 0 V 2.413 L 1.458,2.711 V 1.126 H 2.7 V 0 H 1.458 v -1.8 c 0,-0.415 0.162,-0.558 0.612,-0.558 0.171,0 0.306,0.018 0.594,0.098 V -3.438 C 2.395,-3.52 1.962,-3.582 1.665,-3.582 0.566,-3.582 0,-3.078 0,-2.088 Z" /></g><g
           transform="translate(16.4661,210.8241)"
           id="g450"><path
             id="path452"
             style="fill:#161616;fill-opacity:1;fill-rule:nonzero;stroke:none"
             d="M 0,0 H 0.959 V -2.358 H 3.742 V 0 H 4.701 V -5.597 H 3.742 v 2.399 H 0.959 V -5.597 H 0 Z" /></g><g
           transform="translate(25.3118,207.2177)"
           id="g454"><path
             id="path456"
             style="fill:#161616;fill-opacity:1;fill-rule:nonzero;stroke:none"
             d="M 0,0 C 0,0.76 -0.472,1.304 -1.119,1.304 -1.774,1.304 -2.238,0.76 -2.238,0 c 0,-0.752 0.464,-1.287 1.119,-1.287 C -0.464,-1.287 0,-0.743 0,0 m -1.119,2.079 c 1.151,0 2.015,-0.895 2.015,-2.071 0,-1.184 -0.872,-2.078 -2.015,-2.078 -1.144,0 -2.015,0.903 -2.015,2.078 0,1.176 0.871,2.071 2.015,2.071" /></g><g
           transform="translate(27.2102,206.2977)"
           id="g458"><path
             id="path460"
             style="fill:#161616;fill-opacity:1;fill-rule:nonzero;stroke:none"
             d="m 0,0 c 0.52,-0.327 0.879,-0.455 1.287,-0.455 0.48,0 0.808,0.216 0.808,0.535 0,0.248 -0.168,0.385 -0.552,0.456 L 0.831,0.656 C 0.056,0.801 -0.328,1.16 -0.328,1.76 c 0,0.752 0.615,1.239 1.551,1.239 0.559,0 1.063,-0.151 1.575,-0.479 L 2.374,1.928 C 1.959,2.191 1.575,2.312 1.167,2.312 0.751,2.312 0.479,2.135 0.479,1.84 0.479,1.584 0.623,1.472 1.047,1.4 L 1.751,1.271 C 2.55,1.12 2.934,0.752 2.934,0.152 2.934,-0.583 2.23,-1.15 1.303,-1.15 0.607,-1.15 0,-0.959 -0.424,-0.607 Z" /></g><g
           transform="translate(31.4739,208.5126)"
           id="g462"><path
             id="path464"
             style="fill:#161616;fill-opacity:1;fill-rule:nonzero;stroke:none"
             d="M 0,0 H -0.808 V 0.721 H 0 V 1.824 L 0.903,2.016 V 0.721 H 2.022 V 0 H 0.903 v -2.03 c 0,-0.392 0.152,-0.544 0.56,-0.544 0.183,0 0.304,0.024 0.544,0.095 V -3.238 C 1.774,-3.31 1.471,-3.35 1.231,-3.35 0.424,-3.35 0,-2.966 0,-2.23 Z" /></g><path
           id="path466"
           style="fill:#161616;fill-opacity:1;fill-rule:nonzero;stroke:none"
           d="m 36.154,210.824 h 0.959 v -5.597 h -0.959 z" /><g
           transform="translate(39.3762,210.0165)"
           id="g468"><path
             id="path470"
             style="fill:#161616;fill-opacity:1;fill-rule:nonzero;stroke:none"
             d="m 0,0 v -1.871 h 1.392 c 0.679,0 1.055,0.376 1.055,0.943 C 2.447,-0.376 2.071,0 1.399,0 Z m -0.959,0.808 h 2.502 c 1.136,0 1.871,-0.712 1.871,-1.744 0,-1 -0.735,-1.718 -1.871,-1.718 H 0 v -2.135 h -0.959 z" /></g><g
           transform="translate(46.512,205.7391)"
           id="g472"><path
             id="path474"
             style="fill:#161616;fill-opacity:1;fill-rule:nonzero;stroke:none"
             d="m 0,0 c 0,-0.328 -0.256,-0.584 -0.56,-0.584 -0.303,0 -0.559,0.256 -0.559,0.584 0,0.319 0.256,0.583 0.559,0.583 C -0.256,0.583 0,0.319 0,0 M 0,2.998 C 0,2.67 -0.256,2.414 -0.56,2.414 c -0.303,0 -0.559,0.256 -0.559,0.584 0,0.32 0.256,0.584 0.559,0.584 C -0.256,3.582 0,3.318 0,2.998" /></g><g
           transform="translate(84.3694,205.2274)"
           id="g476"><path
             id="path478"
             style="fill:#161616;fill-opacity:1;fill-rule:nonzero;stroke:none"
             d="m 0,0 h -0.575 v 4.973 l -0.896,-0.4 v 0.528 l 1.112,0.496 0.359,0 z" /></g><g
           transform="translate(88.6243,210.3124)"
           id="g480"><path
             id="path482"
             style="fill:#161616;fill-opacity:1;fill-rule:nonzero;stroke:none"
             d="m 0,0 h -3.366 v 0.512 h 3.99 V 0.063 l -2.751,-5.148 h -0.655 z" /></g><g
           transform="translate(89.8899,205.6512)"
           id="g484"><path
             id="path486"
             style="fill:#161616;fill-opacity:1;fill-rule:nonzero;stroke:none"
             d="m 0,0 2.239,2.446 c 0.52,0.575 0.68,0.888 0.68,1.312 0,0.558 -0.496,0.974 -1.176,0.974 -0.527,0 -0.927,-0.183 -1.478,-0.679 l -0.336,0.4 c 0.583,0.535 1.167,0.791 1.822,0.791 1.008,0 1.735,-0.607 1.735,-1.455 0,-0.551 -0.175,-0.894 -0.855,-1.646 L 0.72,0.071 3.606,0.08 V -0.424 H 0 Z" /></g><g
           transform="translate(95.1692,205.6024)"
           id="g488"><path
             id="path490"
             style="fill:#161616;fill-opacity:1;fill-rule:nonzero;stroke:none"
             d="m 0,0 c 0,-0.248 -0.191,-0.439 -0.415,-0.439 -0.232,0 -0.424,0.191 -0.424,0.439 0,0.24 0.192,0.432 0.424,0.432 C -0.191,0.432 0,0.24 0,0" /></g><g
           transform="translate(96.0334,205.6512)"
           id="g492"><path
             id="path494"
             style="fill:#161616;fill-opacity:1;fill-rule:nonzero;stroke:none"
             d="m 0,0 2.239,2.446 c 0.52,0.575 0.68,0.888 0.68,1.312 0,0.558 -0.496,0.974 -1.176,0.974 -0.527,0 -0.928,-0.183 -1.478,-0.679 l -0.336,0.4 c 0.583,0.535 1.167,0.791 1.822,0.791 1.008,0 1.735,-0.607 1.735,-1.455 0,-0.551 -0.175,-0.894 -0.855,-1.646 L 0.72,0.071 3.606,0.08 V -0.424 H 0 Z" /></g><g
           transform="translate(100.6975,210.8241)"
           id="g496"><path
             id="path498"
             style="fill:#161616;fill-opacity:1;fill-rule:nonzero;stroke:none"
             d="M 0,0 H 3.183 V -0.504 H 0.496 L 0.407,-2.438 c 0.424,0.207 0.8,0.294 1.24,0.294 1.095,0 1.831,-0.679 1.831,-1.678 0,-1.104 -0.791,-1.855 -1.958,-1.855 -0.737,0 -1.376,0.256 -1.904,0.76 l 0.36,0.391 c 0.488,-0.463 0.943,-0.656 1.551,-0.656 0.816,0 1.375,0.544 1.375,1.335 0,0.737 -0.559,1.241 -1.375,1.241 -0.423,0 -0.815,-0.096 -1.256,-0.321 l -0.399,0.128 z" /></g><g
           transform="translate(105.8723,205.6024)"
           id="g500"><path
             id="path502"
             style="fill:#161616;fill-opacity:1;fill-rule:nonzero;stroke:none"
             d="m 0,0 c 0,-0.248 -0.191,-0.439 -0.415,-0.439 -0.232,0 -0.424,0.191 -0.424,0.439 0,0.24 0.192,0.432 0.424,0.432 C -0.191,0.432 0,0.24 0,0" /></g><g
           transform="translate(106.7366,205.6512)"
           id="g504"><path
             id="path506"
             style="fill:#161616;fill-opacity:1;fill-rule:nonzero;stroke:none"
             d="m 0,0 2.239,2.446 c 0.52,0.575 0.68,0.888 0.68,1.312 0,0.558 -0.496,0.974 -1.176,0.974 -0.527,0 -0.928,-0.183 -1.478,-0.679 l -0.336,0.4 c 0.583,0.535 1.167,0.791 1.822,0.791 1.008,0 1.735,-0.607 1.735,-1.455 0,-0.551 -0.175,-0.894 -0.855,-1.646 L 0.72,0.071 3.606,0.08 V -0.424 H 0 Z" /></g><g
           transform="translate(111.4006,210.8241)"
           id="g508"><path
             id="path510"
             style="fill:#161616;fill-opacity:1;fill-rule:nonzero;stroke:none"
             d="M 0,0 H 3.183 V -0.504 H 0.496 L 0.407,-2.438 c 0.424,0.207 0.8,0.294 1.24,0.294 1.095,0 1.831,-0.679 1.831,-1.678 0,-1.104 -0.791,-1.855 -1.958,-1.855 -0.737,0 -1.376,0.256 -1.904,0.76 l 0.36,0.391 c 0.488,-0.463 0.943,-0.656 1.551,-0.656 0.816,0 1.375,0.544 1.375,1.335 0,0.737 -0.559,1.241 -1.375,1.241 -0.423,0 -0.815,-0.096 -1.256,-0.321 l -0.399,0.128 z" /></g><g
           transform="translate(119.5178,208.0253)"
           id="g512"><path
             id="path514"
             style="fill:#161616;fill-opacity:1;fill-rule:nonzero;stroke:none"
             d="m 0,0 c 0,1.439 -0.631,2.358 -1.599,2.358 -0.967,0 -1.599,-0.927 -1.599,-2.358 0,-1.431 0.632,-2.358 1.599,-2.358 C -0.623,-2.358 0,-1.438 0,0 m -3.781,0 c 0,1.695 0.903,2.878 2.182,2.878 1.287,0 2.183,-1.183 2.183,-2.878 0,-1.694 -0.888,-2.878 -2.183,-2.878 -1.287,0 -2.182,1.184 -2.182,2.878" /></g><g
           transform="translate(121.8557,205.6024)"
           id="g516"><path
             id="path518"
             style="fill:#161616;fill-opacity:1;fill-rule:nonzero;stroke:none"
             d="m 0,0 c 0,-0.248 -0.191,-0.439 -0.415,-0.439 -0.232,0 -0.424,0.191 -0.424,0.439 0,0.24 0.192,0.432 0.424,0.432 C -0.191,0.432 0,0.24 0,0" /></g><g
           transform="translate(126.2219,208.6093)"
           id="g520"><path
             id="path522"
             style="fill:#161616;fill-opacity:1;fill-rule:nonzero;stroke:none"
             d="m 0,0 c -0.119,1.071 -0.735,1.774 -1.591,1.774 -0.76,0 -1.327,-0.558 -1.327,-1.31 0,-0.752 0.567,-1.287 1.375,-1.287 0.584,0 1.144,0.311 1.543,0.823 m 0.592,-0.392 c 0,-1.839 -0.999,-3.054 -2.51,-3.054 -0.464,0 -0.952,0.135 -1.311,0.376 l 0.288,0.448 c 0.327,-0.192 0.703,-0.305 1.071,-0.305 1.151,0 1.862,0.936 1.887,2.479 -0.416,-0.535 -1.024,-0.848 -1.64,-0.848 -1.087,0 -1.87,0.736 -1.87,1.744 0,1.055 0.807,1.83 1.894,1.83 1.287,0 2.191,-1.103 2.191,-2.67" /></g><g
           transform="translate(16.4661,201.2235)"
           id="g524"><path
             id="path526"
             style="fill:#161616;fill-opacity:1;fill-rule:nonzero;stroke:none"
             d="M 0,0 H 0.959 V -2.358 H 3.742 V 0 H 4.701 V -5.597 H 3.742 v 2.399 H 0.959 V -5.597 H 0 Z" /></g><g
           transform="translate(25.3118,197.618)"
           id="g528"><path
             id="path530"
             style="fill:#161616;fill-opacity:1;fill-rule:nonzero;stroke:none"
             d="M 0,0 C 0,0.76 -0.472,1.303 -1.119,1.303 -1.774,1.303 -2.238,0.76 -2.238,0 c 0,-0.752 0.464,-1.287 1.119,-1.287 C -0.464,-1.287 0,-0.744 0,0 m -1.119,2.078 c 1.151,0 2.015,-0.894 2.015,-2.07 0,-1.184 -0.872,-2.079 -2.015,-2.079 -1.144,0 -2.015,0.903 -2.015,2.079 0,1.176 0.871,2.07 2.015,2.07" /></g><g
           transform="translate(27.2102,196.6981)"
           id="g532"><path
             id="path534"
             style="fill:#161616;fill-opacity:1;fill-rule:nonzero;stroke:none"
             d="m 0,0 c 0.52,-0.328 0.879,-0.455 1.287,-0.455 0.48,0 0.808,0.215 0.808,0.535 0,0.248 -0.168,0.384 -0.552,0.455 L 0.831,0.656 C 0.056,0.8 -0.328,1.16 -0.328,1.76 c 0,0.751 0.615,1.238 1.551,1.238 0.559,0 1.063,-0.151 1.575,-0.479 L 2.374,1.928 C 1.959,2.191 1.575,2.311 1.167,2.311 0.751,2.311 0.479,2.135 0.479,1.839 0.479,1.583 0.623,1.471 1.047,1.399 L 1.751,1.271 C 2.55,1.119 2.934,0.752 2.934,0.152 c 0,-0.736 -0.704,-1.303 -1.631,-1.303 -0.696,0 -1.303,0.192 -1.727,0.544 z" /></g><g
           transform="translate(31.4739,198.913)"
           id="g536"><path
             id="path538"
             style="fill:#161616;fill-opacity:1;fill-rule:nonzero;stroke:none"
             d="M 0,0 H -0.808 V 0.72 H 0 V 1.823 L 0.903,2.016 V 0.72 H 2.022 V 0 H 0.903 v -2.031 c 0,-0.392 0.152,-0.543 0.56,-0.543 0.183,0 0.304,0.023 0.544,0.095 V -3.238 C 1.774,-3.311 1.471,-3.35 1.231,-3.35 0.424,-3.35 0,-2.967 0,-2.23 Z" /></g><g
           transform="translate(37.137,201.2235)"
           id="g540"><path
             id="path542"
             style="fill:#161616;fill-opacity:1;fill-rule:nonzero;stroke:none"
             d="M 0,0 2.918,-4.062 2.902,0 H 3.806 V -5.597 H 2.95 l -2.998,4.174 0.016,-4.174 H -0.936 V 0 Z" /></g><g
           transform="translate(43.6399,196.1942)"
           id="g544"><path
             id="path546"
             style="fill:#161616;fill-opacity:1;fill-rule:nonzero;stroke:none"
             d="M 0,0 C 0.36,0 0.672,0.104 0.944,0.328 V 0.984 C 0.656,1.119 0.368,1.176 0.017,1.176 -0.495,1.176 -0.815,0.951 -0.815,0.6 -0.815,0.232 -0.495,0 0,0 m -1.663,0.584 c 0,0.72 0.584,1.176 1.527,1.176 0.376,0 0.72,-0.08 1.08,-0.248 v 0.439 c 0,0.528 -0.304,0.8 -0.92,0.8 -0.336,0 -0.704,-0.097 -1.167,-0.312 l -0.32,0.656 c 0.6,0.28 1.128,0.407 1.663,0.407 1.04,0 1.64,-0.527 1.64,-1.455 V -0.567 H 0.944 v 0.407 c -0.36,-0.327 -0.736,-0.471 -1.191,-0.471 -0.84,0 -1.416,0.495 -1.416,1.215" /></g><g
           transform="translate(46.5764,199.6327)"
           id="g548"><path
             id="path550"
             style="fill:#161616;fill-opacity:1;fill-rule:nonzero;stroke:none"
             d="m 0,0 h 0.903 v -0.64 c 0.296,0.464 0.697,0.703 1.192,0.703 0.536,0 0.968,-0.302 1.176,-0.775 0.303,0.512 0.759,0.775 1.327,0.775 0.775,0 1.311,-0.599 1.311,-1.455 V -4.006 H 5.005 v 2.423 c 0,0.56 -0.312,0.92 -0.807,0.92 -0.328,0 -0.592,-0.16 -0.807,-0.473 0.007,-0.088 0.015,-0.168 0.015,-0.256 V -4.006 H 2.503 v 2.423 c 0,0.56 -0.313,0.92 -0.808,0.92 -0.32,0 -0.584,-0.152 -0.792,-0.457 V -4.006 H 0 Z" /></g><g
           transform="translate(54.304,197.9618)"
           id="g552"><path
             id="path554"
             style="fill:#161616;fill-opacity:1;fill-rule:nonzero;stroke:none"
             d="M 0,0 H 2.087 C 1.982,0.592 1.575,0.999 1.039,0.999 0.504,0.999 0.104,0.607 0,0 m 1.136,-2.415 c -1.144,0 -2.039,0.911 -2.039,2.079 0,1.176 0.839,2.07 1.951,2.07 1.095,0 1.894,-0.871 1.894,-2.062 v -0.224 h -2.958 c 0.088,-0.632 0.583,-1.095 1.2,-1.095 0.376,0 0.727,0.135 0.951,0.376 L 2.727,-1.823 C 2.238,-2.23 1.759,-2.415 1.136,-2.415" /></g><g
           transform="translate(60.9436,196.1385)"
           id="g556"><path
             id="path558"
             style="fill:#161616;fill-opacity:1;fill-rule:nonzero;stroke:none"
             d="m 0,0 c 0,-0.327 -0.256,-0.583 -0.56,-0.583 -0.303,0 -0.559,0.256 -0.559,0.583 0,0.319 0.256,0.583 0.559,0.583 C -0.256,0.583 0,0.319 0,0 M 0,2.999 C 0,2.671 -0.256,2.415 -0.56,2.415 c -0.303,0 -0.559,0.256 -0.559,0.584 0,0.319 0.256,0.583 0.559,0.583 C -0.256,3.582 0,3.318 0,2.999" /></g><g
           transform="translate(83.1702,201.3436)"
           id="g560"><path
             id="path562"
             style="fill:#161616;fill-opacity:1;fill-rule:nonzero;stroke:none"
             d="m 0,0 0.584,0.12 v -2.566 c 0.296,0.463 0.72,0.695 1.239,0.695 0.84,0 1.415,-0.584 1.415,-1.439 V -5.717 H 2.654 v 2.359 c 0,0.687 -0.407,1.119 -1.047,1.119 -0.431,0 -0.792,-0.207 -1.023,-0.6 v -2.878 l -0.584,0 z" /></g><g
           transform="translate(90.6321,197.5692)"
           id="g564"><path
             id="path566"
             style="fill:#161616;fill-opacity:1;fill-rule:nonzero;stroke:none"
             d="m 0,0 c 0,0.864 -0.567,1.512 -1.327,1.512 -0.759,0 -1.319,-0.648 -1.319,-1.512 0,-0.871 0.56,-1.502 1.319,-1.502 C -0.567,-1.502 0,-0.863 0,0 m -1.327,2.023 c 1.088,0 1.903,-0.863 1.903,-2.014 0,-1.159 -0.823,-2.031 -1.903,-2.031 -1.071,0 -1.895,0.879 -1.895,2.031 0,1.151 0.816,2.014 1.895,2.014" /></g><g
           transform="translate(92.1702,196.5145)"
           id="g568"><path
             id="path570"
             style="fill:#161616;fill-opacity:1;fill-rule:nonzero;stroke:none"
             d="m 0,0 c 0.463,-0.344 0.839,-0.488 1.255,-0.488 0.567,0 0.983,0.297 0.983,0.704 0,0.319 -0.208,0.487 -0.703,0.583 L 0.896,0.911 c -0.76,0.136 -1.104,0.456 -1.104,1.024 0,0.671 0.583,1.143 1.407,1.143 0.535,0 0.991,-0.152 1.488,-0.488 L 2.398,2.183 C 1.99,2.471 1.591,2.599 1.175,2.599 0.663,2.599 0.327,2.358 0.327,1.975 0.327,1.654 0.495,1.503 0.999,1.415 L 1.654,1.295 C 2.438,1.151 2.79,0.823 2.79,0.248 c 0,-0.68 -0.655,-1.207 -1.519,-1.207 -0.64,0 -1.2,0.199 -1.583,0.575 z" /></g><g
           transform="translate(96.3137,199.0487)"
           id="g572"><path
             id="path574"
             style="fill:#161616;fill-opacity:1;fill-rule:nonzero;stroke:none"
             d="M 0,0 H -0.808 V 0.479 H 0 V 1.552 L 0.584,1.687 V 0.479 H 1.703 V 0 H 0.584 v -2.391 c 0,-0.415 0.159,-0.583 0.567,-0.583 0.201,0 0.336,0.024 0.552,0.104 V -3.39 C 1.487,-3.462 1.247,-3.493 1.023,-3.493 0.352,-3.493 0,-3.166 0,-2.542 Z" /></g><g
           transform="translate(99.5696,196.0028)"
           id="g576"><path
             id="path578"
             style="fill:#161616;fill-opacity:1;fill-rule:nonzero;stroke:none"
             d="m 0,0 c 0,-0.248 -0.191,-0.439 -0.415,-0.439 -0.232,0 -0.424,0.191 -0.424,0.439 0,0.24 0.192,0.432 0.424,0.432 C -0.191,0.432 0,0.24 0,0" /></g><g
           transform="translate(101.0422,197.8661)"
           id="g580"><path
             id="path582"
             style="fill:#161616;fill-opacity:1;fill-rule:nonzero;stroke:none"
             d="M 0,0 H 2.471 C 2.383,0.703 1.887,1.223 1.247,1.223 0.6,1.223 0.104,0.719 0,0 m 1.351,-2.311 c -1.095,0 -1.935,0.879 -1.935,2.023 0,1.143 0.8,2.015 1.839,2.015 1.023,0 1.791,-0.848 1.791,-1.967 v -0.176 h -3.063 c 0.057,-0.792 0.648,-1.383 1.392,-1.383 0.407,0 0.808,0.152 1.071,0.399 L 2.814,-1.791 C 2.366,-2.144 1.895,-2.311 1.351,-2.311" /></g><g
           transform="translate(106.0813,197.6337)"
           id="g584"><path
             id="path586"
             style="fill:#161616;fill-opacity:1;fill-rule:nonzero;stroke:none"
             d="M 0,0 -1.415,1.895 H -0.72 L 0.36,0.416 1.424,1.895 H 2.087 L 0.687,0.016 2.199,-2.007 H 1.504 l -1.168,1.591 -1.159,-1.591 h -0.664 z" /></g><g
           transform="translate(110.3127,196.0028)"
           id="g588"><path
             id="path590"
             style="fill:#161616;fill-opacity:1;fill-rule:nonzero;stroke:none"
             d="M 0,0 C 0.44,0 0.8,0.144 1.119,0.447 V 1.199 C 0.792,1.391 0.456,1.479 0.017,1.479 -0.583,1.479 -0.976,1.191 -0.976,0.76 -0.976,0.304 -0.583,0 0,0 m -1.535,0.743 c 0,0.696 0.584,1.159 1.464,1.159 0.447,0 0.846,-0.095 1.19,-0.302 v 0.535 c 0,0.639 -0.344,0.967 -1.007,0.967 -0.36,0 -0.727,-0.104 -1.183,-0.336 l -0.216,0.448 c 0.536,0.256 0.999,0.376 1.472,0.376 0.966,0 1.51,-0.488 1.51,-1.375 V -0.376 H 1.119 V 0.08 C 0.775,-0.271 0.36,-0.447 -0.12,-0.447 c -0.831,0 -1.415,0.487 -1.415,1.19" /></g><g
           transform="translate(113.1936,199.5282)"
           id="g592"><path
             id="path594"
             style="fill:#161616;fill-opacity:1;fill-rule:nonzero;stroke:none"
             d="m 0,0 h 0.584 v -0.607 c 0.296,0.448 0.68,0.671 1.159,0.671 0.552,0 0.984,-0.295 1.199,-0.759 0.304,0.504 0.736,0.759 1.304,0.759 0.783,0 1.327,-0.591 1.327,-1.447 V -3.901 H 4.989 v 2.374 c 0,0.679 -0.368,1.103 -0.959,1.103 -0.408,0 -0.736,-0.199 -0.975,-0.615 0.023,-0.111 0.031,-0.224 0.031,-0.344 V -3.901 H 2.503 v 2.374 c 0,0.679 -0.376,1.103 -0.968,1.103 -0.399,0 -0.72,-0.191 -0.951,-0.575 v -2.902 l -0.584,0 z" /></g><g
           transform="translate(120.5374,198.5292)"
           id="g596"><path
             id="path598"
             style="fill:#161616;fill-opacity:1;fill-rule:nonzero;stroke:none"
             d="m 0,0 v -1.911 c 0.256,-0.344 0.663,-0.543 1.111,-0.543 0.784,0 1.368,0.639 1.368,1.494 0,0.856 -0.584,1.496 -1.368,1.496 C 0.647,0.536 0.248,0.344 0,0 m -0.584,0.999 h 0.576 V 0.44 c 0.296,0.391 0.743,0.608 1.263,0.608 1.016,0 1.799,-0.88 1.799,-1.999 0,-1.128 -0.799,-2.007 -1.831,-2.007 -0.488,0 -0.919,0.191 -1.223,0.543 v -2.158 h -0.584 z" /></g><g
           transform="translate(125.2014,195.6268)"
           id="g600"><path
             id="path602"
             style="fill:#161616;fill-opacity:1;fill-rule:nonzero;stroke:none"
             d="M 0,0 H -0.584 V 5.717 L 0,5.837 Z" /></g><g
           transform="translate(126.8098,197.8661)"
           id="g604"><path
             id="path606"
             style="fill:#161616;fill-opacity:1;fill-rule:nonzero;stroke:none"
             d="M 0,0 H 2.471 C 2.383,0.703 1.887,1.223 1.247,1.223 0.6,1.223 0.104,0.719 0,0 m 1.351,-2.311 c -1.095,0 -1.935,0.879 -1.935,2.023 0,1.143 0.8,2.015 1.839,2.015 1.023,0 1.791,-0.848 1.791,-1.967 v -0.176 h -3.063 c 0.057,-0.792 0.648,-1.383 1.392,-1.383 0.407,0 0.808,0.152 1.071,0.399 L 2.814,-1.791 C 2.366,-2.144 1.895,-2.311 1.351,-2.311" /></g><g
           transform="translate(131.553,196.0028)"
           id="g608"><path
             id="path610"
             style="fill:#161616;fill-opacity:1;fill-rule:nonzero;stroke:none"
             d="m 0,0 c 0,-0.248 -0.191,-0.439 -0.415,-0.439 -0.232,0 -0.424,0.191 -0.424,0.439 0,0.24 0.192,0.432 0.424,0.432 C -0.191,0.432 0,0.24 0,0" /></g><g
           transform="translate(135.4875,196.5458)"
           id="g612"><path
             id="path614"
             style="fill:#161616;fill-opacity:1;fill-rule:nonzero;stroke:none"
             d="m 0,0 0.36,-0.359 c -0.376,-0.4 -0.912,-0.631 -1.479,-0.631 -1.079,0 -1.927,0.886 -1.927,2.022 0,1.127 0.84,2.015 1.927,2.015 0.576,0 1.119,-0.224 1.503,-0.608 L 0.009,2.031 c -0.28,0.305 -0.696,0.489 -1.104,0.489 -0.767,0 -1.367,-0.657 -1.367,-1.488 0,-0.847 0.6,-1.495 1.375,-1.495 0.424,0 0.816,0.16 1.087,0.463" /></g><g
           transform="translate(139.7356,197.5692)"
           id="g616"><path
             id="path618"
             style="fill:#161616;fill-opacity:1;fill-rule:nonzero;stroke:none"
             d="m 0,0 c 0,0.864 -0.567,1.512 -1.327,1.512 -0.759,0 -1.319,-0.648 -1.319,-1.512 0,-0.871 0.56,-1.502 1.319,-1.502 C -0.567,-1.502 0,-0.863 0,0 m -1.327,2.023 c 1.088,0 1.903,-0.863 1.903,-2.014 0,-1.159 -0.823,-2.031 -1.903,-2.031 -1.071,0 -1.895,0.879 -1.895,2.031 0,1.151 0.816,2.014 1.895,2.014" /></g><g
           transform="translate(141.3372,199.5282)"
           id="g620"><path
             id="path622"
             style="fill:#161616;fill-opacity:1;fill-rule:nonzero;stroke:none"
             d="m 0,0 h 0.584 v -0.607 c 0.296,0.448 0.68,0.671 1.159,0.671 0.552,0 0.984,-0.295 1.199,-0.759 0.304,0.504 0.736,0.759 1.304,0.759 0.783,0 1.327,-0.591 1.327,-1.447 V -3.901 H 4.989 v 2.374 c 0,0.679 -0.368,1.103 -0.959,1.103 -0.408,0 -0.736,-0.199 -0.975,-0.615 0.023,-0.111 0.031,-0.224 0.031,-0.344 V -3.901 H 2.503 v 2.374 c 0,0.679 -0.376,1.103 -0.968,1.103 -0.399,0 -0.72,-0.191 -0.951,-0.575 v -2.902 l -0.584,0 z" /></g><g
           transform="translate(174.5334,63.9354)"
           id="g624"><path
             id="path626"
             style="fill:#161616;fill-opacity:1;fill-rule:nonzero;stroke:none"
             d="m 0,0 v -1.871 h 1.392 c 0.679,0 1.055,0.376 1.055,0.943 C 2.447,-0.376 2.071,0 1.399,0 Z m -0.959,0.808 h 2.502 c 1.136,0 1.871,-0.712 1.871,-1.744 0,-0.999 -0.735,-1.718 -1.871,-1.718 H 0 v -2.135 h -0.959 z" /></g><g
           transform="translate(181.844,61.1366)"
           id="g628"><path
             id="path630"
             style="fill:#161616;fill-opacity:1;fill-rule:nonzero;stroke:none"
             d="M 0,0 C 0,0.76 -0.472,1.304 -1.119,1.304 -1.774,1.304 -2.238,0.76 -2.238,0 c 0,-0.751 0.464,-1.287 1.119,-1.287 C -0.464,-1.287 0,-0.743 0,0 m -1.119,2.079 c 1.151,0 2.015,-0.895 2.015,-2.07 0,-1.184 -0.872,-2.079 -2.015,-2.079 -1.144,0 -2.015,0.903 -2.015,2.079 0,1.175 0.871,2.07 2.015,2.07" /></g><g
           transform="translate(183.678,63.1522)"
           id="g632"><path
             id="path634"
             style="fill:#161616;fill-opacity:1;fill-rule:nonzero;stroke:none"
             d="m 0,0 h 0.903 v -0.872 c 0.216,0.616 0.6,0.943 1.104,0.943 C 2.159,0.063 2.263,0.048 2.398,-0.008 V -0.8 c -0.143,0.064 -0.327,0.096 -0.495,0.096 -0.431,0 -0.799,-0.248 -1,-0.663 V -4.006 H 0 Z" /></g><g
           transform="translate(187.3176,62.4325)"
           id="g636"><path
             id="path638"
             style="fill:#161616;fill-opacity:1;fill-rule:nonzero;stroke:none"
             d="M 0,0 H -0.808 V 0.72 H 0 V 1.823 L 0.903,2.015 V 0.72 H 2.022 V 0 H 0.903 v -2.031 c 0,-0.392 0.152,-0.544 0.56,-0.544 0.183,0 0.304,0.024 0.544,0.096 V -3.238 C 1.774,-3.311 1.471,-3.351 1.231,-3.351 0.424,-3.351 0,-2.967 0,-2.23 Z" /></g><path
           id="path640"
           style="fill:#161616;fill-opacity:1;fill-rule:nonzero;stroke:none"
           d="m 192.813,61.033 h -2.782 v 0.76 h 2.782 z" /><g
           transform="translate(193.9417,64.743)"
           id="g642"><path
             id="path644"
             style="fill:#161616;fill-opacity:1;fill-rule:nonzero;stroke:none"
             d="M 0,0 H 4.021 V -0.815 H 0.959 v -1.6 H 3.07 V -3.214 H 0.959 v -2.383 l -0.959,0 z" /></g><g
           transform="translate(201.8518,61.1366)"
           id="g646"><path
             id="path648"
             style="fill:#161616;fill-opacity:1;fill-rule:nonzero;stroke:none"
             d="M 0,0 C 0,0.76 -0.472,1.304 -1.119,1.304 -1.774,1.304 -2.238,0.76 -2.238,0 c 0,-0.751 0.464,-1.287 1.119,-1.287 C -0.464,-1.287 0,-0.743 0,0 m -1.119,2.079 c 1.151,0 2.015,-0.895 2.015,-2.07 0,-1.184 -0.872,-2.079 -2.015,-2.079 -1.144,0 -2.015,0.903 -2.015,2.079 0,1.175 0.871,2.07 2.015,2.07" /></g><g
           transform="translate(203.6858,63.1522)"
           id="g650"><path
             id="path652"
             style="fill:#161616;fill-opacity:1;fill-rule:nonzero;stroke:none"
             d="m 0,0 h 0.903 v -0.872 c 0.216,0.616 0.6,0.943 1.104,0.943 C 2.159,0.063 2.263,0.048 2.398,-0.008 V -0.8 c -0.143,0.064 -0.327,0.096 -0.495,0.096 -0.431,0 -0.799,-0.248 -1,-0.663 V -4.006 H 0 Z" /></g><g
           transform="translate(207.5334,59.1464)"
           id="g654"><path
             id="path656"
             style="fill:#161616;fill-opacity:1;fill-rule:nonzero;stroke:none"
             d="m 0,0 -1.08,4.006 h 0.864 L 0.487,1.175 1.311,4.006 H 2.078 L 2.902,1.167 3.598,4.006 H 4.445 L 3.366,0 H 2.494 L 1.687,2.822 0.879,0 Z" /></g><g
           transform="translate(214.1887,59.7137)"
           id="g658"><path
             id="path660"
             style="fill:#161616;fill-opacity:1;fill-rule:nonzero;stroke:none"
             d="M 0,0 C 0.36,0 0.672,0.104 0.944,0.328 V 0.983 C 0.656,1.119 0.368,1.176 0.017,1.176 -0.495,1.176 -0.815,0.951 -0.815,0.6 -0.815,0.232 -0.495,0 0,0 m -1.663,0.584 c 0,0.72 0.584,1.175 1.527,1.175 0.376,0 0.72,-0.08 1.08,-0.247 v 0.439 c 0,0.528 -0.304,0.8 -0.92,0.8 -0.336,0 -0.704,-0.097 -1.167,-0.313 l -0.32,0.657 c 0.6,0.279 1.128,0.407 1.663,0.407 1.04,0 1.64,-0.527 1.64,-1.455 V -0.567 H 0.944 v 0.407 c -0.36,-0.327 -0.736,-0.472 -1.191,-0.472 -0.84,0 -1.416,0.496 -1.416,1.216" /></g><g
           transform="translate(217.1252,63.1522)"
           id="g662"><path
             id="path664"
             style="fill:#161616;fill-opacity:1;fill-rule:nonzero;stroke:none"
             d="m 0,0 h 0.903 v -0.872 c 0.216,0.616 0.6,0.943 1.104,0.943 C 2.159,0.063 2.263,0.048 2.398,-0.008 V -0.8 c -0.143,0.064 -0.327,0.096 -0.495,0.096 -0.431,0 -0.799,-0.248 -1,-0.663 V -4.006 H 0 Z" /></g><g
           transform="translate(222.1731,59.8661)"
           id="g666"><path
             id="path668"
             style="fill:#161616;fill-opacity:1;fill-rule:nonzero;stroke:none"
             d="M 0,0 C 0.384,0 0.711,0.151 0.951,0.439 V 2.127 C 0.72,2.398 0.376,2.559 0,2.559 -0.687,2.559 -1.191,2.015 -1.191,1.279 -1.191,0.552 -0.68,0 0,0 M 0.959,-0.185 C 0.68,-0.544 0.231,-0.76 -0.272,-0.76 c -1.015,0 -1.815,0.904 -1.815,2.039 0,1.143 0.823,2.038 1.871,2.038 0.464,0 0.871,-0.191 1.167,-0.527 V 4.997 L 1.854,5.148 V -0.72 H 0.959 Z" /></g><path
           id="path670"
           style="fill:#161616;fill-opacity:1;fill-rule:nonzero;stroke:none"
           d="m 226.052,59.146 h -0.903 v 4.006 h 0.903 z m -1.016,5.373 c 0,0.304 0.256,0.56 0.561,0.56 0.311,0 0.567,-0.256 0.567,-0.56 0,-0.312 -0.248,-0.551 -0.567,-0.551 -0.313,0 -0.561,0.239 -0.561,0.551" /><g
           transform="translate(227.1653,63.1522)"
           id="g672"><path
             id="path674"
             style="fill:#161616;fill-opacity:1;fill-rule:nonzero;stroke:none"
             d="m 0,0 h 0.903 v -0.656 c 0.304,0.471 0.737,0.719 1.272,0.719 0.815,0 1.384,-0.591 1.384,-1.43 V -4.006 H 2.654 v 2.383 c 0,0.583 -0.343,0.959 -0.879,0.959 -0.36,0 -0.656,-0.168 -0.872,-0.48 V -4.006 H 0 Z" /></g><g
           transform="translate(233.7239,59.8739)"
           id="g676"><path
             id="path678"
             style="fill:#161616;fill-opacity:1;fill-rule:nonzero;stroke:none"
             d="m 0,0 c 0.384,0 0.711,0.151 0.951,0.439 v 1.68 C 0.72,2.391 0.376,2.551 0,2.551 -0.687,2.551 -1.191,2.015 -1.191,1.279 -1.191,0.552 -0.68,0 0,0 m -2.087,1.279 c 0,1.144 0.823,2.031 1.871,2.031 0.464,0 0.879,-0.192 1.175,-0.543 v 0.511 h 0.895 v -4.141 c 0,-1.033 -0.67,-1.6 -1.886,-1.6 -0.575,0 -1.136,0.136 -1.608,0.384 l 0.321,0.672 c 0.464,-0.233 0.847,-0.344 1.247,-0.344 0.672,0 1.023,0.304 1.023,0.888 v 0.679 c -0.279,-0.352 -0.727,-0.568 -1.223,-0.568 -1.015,0 -1.815,0.903 -1.815,2.031" /></g><g
           transform="translate(194.6438,43.9569)"
           id="g680"><path
             id="path682"
             style="fill:#161616;fill-opacity:1;fill-rule:nonzero;stroke:none"
             d="m 0,0 c 0,0.496 -0.448,0.872 -1.031,0.872 -0.592,0 -1.04,-0.376 -1.04,-0.872 0,-0.495 0.456,-0.863 1.04,-0.863 C -0.456,-0.863 0,-0.495 0,0 m 0.168,-2.494 c 0,0.544 -0.512,0.951 -1.199,0.951 -0.697,0 -1.208,-0.407 -1.208,-0.951 0,-0.552 0.511,-0.968 1.208,-0.968 0.687,0 1.199,0.416 1.199,0.968 M -3.11,-2.559 c 0,0.649 0.496,1.184 1.207,1.368 -0.608,0.2 -1.024,0.679 -1.024,1.248 0,0.871 0.808,1.527 1.888,1.527 1.079,0 1.894,-0.656 1.894,-1.527 0,-0.569 -0.416,-1.048 -1.015,-1.248 0.712,-0.184 1.207,-0.719 1.207,-1.368 0,-0.951 -0.863,-1.63 -2.078,-1.63 -1.224,0 -2.079,0.679 -2.079,1.63" /></g><g
           transform="translate(200.219,42.662)"
           id="g684"><path
             id="path686"
             style="fill:#161616;fill-opacity:1;fill-rule:nonzero;stroke:none"
             d="M 0,0 C 0,1.287 -0.552,2.103 -1.415,2.103 -2.278,2.103 -2.83,1.279 -2.83,0 c 0,-1.295 0.552,-2.11 1.415,-2.11 C -0.543,-2.11 0,-1.304 0,0 m -3.701,0 c 0,1.703 0.927,2.879 2.286,2.879 1.367,0 2.287,-1.176 2.287,-2.879 0,-1.719 -0.92,-2.887 -2.287,-2.887 -1.367,0 -2.286,1.168 -2.286,2.887" /></g><g
           transform="translate(205.0354,43.9569)"
           id="g688"><path
             id="path690"
             style="fill:#161616;fill-opacity:1;fill-rule:nonzero;stroke:none"
             d="m 0,0 c 0,0.496 -0.448,0.872 -1.031,0.872 -0.592,0 -1.04,-0.376 -1.04,-0.872 0,-0.495 0.456,-0.863 1.04,-0.863 C -0.456,-0.863 0,-0.495 0,0 m 0.168,-2.494 c 0,0.544 -0.512,0.951 -1.199,0.951 -0.697,0 -1.208,-0.407 -1.208,-0.951 0,-0.552 0.511,-0.968 1.208,-0.968 0.687,0 1.199,0.416 1.199,0.968 M -3.11,-2.559 c 0,0.649 0.496,1.184 1.207,1.368 -0.608,0.2 -1.024,0.679 -1.024,1.248 0,0.871 0.808,1.527 1.887,1.527 1.08,0 1.895,-0.656 1.895,-1.527 0,-0.569 -0.416,-1.048 -1.015,-1.248 0.712,-0.184 1.207,-0.719 1.207,-1.368 0,-0.951 -0.863,-1.63 -2.078,-1.63 -1.224,0 -2.079,0.679 -2.079,1.63" /></g><g
           transform="translate(210.6106,42.662)"
           id="g692"><path
             id="path694"
             style="fill:#161616;fill-opacity:1;fill-rule:nonzero;stroke:none"
             d="M 0,0 C 0,1.287 -0.552,2.103 -1.415,2.103 -2.278,2.103 -2.83,1.279 -2.83,0 c 0,-1.295 0.552,-2.11 1.415,-2.11 C -0.543,-2.11 0,-1.304 0,0 m -3.701,0 c 0,1.703 0.927,2.879 2.286,2.879 1.367,0 2.287,-1.176 2.287,-2.879 0,-1.719 -0.92,-2.887 -2.287,-2.887 -1.367,0 -2.286,1.168 -2.286,2.887" /></g><path
           id="path696"
           style="fill:#231f20;fill-opacity:1;fill-rule:nonzero;stroke:none"
           d="m 245.13,53.121 h -96.067 v 1 h 96.067 z" /><g
           transform="translate(244.0354,49.8817)"
           id="g698"><path
             id="path700"
             style="fill:#231f20;fill-opacity:1;fill-rule:nonzero;stroke:none"
             d="M 0,0 6.477,3.739 0,7.479 Z" /></g></g></g></g></svg>
