<svg id="Layer_1" data-name="Layer 1" xmlns="http://www.w3.org/2000/svg" width="574.51" height="461.3" viewBox="0 0 574.51 461.3"><defs><style>.cls-1{fill:#f0f0f0;}.cls-2{fill:#d2d2d2;}.cls-3,.cls-6{fill:none;}.cls-3{stroke:#d2d2d2;stroke-width:2px;}.cls-3,.cls-4,.cls-6{stroke-miterlimit:10;}.cls-4,.cls-5{fill:#fff;}.cls-4{stroke:#4c4c4c;}.cls-6{stroke:#359c3f;}.cls-7{fill:#359c3f;}.cls-8{fill:#4c4c4c;}</style></defs><title>Application Logical Architecture</title><rect class="cls-1" y="167.62" width="375.14" height="192.42"/><rect class="cls-2" x="26.7" y="213.28" width="147.03" height="121.08"/><rect class="cls-3" x="114.05" y="1" width="147.03" height="121.08"/><rect class="cls-2" x="201.41" y="213.28" width="147.03" height="121.08"/><rect class="cls-2" x="427.48" y="213.28" width="147.03" height="121.08"/><line class="cls-4" x1="100.22" y1="334.36" x2="128.17" y2="373.76"/><line class="cls-5" x1="348.43" y1="273.82" x2="427.48" y2="273.82"/><line class="cls-6" x1="355.61" y1="273.82" x2="420.3" y2="273.82"/><polygon class="cls-7" points="357.07 278.81 348.43 273.82 357.07 268.83 357.07 278.81"/><polygon class="cls-7" points="418.84 278.81 427.48 273.82 418.84 268.83 418.84 278.81"/><line class="cls-5" x1="500.99" y1="396.32" x2="500.99" y2="335.36"/><line class="cls-6" x1="500.99" y1="389.14" x2="500.99" y2="342.54"/><polygon class="cls-7" points="505.98 387.68 500.99 396.32 496.01 387.68 505.98 387.68"/><polygon class="cls-7" points="505.98 344 500.99 335.36 496.01 344 505.98 344"/><path class="cls-8" d="M165.17,209.66v9.56h-1.68v-9.56h-3.26V208h8.21v1.65Z" transform="translate(-24.37 -24.73)"/><path class="cls-8" d="M171.78,219.39c-2.11,0-3.7-1.74-3.7-4.37s1.63-4.38,3.75-4.38,3.74,1.71,3.74,4.34C175.57,217.76,173.94,219.39,171.78,219.39Zm0-7.18c-1.25,0-2,1.1-2,2.77,0,1.84.84,2.84,2.09,2.84s2.07-1.26,2.07-2.8C173.91,213.31,173.09,212.21,171.76,212.21Z" transform="translate(-24.37 -24.73)"/><path class="cls-8" d="M185.22,219.22h-3.06V208h3.06c3,0,5.46,1.65,5.46,5.6S188.15,219.22,185.22,219.22Zm0-9.57h-1.38v7.93h1.38c2.66,0,3.74-1.61,3.74-4S187.88,209.65,185.22,209.65Z" transform="translate(-24.37 -24.73)"/><path class="cls-8" d="M196.08,219.39c-2.11,0-3.7-1.74-3.7-4.37s1.64-4.38,3.75-4.38,3.75,1.71,3.75,4.34C199.88,217.76,198.24,219.39,196.08,219.39Zm0-7.18c-1.25,0-2,1.1-2,2.77,0,1.84.85,2.84,2.1,2.84s2.06-1.26,2.06-2.8C198.21,213.31,197.39,212.21,196.07,212.21Z" transform="translate(-24.37 -24.73)"/><path class="cls-8" d="M206.46,219.22V208h1.69v9.56h5.58v1.65Z" transform="translate(-24.37 -24.73)"/><path class="cls-8" d="M216.66,209.73a1.07,1.07,0,1,1,1.05-1.06A1.07,1.07,0,0,1,216.66,209.73Zm-.84,9.49v-8.41h1.65v8.41Z" transform="translate(-24.37 -24.73)"/><path class="cls-8" d="M222.71,219.39a5.77,5.77,0,0,1-3.22-1.07l.75-1.25a4.34,4.34,0,0,0,2.45.83c1,0,1.54-.33,1.54-.92s-.74-.95-2-1.41c-1.81-.71-2.46-1.31-2.46-2.64,0-1.51,1.18-2.29,2.86-2.29a5,5,0,0,1,2.85.93l-.72,1.26a3.65,3.65,0,0,0-2.17-.72c-.81,0-1.16.32-1.16.77s.29.72,1.56,1.22c1.87.72,2.83,1.23,2.83,2.81C225.86,218.77,224.35,219.39,222.71,219.39Z" transform="translate(-24.37 -24.73)"/><path class="cls-8" d="M231.83,219a3.4,3.4,0,0,1-1.62.38c-1.17,0-1.89-.72-1.89-2.22v-4.85h-1.2v-1.51h1.2v-2.4l1.62-.86v3.26H232v1.51h-2.08v4.56c0,.78.25,1,.86,1a2.63,2.63,0,0,0,1.22-.34Z" transform="translate(-24.37 -24.73)"/><path class="cls-8" d="M243.39,219.22v-.83a3.31,3.31,0,0,1-2.3,1,2.7,2.7,0,0,1-2.91-2.83c0-1.87,1.44-2.72,3.34-2.72a4.56,4.56,0,0,1,1.87.32v-.63c0-.91-.56-1.42-1.58-1.42a4.18,4.18,0,0,0-2.19.53l-.64-1.25a5.16,5.16,0,0,1,2.88-.75c1.87,0,3.15.91,3.15,2.81v5.77Zm0-3.59a4.16,4.16,0,0,0-1.92-.37c-1.05,0-1.73.48-1.73,1.25s.53,1.39,1.62,1.39a2.62,2.62,0,0,0,2-1.07Z" transform="translate(-24.37 -24.73)"/><path class="cls-8" d="M251.12,219.39a3,3,0,0,1-2.11-1v3l-1.63.85v-11.5H249v.8a3.19,3.19,0,0,1,2.19-1c1.81,0,3.23,1.31,3.23,4.51C254.43,218,252.87,219.39,251.12,219.39Zm-.22-7.23a2.59,2.59,0,0,0-1.91,1.07v3.54a2.72,2.72,0,0,0,2,1.1c1.19,0,1.83-.89,1.83-2.67C252.79,213.09,252.11,212.16,250.9,212.16Z" transform="translate(-24.37 -24.73)"/><path class="cls-8" d="M260.24,219.39a3,3,0,0,1-2.11-1v3l-1.63.85v-11.5h1.63v.8a3.19,3.19,0,0,1,2.19-1c1.81,0,3.23,1.31,3.23,4.51C263.55,218,262,219.39,260.24,219.39Zm-.22-7.23a2.59,2.59,0,0,0-1.91,1.07v3.54a2.72,2.72,0,0,0,2,1.1c1.19,0,1.83-.89,1.83-2.67C261.91,213.09,261.23,212.16,260,212.16Z" transform="translate(-24.37 -24.73)"/><path class="cls-8" d="M52.05,407.7v9.56H50.37V407.7H47.11v-1.65h8.21v1.65Z" transform="translate(-24.37 -24.73)"/><path class="cls-8" d="M62.15,417.26V412.5c0-1.69-.64-2.3-1.73-2.3s-1.73.78-1.73,2.14v4.92H57.05V406.45l1.64-.86v4.06a2.58,2.58,0,0,1,2.12-1c1.95,0,3,1.28,3,3.76v4.82Z" transform="translate(-24.37 -24.73)"/><path class="cls-8" d="M72.94,413.64H67.38c.18,1.61,1.09,2.3,2.12,2.3a2.92,2.92,0,0,0,1.82-.67l1,1.06a3.94,3.94,0,0,1-2.9,1.1c-2,0-3.63-1.58-3.63-4.37s1.5-4.38,3.68-4.38c2.38,0,3.53,1.93,3.53,4.21C73,413.19,73,413.46,72.94,413.64Zm-3.6-3.48c-1.11,0-1.78.77-1.93,2.12h3.91C71.24,411.12,70.7,410.16,69.34,410.16Z" transform="translate(-24.37 -24.73)"/><path class="cls-8" d="M82.33,407.08c-.55,0-.77.2-.77.81v1h1.55v1.54H81.56v6.87H79.91v-6.87H78.82v-1.54h1.09v-1.1A1.92,1.92,0,0,1,82,405.63a5.4,5.4,0,0,1,1.25.16v1.44A3.42,3.42,0,0,0,82.33,407.08Z" transform="translate(-24.37 -24.73)"/><path class="cls-8" d="M89.7,410.6a2.37,2.37,0,0,0-1.26-.31c-1,0-1.65.74-1.65,2.16v4.81H85.14v-8.41h1.65v.8a2.32,2.32,0,0,1,1.92-1,2.41,2.41,0,0,1,1.43.35Z" transform="translate(-24.37 -24.73)"/><path class="cls-8" d="M94.73,417.43c-2.12,0-3.7-1.74-3.7-4.37s1.63-4.38,3.75-4.38,3.74,1.71,3.74,4.33C98.52,415.8,96.89,417.43,94.73,417.43Zm0-7.19c-1.25,0-2,1.11-2,2.77,0,1.84.85,2.85,2.1,2.85s2.07-1.26,2.07-2.8C96.86,411.35,96,410.24,94.71,410.24Z" transform="translate(-24.37 -24.73)"/><path class="cls-8" d="M105.66,417.26V412.5c0-1.69-.64-2.3-1.73-2.3s-1.73.78-1.73,2.14v4.92h-1.65v-8.41h1.65v.8a2.57,2.57,0,0,1,2.11-1c2,0,3,1.28,3,3.76v4.82Z" transform="translate(-24.37 -24.73)"/><path class="cls-8" d="M113.61,417.05a3.4,3.4,0,0,1-1.62.38c-1.16,0-1.89-.72-1.89-2.22v-4.85h-1.2v-1.51h1.2v-2.4l1.62-.86v3.26h2.08v1.51h-2.08v4.56c0,.78.26,1,.87,1a2.56,2.56,0,0,0,1.21-.34Z" transform="translate(-24.37 -24.73)"/><path class="cls-8" d="M127.13,413.64h-5.55c.17,1.61,1.09,2.3,2.11,2.3a2.92,2.92,0,0,0,1.82-.67l1,1.06a3.94,3.94,0,0,1-2.9,1.1c-2,0-3.63-1.58-3.63-4.37s1.5-4.38,3.68-4.38c2.39,0,3.54,1.93,3.54,4.21A6.65,6.65,0,0,1,127.13,413.64Zm-3.6-3.48c-1.11,0-1.78.77-1.92,2.12h3.9C125.43,411.12,124.89,410.16,123.53,410.16Z" transform="translate(-24.37 -24.73)"/><path class="cls-8" d="M134.33,417.26V412.5c0-1.69-.64-2.3-1.73-2.3s-1.73.78-1.73,2.14v4.92h-1.65v-8.41h1.65v.8a2.58,2.58,0,0,1,2.12-1c1.95,0,3,1.28,3,3.76v4.82Z" transform="translate(-24.37 -24.73)"/><path class="cls-8" d="M143.4,417.26v-.81a3.16,3.16,0,0,1-2.19,1c-1.81,0-3.23-1.31-3.23-4.51,0-2.88,1.56-4.24,3.31-4.24a2.94,2.94,0,0,1,2.11,1v-3.2l1.63-.85v11.67Zm0-6a2.72,2.72,0,0,0-2-1.1c-1.19,0-1.83.89-1.83,2.67,0,2.11.68,3,1.89,3a2.59,2.59,0,0,0,1.91-1.07Z" transform="translate(-24.37 -24.73)"/><path class="cls-8" d="M152.7,407.76a1.07,1.07,0,1,1,1.05-1.05A1.07,1.07,0,0,1,152.7,407.76Zm-.84,9.5v-8.41h1.65v8.41Z" transform="translate(-24.37 -24.73)"/><path class="cls-8" d="M158.74,417.43a5.76,5.76,0,0,1-3.21-1.07l.75-1.25a4.42,4.42,0,0,0,2.45.83c1,0,1.53-.33,1.53-.93s-.73-.94-1.95-1.4c-1.81-.71-2.46-1.32-2.46-2.65,0-1.5,1.18-2.28,2.86-2.28a5,5,0,0,1,2.85.92l-.72,1.27a3.67,3.67,0,0,0-2.18-.72c-.8,0-1.15.32-1.15.77s.29.72,1.55,1.21c1.88.72,2.84,1.24,2.84,2.82C161.9,416.81,160.39,417.43,158.74,417.43Z" transform="translate(-24.37 -24.73)"/><path class="cls-8" d="M173.61,411.27a2.76,2.76,0,0,0-2.05-1c-1.2,0-2,1.08-2,2.79s.71,2.83,2,2.83a2.46,2.46,0,0,0,1.9-1l1.06,1a3.58,3.58,0,0,1-3,1.57c-2.05,0-3.63-1.73-3.63-4.35,0-2.79,1.63-4.4,3.68-4.4a3.72,3.72,0,0,1,3,1.42Z" transform="translate(-24.37 -24.73)"/><path class="cls-8" d="M179.7,417.43c-2.11,0-3.69-1.74-3.69-4.37s1.63-4.38,3.74-4.38,3.75,1.71,3.75,4.33C183.5,415.8,181.86,417.43,179.7,417.43Zm0-7.19c-1.25,0-2,1.11-2,2.77,0,1.84.85,2.85,2.1,2.85s2.06-1.26,2.06-2.8C181.83,411.35,181,410.24,179.69,410.24Z" transform="translate(-24.37 -24.73)"/><path class="cls-8" d="M195.29,417.26V412.5c0-1.69-.53-2.3-1.62-2.3s-1.61.78-1.61,2.14v4.92h-1.65V412.5c0-1.69-.53-2.3-1.62-2.3s-1.62.78-1.62,2.14v4.92h-1.64v-8.41h1.64v.8a2.36,2.36,0,0,1,2-1,2.4,2.4,0,0,1,2.31,1.23,2.94,2.94,0,0,1,2.58-1.23c1.95,0,2.88,1.28,2.88,3.76v4.82Z" transform="translate(-24.37 -24.73)"/><path class="cls-8" d="M203.05,417.43a3,3,0,0,1-2.12-1v3l-1.63.84V408.85h1.63v.8a3.22,3.22,0,0,1,2.2-1c1.81,0,3.23,1.31,3.23,4.51C206.36,416.07,204.79,417.43,203.05,417.43Zm-.23-7.23a2.59,2.59,0,0,0-1.9,1.07v3.54a2.7,2.7,0,0,0,2,1.1c1.18,0,1.82-.9,1.82-2.67C204.71,411.12,204,410.2,202.82,410.2Z" transform="translate(-24.37 -24.73)"/><path class="cls-8" d="M211.72,417.43c-2.11,0-3.7-1.74-3.7-4.37s1.63-4.38,3.75-4.38,3.74,1.71,3.74,4.33C215.51,415.8,213.88,417.43,211.72,417.43Zm0-7.19c-1.25,0-2,1.11-2,2.77,0,1.84.84,2.85,2.09,2.85s2.07-1.26,2.07-2.8C213.85,411.35,213,410.24,211.7,410.24Z" transform="translate(-24.37 -24.73)"/><path class="cls-8" d="M220.1,417.43a5.8,5.8,0,0,1-3.22-1.07l.76-1.25a4.42,4.42,0,0,0,2.45.83c1,0,1.53-.33,1.53-.93s-.73-.94-2-1.4c-1.81-.71-2.47-1.32-2.47-2.65,0-1.5,1.19-2.28,2.87-2.28a5,5,0,0,1,2.85.92l-.72,1.27a3.67,3.67,0,0,0-2.18-.72c-.8,0-1.15.32-1.15.77s.29.72,1.55,1.21c1.87.72,2.84,1.24,2.84,2.82C223.26,416.81,221.75,417.43,220.1,417.43Z" transform="translate(-24.37 -24.73)"/><path class="cls-8" d="M232,413.64h-5.56c.18,1.61,1.09,2.3,2.11,2.3a2.92,2.92,0,0,0,1.83-.67l1,1.06a3.94,3.94,0,0,1-2.9,1.1c-2,0-3.64-1.58-3.64-4.37s1.51-4.38,3.69-4.38c2.38,0,3.53,1.93,3.53,4.21C232,413.19,232,413.46,232,413.64Zm-3.61-3.48c-1.1,0-1.77.77-1.92,2.12h3.91C230.28,411.12,229.73,410.16,228.37,410.16Z" transform="translate(-24.37 -24.73)"/><path class="cls-8" d="M239.13,417.26v-.81a3.18,3.18,0,0,1-2.2,1c-1.81,0-3.23-1.31-3.23-4.51,0-2.88,1.57-4.24,3.31-4.24a3,3,0,0,1,2.12,1v-3.2l1.63-.85v11.67Zm0-6a2.7,2.7,0,0,0-2-1.1c-1.18,0-1.82.89-1.82,2.67,0,2.11.67,3,1.89,3a2.59,2.59,0,0,0,1.9-1.07Z" transform="translate(-24.37 -24.73)"/><path class="cls-8" d="M250.81,417.43c-2.12,0-3.7-1.74-3.7-4.37s1.63-4.38,3.74-4.38,3.75,1.71,3.75,4.33C254.6,415.8,253,417.43,250.81,417.43Zm0-7.19c-1.25,0-2,1.11-2,2.77,0,1.84.85,2.85,2.1,2.85s2.06-1.26,2.06-2.8C252.93,411.35,252.12,410.24,250.79,410.24Z" transform="translate(-24.37 -24.73)"/><path class="cls-8" d="M259.37,407.08c-.55,0-.77.2-.77.81v1h1.55v1.54H258.6v6.87H257v-6.87h-1.09v-1.54H257v-1.1a1.92,1.92,0,0,1,2.13-2.12,5.4,5.4,0,0,1,1.25.16v1.44A3.42,3.42,0,0,0,259.37,407.08Z" transform="translate(-24.37 -24.73)"/><path class="cls-8" d="M63.4,436.63a5.76,5.76,0,0,1-3.21-1.07l.75-1.25a4.34,4.34,0,0,0,2.45.83c1,0,1.54-.33,1.54-.93s-.74-.94-2-1.4c-1.81-.71-2.46-1.32-2.46-2.65,0-1.5,1.18-2.28,2.86-2.28a5,5,0,0,1,2.85.92l-.72,1.27a3.65,3.65,0,0,0-2.18-.72c-.8,0-1.15.32-1.15.77s.29.72,1.56,1.21c1.87.72,2.83,1.24,2.83,2.82C66.56,436,65.05,436.63,63.4,436.63Z" transform="translate(-24.37 -24.73)"/><path class="cls-8" d="M72.53,436.25a3.4,3.4,0,0,1-1.62.38c-1.17,0-1.89-.72-1.89-2.22v-4.85h-1.2v-1.51H69v-2.4l1.62-.86v3.26h2.08v1.51H70.64v4.56c0,.78.25,1,.86,1a2.63,2.63,0,0,0,1.22-.34Z" transform="translate(-24.37 -24.73)"/><path class="cls-8" d="M79.54,436.46v-.84a3.32,3.32,0,0,1-2.31,1,2.71,2.71,0,0,1-2.91-2.83c0-1.87,1.44-2.72,3.34-2.72a4.64,4.64,0,0,1,1.88.32v-.63c0-.91-.56-1.42-1.59-1.42a4.21,4.21,0,0,0-2.19.53l-.64-1.25a5.16,5.16,0,0,1,2.88-.75c1.87,0,3.15.91,3.15,2.81v5.77Zm0-3.59a4.24,4.24,0,0,0-1.93-.37c-1,0-1.72.48-1.72,1.25s.52,1.39,1.61,1.39a2.66,2.66,0,0,0,2-1.07Z" transform="translate(-24.37 -24.73)"/><path class="cls-8" d="M87.53,436.25a3.39,3.39,0,0,1-1.61.38c-1.17,0-1.89-.72-1.89-2.22v-4.85h-1.2v-1.51H84v-2.4l1.62-.86v3.26h2.08v1.51H85.65v4.56c0,.78.25,1,.86,1a2.63,2.63,0,0,0,1.22-.34Z" transform="translate(-24.37 -24.73)"/><path class="cls-8" d="M90.88,427a1.07,1.07,0,1,1,1.05-1A1.07,1.07,0,0,1,90.88,427Zm-.83,9.5v-8.41h1.64v8.41Z" transform="translate(-24.37 -24.73)"/><path class="cls-8" d="M99.49,430.47a2.79,2.79,0,0,0-2-1c-1.2,0-2,1.08-2,2.79s.7,2.83,2,2.83a2.47,2.47,0,0,0,1.9-1l1.06,1a3.56,3.56,0,0,1-3,1.57c-2,0-3.64-1.73-3.64-4.35,0-2.79,1.64-4.4,3.69-4.4a3.69,3.69,0,0,1,3,1.42Z" transform="translate(-24.37 -24.73)"/><path class="cls-8" d="M114,436.46v-5H108.8v5h-1.68V425.25h1.68v4.53H114v-4.53h1.68v11.21Z" transform="translate(-24.37 -24.73)"/><path class="cls-8" d="M122.78,426.9v9.56H121.1V426.9h-3.26v-1.65h8.21v1.65Z" transform="translate(-24.37 -24.73)"/><path class="cls-8" d="M136.62,436.46v-5.93c0-.67,0-1.65,0-2-.13.32-.45,1.13-.72,1.76l-2.73,6.31-2.68-6.31c-.28-.63-.6-1.44-.72-1.76,0,.32,0,1.3,0,2v5.93h-1.59V425.25H130l2.51,6c.28.64.63,1.46.77,1.92.16-.46.48-1.26.75-1.92l2.47-6h1.79v11.21Z" transform="translate(-24.37 -24.73)"/><path class="cls-8" d="M141.18,436.46V425.25h1.68v9.56h5.59v1.65Z" transform="translate(-24.37 -24.73)"/><path class="cls-8" d="M157.76,426.28c-.55,0-.77.2-.77.81v1h1.55v1.54H157v6.87h-1.65v-6.87h-1.09v-1.54h1.09V427a1.92,1.92,0,0,1,2.13-2.12,5.33,5.33,0,0,1,1.25.16v1.45A3.09,3.09,0,0,0,157.76,426.28Z" transform="translate(-24.37 -24.73)"/><path class="cls-8" d="M161.41,427a1.07,1.07,0,1,1,1.05-1A1.07,1.07,0,0,1,161.41,427Zm-.84,9.5v-8.41h1.65v8.41Z" transform="translate(-24.37 -24.73)"/><path class="cls-8" d="M164.81,436.46V425.65l1.65-.86v11.67Z" transform="translate(-24.37 -24.73)"/><path class="cls-8" d="M175.74,432.84h-5.55c.18,1.61,1.09,2.3,2.11,2.3a2.92,2.92,0,0,0,1.83-.67l1,1.06a3.9,3.9,0,0,1-2.89,1.1c-2,0-3.64-1.58-3.64-4.37s1.51-4.38,3.69-4.38c2.38,0,3.53,1.93,3.53,4.21A6.65,6.65,0,0,1,175.74,432.84Zm-3.6-3.48c-1.1,0-1.77.77-1.92,2.12h3.91C174.05,430.32,173.5,429.36,172.14,429.36Z" transform="translate(-24.37 -24.73)"/><path class="cls-8" d="M180.4,436.63a5.77,5.77,0,0,1-3.22-1.07l.75-1.25a4.39,4.39,0,0,0,2.45.83c1,0,1.54-.33,1.54-.93s-.74-.94-1.95-1.4c-1.81-.71-2.47-1.32-2.47-2.65,0-1.5,1.19-2.28,2.87-2.28a5.07,5.07,0,0,1,2.85.92l-.72,1.27a3.67,3.67,0,0,0-2.18-.72c-.8,0-1.15.32-1.15.77s.28.72,1.55,1.21c1.87.72,2.83,1.24,2.83,2.82C183.55,436,182.05,436.63,180.4,436.63Z" transform="translate(-24.37 -24.73)"/><path class="cls-8" d="M194,436.25a3.4,3.4,0,0,1-1.62.38c-1.17,0-1.89-.72-1.89-2.22v-4.85h-1.2v-1.51h1.2v-2.4l1.62-.86v3.26h2.08v1.51h-2.08v4.56c0,.78.26,1,.86,1a2.57,2.57,0,0,0,1.22-.34Z" transform="translate(-24.37 -24.73)"/><path class="cls-8" d="M201.54,436.46V431.7c0-1.69-.64-2.3-1.73-2.3s-1.73.78-1.73,2.14v4.92h-1.65V425.65l1.65-.86v4.06a2.56,2.56,0,0,1,2.11-1c1.95,0,3,1.28,3,3.76v4.82Z" transform="translate(-24.37 -24.73)"/><path class="cls-8" d="M210.37,436.46v-.84a3.32,3.32,0,0,1-2.31,1,2.71,2.71,0,0,1-2.91-2.83c0-1.87,1.44-2.72,3.34-2.72a4.64,4.64,0,0,1,1.88.32v-.63c0-.91-.56-1.42-1.59-1.42a4.23,4.23,0,0,0-2.19.53l-.64-1.25a5.18,5.18,0,0,1,2.88-.75c1.87,0,3.15.91,3.15,2.81v5.77Zm0-3.59a4.22,4.22,0,0,0-1.92-.37c-1.06,0-1.73.48-1.73,1.25s.53,1.39,1.61,1.39a2.66,2.66,0,0,0,2-1.07Z" transform="translate(-24.37 -24.73)"/><path class="cls-8" d="M218.37,436.25a3.4,3.4,0,0,1-1.62.38c-1.17,0-1.89-.72-1.89-2.22v-4.85h-1.2v-1.51h1.2v-2.4l1.62-.86v3.26h2.08v1.51h-2.08v4.56c0,.78.25,1,.86,1a2.63,2.63,0,0,0,1.22-.34Z" transform="translate(-24.37 -24.73)"/><path class="cls-8" d="M229.94,436.46v-.84a3.32,3.32,0,0,1-2.31,1,2.71,2.71,0,0,1-2.91-2.83c0-1.87,1.44-2.72,3.34-2.72a4.64,4.64,0,0,1,1.88.32v-.63c0-.91-.57-1.42-1.59-1.42a4.21,4.21,0,0,0-2.19.53l-.64-1.25a5.16,5.16,0,0,1,2.88-.75c1.87,0,3.15.91,3.15,2.81v5.77Zm0-3.59a4.24,4.24,0,0,0-1.93-.37c-1,0-1.72.48-1.72,1.25s.52,1.39,1.61,1.39a2.66,2.66,0,0,0,2-1.07Z" transform="translate(-24.37 -24.73)"/><path class="cls-8" d="M238.48,429.8a2.48,2.48,0,0,0-1.27-.31c-1,0-1.64.74-1.64,2.16v4.81h-1.65v-8.41h1.65v.8a2.31,2.31,0,0,1,1.92-1,2.37,2.37,0,0,1,1.42.35Z" transform="translate(-24.37 -24.73)"/><path class="cls-8" d="M247,432.84h-5.56c.18,1.61,1.09,2.3,2.12,2.3a2.92,2.92,0,0,0,1.82-.67l1,1.06a3.94,3.94,0,0,1-2.9,1.1c-2,0-3.63-1.58-3.63-4.37s1.5-4.38,3.68-4.38c2.38,0,3.53,1.93,3.53,4.21C247,432.39,247,432.66,247,432.84Zm-3.6-3.48c-1.11,0-1.78.77-1.93,2.12h3.91C245.28,430.32,244.74,429.36,243.38,429.36Z" transform="translate(-24.37 -24.73)"/><path class="cls-8" d="M53.54,455.66v-.8a3.17,3.17,0,0,1-2.19,1c-1.81,0-3.23-1.31-3.23-4.51,0-2.88,1.57-4.24,3.31-4.24a2.94,2.94,0,0,1,2.11,1v-3.2l1.64-.85v11.67Zm0-6a2.72,2.72,0,0,0-2-1.1c-1.18,0-1.82.89-1.82,2.67,0,2.11.67,3,1.89,3a2.59,2.59,0,0,0,1.9-1.07Z" transform="translate(-24.37 -24.73)"/><path class="cls-8" d="M60.9,455.83c-2.11,0-3.69-1.74-3.69-4.37s1.63-4.38,3.74-4.38,3.75,1.71,3.75,4.33C64.7,454.2,63.06,455.83,60.9,455.83Zm0-7.18c-1.25,0-2,1.1-2,2.76,0,1.84.85,2.85,2.1,2.85S63,453,63,451.46C63,449.75,62.22,448.65,60.89,448.65Z" transform="translate(-24.37 -24.73)"/><path class="cls-8" d="M74.1,455.66H72.7l-1.14-4.25c-.18-.64-.35-1.39-.43-1.79-.08.4-.26,1.17-.44,1.81l-1.12,4.23h-1.4l-2.31-8.41h1.63l1,4.08c.16.64.33,1.44.41,1.84.1-.41.29-1.18.47-1.84l1.12-4.08h1.33l1.13,4.1c.18.66.35,1.41.45,1.82.1-.41.26-1.2.42-1.84l1-4.08h1.63Z" transform="translate(-24.37 -24.73)"/><path class="cls-8" d="M83.4,455.66V450.9c0-1.69-.64-2.3-1.73-2.3s-1.73.78-1.73,2.14v4.92H78.29v-8.41h1.65v.8a2.57,2.57,0,0,1,2.11-1c2,0,3,1.28,3,3.76v4.82Z" transform="translate(-24.37 -24.73)"/><path class="cls-8" d="M87.49,455.66V444.85l1.65-.86v11.67Z" transform="translate(-24.37 -24.73)"/><path class="cls-8" d="M95,455.83c-2.11,0-3.7-1.74-3.7-4.37s1.64-4.38,3.75-4.38,3.74,1.71,3.74,4.33C98.74,454.2,97.11,455.83,95,455.83Zm0-7.18c-1.24,0-2,1.1-2,2.76,0,1.84.85,2.85,2.09,2.85s2.07-1.26,2.07-2.8C97.08,449.75,96.26,448.65,94.93,448.65Z" transform="translate(-24.37 -24.73)"/><path class="cls-8" d="M105.51,455.66v-.84a3.27,3.27,0,0,1-2.3,1A2.71,2.71,0,0,1,100.3,453c0-1.87,1.44-2.72,3.34-2.72a4.59,4.59,0,0,1,1.87.32V450c0-.91-.56-1.42-1.58-1.42a4.18,4.18,0,0,0-2.19.53l-.64-1.25a5.16,5.16,0,0,1,2.88-.75c1.87,0,3.15.91,3.15,2.81v5.77Zm0-3.59a4.16,4.16,0,0,0-1.92-.37c-1,0-1.73.48-1.73,1.25s.53,1.39,1.62,1.39a2.62,2.62,0,0,0,2-1.07Z" transform="translate(-24.37 -24.73)"/><path class="cls-8" d="M114.55,455.66v-.8a3.19,3.19,0,0,1-2.19,1c-1.81,0-3.23-1.31-3.23-4.51,0-2.88,1.57-4.24,3.31-4.24a2.94,2.94,0,0,1,2.11,1v-3.2l1.64-.85v11.67Zm0-6a2.72,2.72,0,0,0-2-1.1c-1.18,0-1.82.89-1.82,2.67,0,2.11.67,3,1.88,3a2.59,2.59,0,0,0,1.91-1.07Z" transform="translate(-24.37 -24.73)"/><path class="cls-8" d="M125.39,452h-5.56c.18,1.61,1.09,2.3,2.11,2.3a2.92,2.92,0,0,0,1.83-.67l1,1.06a3.94,3.94,0,0,1-2.9,1.1c-2,0-3.64-1.58-3.64-4.37s1.51-4.38,3.69-4.38c2.38,0,3.53,1.93,3.53,4.21C125.43,451.59,125.4,451.86,125.39,452Zm-3.61-3.48c-1.1,0-1.77.77-1.92,2.12h3.91C123.69,449.52,123.14,448.56,121.78,448.56Z" transform="translate(-24.37 -24.73)"/><path class="cls-8" d="M132.54,455.66v-.8a3.22,3.22,0,0,1-2.2,1c-1.81,0-3.23-1.31-3.23-4.51,0-2.88,1.57-4.24,3.31-4.24a3,3,0,0,1,2.12,1v-3.2l1.63-.85v11.67Zm0-6a2.7,2.7,0,0,0-2-1.1c-1.18,0-1.82.89-1.82,2.67,0,2.11.67,3,1.89,3a2.59,2.59,0,0,0,1.9-1.07Z" transform="translate(-24.37 -24.73)"/><path class="cls-8" d="M144.66,455.83a3,3,0,0,1-2.11-1v.79h-1.63V444.84l1.63-.85v4.06a3.19,3.19,0,0,1,2.19-1c1.81,0,3.24,1.31,3.24,4.51C148,454.47,146.41,455.83,144.66,455.83Zm-.22-7.23a2.61,2.61,0,0,0-1.91,1.07v3.54a2.72,2.72,0,0,0,2,1.1c1.19,0,1.83-.9,1.83-2.67C146.33,449.52,145.66,448.6,144.44,448.6Z" transform="translate(-24.37 -24.73)"/><path class="cls-8" d="M152.65,458.62H150.9l1.22-3.12L149,447.25h1.81l1.37,4.12c.26.73.64,2,.74,2.44.14-.49.5-1.69.75-2.41l1.43-4.15h1.74Z" transform="translate(-24.37 -24.73)"/><path class="cls-8" d="M167.75,455.66v-.84a3.29,3.29,0,0,1-2.3,1,2.72,2.72,0,0,1-2.92-2.83c0-1.87,1.44-2.72,3.35-2.72a4.59,4.59,0,0,1,1.87.32V450c0-.91-.56-1.42-1.58-1.42a4.25,4.25,0,0,0-2.2.53l-.64-1.25a5.2,5.2,0,0,1,2.89-.75c1.87,0,3.15.91,3.15,2.81v5.77Zm0-3.59a4.19,4.19,0,0,0-1.92-.37c-1.06,0-1.73.48-1.73,1.25s.53,1.39,1.62,1.39a2.62,2.62,0,0,0,2-1.07Z" transform="translate(-24.37 -24.73)"/><path class="cls-8" d="M176.84,455.66V450.9c0-1.69-.64-2.3-1.73-2.3s-1.73.78-1.73,2.14v4.92h-1.65v-8.41h1.65v.8a2.57,2.57,0,0,1,2.11-1c2,0,3,1.28,3,3.76v4.82Z" transform="translate(-24.37 -24.73)"/><path class="cls-8" d="M185.91,455.66v-.8a3.19,3.19,0,0,1-2.19,1c-1.81,0-3.23-1.31-3.23-4.51,0-2.88,1.56-4.24,3.31-4.24a2.94,2.94,0,0,1,2.11,1v-3.2l1.63-.85v11.67Zm0-6a2.72,2.72,0,0,0-2-1.1c-1.19,0-1.83.89-1.83,2.67,0,2.11.68,3,1.89,3a2.59,2.59,0,0,0,1.91-1.07Z" transform="translate(-24.37 -24.73)"/><path class="cls-8" d="M201.06,452h-5.55c.18,1.61,1.09,2.3,2.11,2.3a2.92,2.92,0,0,0,1.83-.67l1,1.06a3.9,3.9,0,0,1-2.89,1.1c-2,0-3.64-1.58-3.64-4.37s1.51-4.38,3.68-4.38c2.39,0,3.54,1.93,3.54,4.21A6.65,6.65,0,0,1,201.06,452Zm-3.6-3.48c-1.1,0-1.77.77-1.92,2.12h3.91C199.37,449.52,198.82,448.56,197.46,448.56Z" transform="translate(-24.37 -24.73)"/><path class="cls-8" d="M207.41,455.66l-.8-1.46c-.33-.61-.72-1.38-.88-1.7-.14.32-.59,1.14-.91,1.72l-.82,1.44h-1.85l2.64-4.36-2.47-4.05h1.91l.65,1.19c.34.61.74,1.36.88,1.68.18-.32.58-1.12.9-1.72l.64-1.15h1.89l-2.48,4.05,2.66,4.36Z" transform="translate(-24.37 -24.73)"/><path class="cls-8" d="M217.67,452h-5.56c.18,1.61,1.09,2.3,2.12,2.3a2.92,2.92,0,0,0,1.82-.67l1,1.06a3.94,3.94,0,0,1-2.9,1.1c-2,0-3.63-1.58-3.63-4.37s1.5-4.38,3.68-4.38c2.38,0,3.54,1.93,3.54,4.21A6.65,6.65,0,0,1,217.67,452Zm-3.6-3.48c-1.11,0-1.78.77-1.92,2.12h3.9C216,449.52,215.43,448.56,214.07,448.56Z" transform="translate(-24.37 -24.73)"/><path class="cls-8" d="M225,449.67a2.74,2.74,0,0,0-2-1c-1.2,0-2,1.07-2,2.78s.7,2.83,2,2.83a2.47,2.47,0,0,0,1.91-1l1.06,1a3.56,3.56,0,0,1-3,1.57c-2.05,0-3.64-1.73-3.64-4.35,0-2.79,1.64-4.4,3.68-4.4a3.7,3.7,0,0,1,3,1.42Z" transform="translate(-24.37 -24.73)"/><path class="cls-8" d="M233.08,455.66v-.8a2.6,2.6,0,0,1-2.11,1c-2,0-3-1.28-3-3.76v-4.82h1.65V452c0,1.69.64,2.3,1.73,2.3s1.73-.78,1.73-2.14v-4.92h1.65v8.41Z" transform="translate(-24.37 -24.73)"/><path class="cls-8" d="M241.17,455.45a3.39,3.39,0,0,1-1.61.38c-1.17,0-1.89-.72-1.89-2.22v-4.85h-1.2v-1.51h1.2v-2.4l1.61-.86v3.26h2.09v1.51h-2.09v4.56c0,.78.26,1,.87,1a2.63,2.63,0,0,0,1.22-.34Z" transform="translate(-24.37 -24.73)"/><path class="cls-8" d="M250.05,452H244.5c.18,1.61,1.09,2.3,2.11,2.3a2.92,2.92,0,0,0,1.83-.67l1,1.06a3.9,3.9,0,0,1-2.89,1.1c-2,0-3.64-1.58-3.64-4.37s1.51-4.38,3.69-4.38c2.38,0,3.53,1.93,3.53,4.21A6.65,6.65,0,0,1,250.05,452Zm-3.6-3.48c-1.1,0-1.77.77-1.92,2.12h3.91C248.36,449.52,247.81,448.56,246.45,448.56Z" transform="translate(-24.37 -24.73)"/><path class="cls-8" d="M257.21,455.66v-.8a3.22,3.22,0,0,1-2.2,1c-1.81,0-3.23-1.31-3.23-4.51,0-2.88,1.57-4.24,3.31-4.24a3,3,0,0,1,2.12,1v-3.2l1.63-.85v11.67Zm0-6a2.7,2.7,0,0,0-2-1.1c-1.18,0-1.82.89-1.82,2.67,0,2.11.67,3,1.89,3a2.59,2.59,0,0,0,1.9-1.07Z" transform="translate(-24.37 -24.73)"/><path class="cls-8" d="M67.63,465.36a1.07,1.07,0,1,1,1.06-1.05A1.07,1.07,0,0,1,67.63,465.36Zm-.83,9.5v-8.41h1.65v8.41Z" transform="translate(-24.37 -24.73)"/><path class="cls-8" d="M76.07,474.86V470.1c0-1.7-.64-2.3-1.73-2.3s-1.73.78-1.73,2.14v4.92H71v-8.41h1.65v.8a2.56,2.56,0,0,1,2.11-1c2,0,3,1.28,3,3.76v4.82Z" transform="translate(-24.37 -24.73)"/><path class="cls-8" d="M88.42,474.65a3.4,3.4,0,0,1-1.62.38c-1.17,0-1.89-.72-1.89-2.22V468h-1.2v-1.51h1.2v-2.4l1.62-.86v3.26h2.08V468H86.53v4.56c0,.78.25,1,.86,1a2.63,2.63,0,0,0,1.22-.34Z" transform="translate(-24.37 -24.73)"/><path class="cls-8" d="M96,474.86V470.1c0-1.7-.64-2.3-1.73-2.3s-1.72.78-1.72,2.14v4.92H90.85V464.05l1.65-.86v4.06a2.54,2.54,0,0,1,2.11-1c2,0,3,1.28,3,3.76v4.82Z" transform="translate(-24.37 -24.73)"/><path class="cls-8" d="M106.74,471.24h-5.56c.18,1.61,1.09,2.3,2.12,2.3a2.92,2.92,0,0,0,1.82-.67l1,1.06a3.94,3.94,0,0,1-2.9,1.1c-2,0-3.63-1.58-3.63-4.37s1.5-4.38,3.68-4.38c2.38,0,3.54,1.93,3.54,4.2C106.79,470.79,106.75,471.06,106.74,471.24Zm-3.6-3.48c-1.11,0-1.78.77-1.92,2.12h3.9C105,468.72,104.5,467.76,103.14,467.76Z" transform="translate(-24.37 -24.73)"/><path class="cls-8" d="M118.19,474.86v-.81a2.56,2.56,0,0,1-2.11,1c-2,0-3-1.28-3-3.76v-4.82h1.65v4.76c0,1.69.64,2.3,1.72,2.3s1.73-.78,1.73-2.14v-4.92h1.65v8.41Z" transform="translate(-24.37 -24.73)"/><path class="cls-8" d="M125,475a5.8,5.8,0,0,1-3.22-1.07l.76-1.25a4.42,4.42,0,0,0,2.45.83c1,0,1.53-.33,1.53-.93s-.73-.94-2-1.4c-1.81-.71-2.47-1.32-2.47-2.65,0-1.5,1.19-2.28,2.87-2.28a5,5,0,0,1,2.85.92l-.72,1.27a3.67,3.67,0,0,0-2.18-.72c-.8,0-1.15.32-1.15.77s.29.72,1.55,1.21c1.87.72,2.83,1.24,2.83,2.82C128.14,474.41,126.64,475,125,475Z" transform="translate(-24.37 -24.73)"/><path class="cls-8" d="M136.87,471.24h-5.56c.18,1.61,1.09,2.3,2.11,2.3a2.92,2.92,0,0,0,1.83-.67l1,1.06a3.94,3.94,0,0,1-2.9,1.1c-2,0-3.64-1.58-3.64-4.37s1.51-4.38,3.69-4.38c2.38,0,3.53,1.93,3.53,4.2C136.91,470.79,136.88,471.06,136.87,471.24Zm-3.61-3.48c-1.1,0-1.77.77-1.92,2.12h3.91C135.17,468.72,134.62,467.76,133.26,467.76Z" transform="translate(-24.37 -24.73)"/><path class="cls-8" d="M143.52,468.2a2.37,2.37,0,0,0-1.26-.31c-1,0-1.65.74-1.65,2.16v4.81H139v-8.41h1.65v.8a2.31,2.31,0,0,1,1.92-1,2.35,2.35,0,0,1,1.42.35Z" transform="translate(-24.37 -24.73)"/><path class="cls-8" d="M157.63,474.86h-1.41l-1.13-4.25c-.18-.64-.35-1.39-.43-1.79-.08.4-.26,1.17-.44,1.81l-1.12,4.23h-1.41l-2.3-8.41H151l1,4.08c.16.64.34,1.44.42,1.84.1-.41.29-1.18.46-1.84l1.13-4.08h1.32l1.14,4.1c.18.66.35,1.41.45,1.82.09-.41.25-1.2.41-1.84l1-4.08H160Z" transform="translate(-24.37 -24.73)"/><path class="cls-8" d="M168.3,471.24h-5.55c.18,1.61,1.09,2.3,2.11,2.3a2.92,2.92,0,0,0,1.83-.67l1,1.06a3.9,3.9,0,0,1-2.89,1.1c-2,0-3.64-1.58-3.64-4.37s1.51-4.38,3.68-4.38c2.39,0,3.54,1.93,3.54,4.2A6.68,6.68,0,0,1,168.3,471.24Zm-3.6-3.48c-1.1,0-1.77.77-1.92,2.12h3.91C166.61,468.72,166.06,467.76,164.7,467.76Z" transform="translate(-24.37 -24.73)"/><path class="cls-8" d="M174.14,475a3,3,0,0,1-2.11-1v.79H170.4V464l1.63-.84v4.06a3.19,3.19,0,0,1,2.19-1c1.81,0,3.24,1.31,3.24,4.51C177.46,473.67,175.89,475,174.14,475Zm-.22-7.23a2.56,2.56,0,0,0-1.91,1.07v3.54a2.72,2.72,0,0,0,2,1.1c1.19,0,1.83-.9,1.83-2.67C175.81,468.72,175.13,467.8,173.92,467.8Z" transform="translate(-24.37 -24.73)"/><path class="cls-8" d="M187.58,475a3,3,0,0,1-2.11-1v.79h-1.63V464l1.63-.84v4.06a3.19,3.19,0,0,1,2.19-1c1.81,0,3.24,1.31,3.24,4.51C190.9,473.67,189.33,475,187.58,475Zm-.22-7.23a2.56,2.56,0,0,0-1.91,1.07v3.54a2.72,2.72,0,0,0,2,1.1c1.19,0,1.83-.9,1.83-2.67C189.25,468.72,188.57,467.8,187.36,467.8Z" transform="translate(-24.37 -24.73)"/><path class="cls-8" d="M197.52,468.2a2.39,2.39,0,0,0-1.27-.31c-1,0-1.65.74-1.65,2.16v4.81H193v-8.41h1.64v.8a2.34,2.34,0,0,1,1.93-1,2.37,2.37,0,0,1,1.42.35Z" transform="translate(-24.37 -24.73)"/><path class="cls-8" d="M202.54,475c-2.11,0-3.69-1.74-3.69-4.37s1.63-4.38,3.74-4.38,3.75,1.71,3.75,4.33C206.34,473.4,204.7,475,202.54,475Zm0-7.19c-1.25,0-2,1.11-2,2.77,0,1.84.85,2.85,2.1,2.85s2.06-1.26,2.06-2.8C204.67,469,203.86,467.84,202.53,467.84Z" transform="translate(-24.37 -24.73)"/><path class="cls-8" d="M215.74,474.86h-1.4l-1.14-4.25c-.18-.64-.35-1.39-.43-1.79-.08.4-.26,1.17-.44,1.81l-1.12,4.23h-1.4l-2.31-8.41h1.63l1,4.08c.16.64.33,1.44.41,1.84.1-.41.29-1.18.47-1.84l1.12-4.08h1.32l1.14,4.1c.18.66.35,1.41.45,1.82.1-.41.26-1.2.42-1.84l1-4.08h1.63Z" transform="translate(-24.37 -24.73)"/><path class="cls-8" d="M222.38,475a5.77,5.77,0,0,1-3.22-1.07l.76-1.25a4.42,4.42,0,0,0,2.44.83c1,0,1.54-.33,1.54-.93s-.74-.94-2-1.4c-1.81-.71-2.47-1.32-2.47-2.65,0-1.5,1.19-2.28,2.87-2.28a5.07,5.07,0,0,1,2.85.92l-.72,1.27a3.67,3.67,0,0,0-2.18-.72c-.8,0-1.15.32-1.15.77s.29.72,1.55,1.21c1.87.72,2.83,1.24,2.83,2.82C225.53,474.41,224,475,222.38,475Z" transform="translate(-24.37 -24.73)"/><path class="cls-8" d="M234.25,471.24H228.7c.18,1.61,1.09,2.3,2.11,2.3a2.92,2.92,0,0,0,1.83-.67l1,1.06a3.9,3.9,0,0,1-2.89,1.1c-2,0-3.64-1.58-3.64-4.37s1.51-4.38,3.68-4.38c2.39,0,3.54,1.93,3.54,4.2A6.68,6.68,0,0,1,234.25,471.24Zm-3.6-3.48c-1.1,0-1.77.77-1.92,2.12h3.91C232.56,468.72,232,467.76,230.65,467.76Z" transform="translate(-24.37 -24.73)"/><path class="cls-8" d="M240.91,468.2a2.39,2.39,0,0,0-1.27-.31c-1,0-1.64.74-1.64,2.16v4.81h-1.65v-8.41H238v.8a2.31,2.31,0,0,1,1.92-1,2.37,2.37,0,0,1,1.42.35Z" transform="translate(-24.37 -24.73)"/><path class="cls-8" d="M104.84,268.29v-4.71h-4.59v4.71H98V257.08h2.24v4.29h4.59v-4.29h2.25v11.21Z" transform="translate(-24.37 -24.73)"/><path class="cls-8" d="M114.7,259.29v9h-2.24v-9h-3.22v-2.21h8.68v2.21Z" transform="translate(-24.37 -24.73)"/><path class="cls-8" d="M128.32,268.29v-4.12c0-.61,0-2,0-2.46-.16.41-.5,1.21-.79,1.85l-2.27,5-2.27-5c-.29-.64-.63-1.44-.79-1.85,0,.43,0,1.85,0,2.46v4.12h-2.2V257.08h2.16l2.34,5.08c.29.62.63,1.47.77,1.87.14-.42.46-1.23.75-1.87l2.26-5.08h2.21v11.21Z" transform="translate(-24.37 -24.73)"/><path class="cls-8" d="M133.43,268.29V257.08h2.24v9h5.62v2.21Z" transform="translate(-24.37 -24.73)"/><path class="cls-8" d="M147.1,268.46a7.74,7.74,0,0,1-4.37-1.2l1.09-1.9a6.64,6.64,0,0,0,3.28.94c1.52,0,2.4-.64,2.4-1.84s-.85-1.66-1.9-1.66a3.63,3.63,0,0,0-2.21.67l-2.13-.79.38-5.6h7.46v2.16h-5.39l-.13,1.94a4.58,4.58,0,0,1,2.35-.51,3.52,3.52,0,0,1,3.84,3.71C151.77,267.07,149.85,268.46,147.1,268.46Z" transform="translate(-24.37 -24.73)"/><path class="cls-8" d="M69.87,287.66a5.21,5.21,0,0,1-4.36-2l1.62-1.44A3.64,3.64,0,0,0,70,285.47c1.32,0,2-.37,2-1.22s-.39-1-2.5-1.52S66,281.6,66,279.39c0-2,1.79-3.28,4-3.28A5.34,5.34,0,0,1,74,277.87l-1.62,1.57a3.41,3.41,0,0,0-2.54-1.16c-1.2,0-1.6.52-1.6,1,0,.71.48.93,2.25,1.35s3.75,1,3.75,3.45C74.27,286.22,72.92,287.66,69.87,287.66Z" transform="translate(-24.37 -24.73)"/><path class="cls-8" d="M77.45,278.4a1.27,1.27,0,1,1,1.27-1.27A1.28,1.28,0,0,1,77.45,278.4Zm-1.1,9.09v-8.41h2.2v8.41Z" transform="translate(-24.37 -24.73)"/><path class="cls-8" d="M85.85,287.49v-4.55c0-1.5-.51-1.95-1.42-1.95s-1.44.45-1.44,1.9v4.6H80.78v-8.41H83v.56a2.75,2.75,0,0,1,2-.73c2.14,0,3.1,1.47,3.1,3.84v4.74Z" transform="translate(-24.37 -24.73)"/><path class="cls-8" d="M93.32,290.58l-.78-1.67c1.73-.24,2.19-.65,2.19-2a2.55,2.55,0,0,1-1.77.7c-1.8,0-3.27-1.34-3.27-4.48,0-2.51,1.18-4.27,3.27-4.27a2.7,2.7,0,0,1,1.77.65v-.48h2.21v7C96.94,288.83,96.27,290.26,93.32,290.58Zm1.41-8.87a1.74,1.74,0,0,0-1.49-.72c-.84,0-1.31.73-1.31,2.14,0,1.73.58,2.45,1.44,2.45a1.55,1.55,0,0,0,1.36-.7Z" transform="translate(-24.37 -24.73)"/><path class="cls-8" d="M99.19,287.49V276.92l2.21-1.1v11.67Z" transform="translate(-24.37 -24.73)"/><path class="cls-8" d="M110.44,284h-5a1.62,1.62,0,0,0,1.73,1.58,1.86,1.86,0,0,0,1.44-.59l1.57,1.31a3.92,3.92,0,0,1-3,1.36c-2.42,0-4-1.71-4-4.37s1.62-4.38,3.75-4.38,3.54,2,3.54,4.38A5.66,5.66,0,0,1,110.44,284Zm-3.61-3.17a1.46,1.46,0,0,0-1.38,1.5h2.88A1.48,1.48,0,0,0,106.83,280.83Z" transform="translate(-24.37 -24.73)"/><path class="cls-8" d="M112.12,282.78v-2.21h4.6v2.21Z" transform="translate(-24.37 -24.73)"/><path class="cls-8" d="M122.73,287.66A2.74,2.74,0,0,1,121,287v2.46l-2.2,1.11v-11.5H121v.53a2.6,2.6,0,0,1,1.78-.7c1.79,0,3.27,1.34,3.27,4.48C126,285.9,124.81,287.66,122.73,287.66Zm-.41-6.67a1.59,1.59,0,0,0-1.37.7v3.17a1.75,1.75,0,0,0,1.49.72c.85,0,1.32-.73,1.32-2.14C123.76,281.71,123.18,281,122.32,281Z" transform="translate(-24.37 -24.73)"/><path class="cls-8" d="M132.23,287.49v-.56a2.69,2.69,0,0,1-1.88.73,2.93,2.93,0,0,1-3.14-3c0-1.86,1.5-2.79,3.41-2.79a3.39,3.39,0,0,1,1.61.34v-.42a1.06,1.06,0,0,0-1.2-1.07,4.2,4.2,0,0,0-2.3.56l-.85-1.53a5.65,5.65,0,0,1,3.15-.85c2,0,3.41,1,3.41,2.94v5.64Zm0-3.52a2.53,2.53,0,0,0-1.53-.36c-.83,0-1.28.39-1.28,1.06s.33,1.12,1.28,1.12a1.8,1.8,0,0,0,1.53-.77Z" transform="translate(-24.37 -24.73)"/><path class="cls-8" d="M139.71,290.58l-.79-1.67c1.73-.24,2.19-.65,2.19-2a2.55,2.55,0,0,1-1.77.7c-1.79,0-3.27-1.34-3.27-4.48,0-2.51,1.19-4.27,3.27-4.27a2.67,2.67,0,0,1,1.77.65v-.48h2.21v7C143.32,288.83,142.65,290.26,139.71,290.58Zm1.4-8.87a1.72,1.72,0,0,0-1.48-.72c-.85,0-1.32.73-1.32,2.14,0,1.73.58,2.45,1.44,2.45a1.54,1.54,0,0,0,1.36-.7Z" transform="translate(-24.37 -24.73)"/><path class="cls-8" d="M152.32,284h-5a1.62,1.62,0,0,0,1.73,1.58,1.86,1.86,0,0,0,1.44-.59L152,286.3a3.9,3.9,0,0,1-3,1.36c-2.42,0-4-1.71-4-4.37s1.62-4.38,3.75-4.38,3.54,2,3.54,4.38C152.35,283.61,152.33,283.84,152.32,284Zm-3.62-3.17a1.46,1.46,0,0,0-1.38,1.5h2.88A1.48,1.48,0,0,0,148.7,280.83Z" transform="translate(-24.37 -24.73)"/><path class="cls-8" d="M163.37,287.49v-.56a2.7,2.7,0,0,1-1.89.73,2.93,2.93,0,0,1-3.14-3c0-1.86,1.51-2.79,3.41-2.79a3.43,3.43,0,0,1,1.62.34v-.42a1.06,1.06,0,0,0-1.2-1.07,4.22,4.22,0,0,0-2.31.56l-.84-1.53a5.63,5.63,0,0,1,3.15-.85c2,0,3.41,1,3.41,2.94v5.64Zm0-3.52a2.55,2.55,0,0,0-1.54-.36c-.83,0-1.28.39-1.28,1.06s.34,1.12,1.28,1.12a1.82,1.82,0,0,0,1.54-.77Z" transform="translate(-24.37 -24.73)"/><path class="cls-8" d="M171.63,287.66a2.7,2.7,0,0,1-1.78-.65v2.46l-2.21,1.11v-11.5h2.21v.53a2.6,2.6,0,0,1,1.78-.7c1.79,0,3.26,1.34,3.26,4.48C174.89,285.9,173.71,287.66,171.63,287.66Zm-.42-6.67a1.55,1.55,0,0,0-1.36.7v3.17a1.75,1.75,0,0,0,1.49.72c.85,0,1.31-.73,1.31-2.14C172.65,281.71,172.07,281,171.21,281Z" transform="translate(-24.37 -24.73)"/><path class="cls-8" d="M180.62,287.66a2.7,2.7,0,0,1-1.78-.65v2.46l-2.21,1.11v-11.5h2.21v.53a2.6,2.6,0,0,1,1.78-.7c1.79,0,3.26,1.34,3.26,4.48C183.88,285.9,182.7,287.66,180.62,287.66ZM180.2,281a1.55,1.55,0,0,0-1.36.7v3.17a1.75,1.75,0,0,0,1.49.72c.85,0,1.31-.73,1.31-2.14C181.64,281.71,181.07,281,180.2,281Z" transform="translate(-24.37 -24.73)"/><path class="cls-8" d="M94.36,321l-.94-2.66H88.94L88,321H86.27l4-11.21h1.78L96.16,321ZM92,314.22c-.27-.8-.72-2.1-.85-2.58-.12.48-.52,1.76-.81,2.59l-.9,2.56h3.46Z" transform="translate(-24.37 -24.73)"/><path class="cls-8" d="M103.23,321V316.2c0-1.69-.64-2.3-1.73-2.3s-1.73.78-1.73,2.14V321H98.12v-8.41h1.65v.8a2.57,2.57,0,0,1,2.11-1c2,0,3,1.28,3,3.76V321Z" transform="translate(-24.37 -24.73)"/><path class="cls-8" d="M110,324l-.56-1.24c2.37-.12,2.88-.76,2.88-2.5v-.15a3.1,3.1,0,0,1-2.17,1c-1.8,0-3.24-1.31-3.24-4.51,0-2.88,1.59-4.24,3.32-4.24a2.85,2.85,0,0,1,2.09,1v-.79h1.65v7.6C113.93,322.72,113,324,110,324Zm2.36-9a2.72,2.72,0,0,0-2-1.1c-1.19,0-1.83.89-1.83,2.67,0,2.11.67,3,1.89,3a2.63,2.63,0,0,0,1.91-1.07Z" transform="translate(-24.37 -24.73)"/><path class="cls-8" d="M121.4,321v-.81a2.55,2.55,0,0,1-2.11,1c-2,0-3-1.28-3-3.76v-4.82H118v4.76c0,1.69.64,2.3,1.72,2.3s1.73-.78,1.73-2.14v-4.92h1.65V321Z" transform="translate(-24.37 -24.73)"/><path class="cls-8" d="M125.56,321V310.15l1.65-.86V321Z" transform="translate(-24.37 -24.73)"/><path class="cls-8" d="M134.54,321v-.84a3.3,3.3,0,0,1-2.31,1,2.71,2.71,0,0,1-2.91-2.83c0-1.87,1.44-2.72,3.35-2.72a4.62,4.62,0,0,1,1.87.32v-.63c0-.91-.56-1.42-1.59-1.42a4.23,4.23,0,0,0-2.19.53l-.64-1.25a5.18,5.18,0,0,1,2.88-.75c1.88,0,3.16.91,3.16,2.81V321Zm0-3.59a4.22,4.22,0,0,0-1.92-.37c-1.06,0-1.73.48-1.73,1.25s.53,1.39,1.62,1.39a2.64,2.64,0,0,0,2-1.07Z" transform="translate(-24.37 -24.73)"/><path class="cls-8" d="M143.08,314.3a2.47,2.47,0,0,0-1.26-.31c-1,0-1.65.74-1.65,2.16V321h-1.65v-8.41h1.65v.8a2.32,2.32,0,0,1,1.92-1,2.35,2.35,0,0,1,1.42.35Z" transform="translate(-24.37 -24.73)"/><path class="cls-8" d="M148.28,321.13a3.77,3.77,0,0,1-3.9-3l1.63-.48a2.3,2.3,0,0,0,2.32,1.78c1.62,0,2.26-.91,2.26-3v-6.66h1.68v6.79C152.27,319.55,151,321.13,148.28,321.13Z" transform="translate(-24.37 -24.73)"/><path class="cls-8" d="M158.46,321.13a5.19,5.19,0,0,1-4-1.81l1.2-1.17a4.1,4.1,0,0,0,2.92,1.33c1.56,0,2.32-.54,2.32-1.63,0-.86-.66-1.3-2.53-1.86-2.37-.7-3.51-1.29-3.51-3.29s1.64-3.13,3.7-3.13a5.05,5.05,0,0,1,3.67,1.53l-1.19,1.2a3.39,3.39,0,0,0-2.61-1.08c-1.31,0-1.87.64-1.87,1.4s.51,1.16,2.45,1.74c2.21.67,3.58,1.38,3.58,3.38S161.32,321.13,158.46,321.13Z" transform="translate(-24.37 -24.73)"/><path class="cls-8" d="M92.55,330.6v2.93h3.21v1.65H92.55v5H90.86V329h7.22v1.65Z" transform="translate(-24.37 -24.73)"/><path class="cls-8" d="M103.22,333.5a2.51,2.51,0,0,0-1.27-.31c-1,0-1.65.74-1.65,2.16v4.81H98.65v-8.41h1.65v.8a2.34,2.34,0,0,1,1.92-1,2.39,2.39,0,0,1,1.43.35Z" transform="translate(-24.37 -24.73)"/><path class="cls-8" d="M108.24,340.33c-2.11,0-3.7-1.74-3.7-4.37s1.64-4.38,3.75-4.38,3.75,1.71,3.75,4.33C112,338.7,110.4,340.33,108.24,340.33Zm0-7.18c-1.25,0-2,1.1-2,2.76,0,1.84.85,2.85,2.1,2.85s2.06-1.26,2.06-2.8C110.37,334.25,109.55,333.15,108.23,333.15Z" transform="translate(-24.37 -24.73)"/><path class="cls-8" d="M119.17,340.16V335.4c0-1.69-.64-2.3-1.73-2.3s-1.73.78-1.73,2.14v4.92h-1.65v-8.41h1.65v.8a2.58,2.58,0,0,1,2.12-1c2,0,3,1.28,3,3.76v4.82Z" transform="translate(-24.37 -24.73)"/><path class="cls-8" d="M127.12,340a3.39,3.39,0,0,1-1.61.38c-1.17,0-1.89-.72-1.89-2.22v-4.85h-1.2v-1.51h1.2v-2.4l1.61-.86v3.26h2.09v1.51h-2.09v4.56c0,.78.26,1,.87,1a2.63,2.63,0,0,0,1.22-.34Z" transform="translate(-24.37 -24.73)"/><path class="cls-8" d="M140.64,336.54h-5.55c.18,1.61,1.09,2.3,2.11,2.3a2.92,2.92,0,0,0,1.83-.67l1,1.06a3.9,3.9,0,0,1-2.89,1.1c-2,0-3.64-1.58-3.64-4.37s1.51-4.38,3.69-4.38c2.38,0,3.53,1.93,3.53,4.21A6.65,6.65,0,0,1,140.64,336.54Zm-3.6-3.48c-1.1,0-1.77.77-1.92,2.12H139C139,334,138.4,333.06,137,333.06Z" transform="translate(-24.37 -24.73)"/><path class="cls-8" d="M147.84,340.16V335.4c0-1.69-.64-2.3-1.73-2.3s-1.72.78-1.72,2.14v4.92h-1.65v-8.41h1.65v.8a2.54,2.54,0,0,1,2.11-1c1.95,0,3,1.28,3,3.76v4.82Z" transform="translate(-24.37 -24.73)"/><path class="cls-8" d="M156.92,340.16v-.8a3.22,3.22,0,0,1-2.2,1c-1.81,0-3.23-1.31-3.23-4.51,0-2.88,1.57-4.24,3.31-4.24a3,3,0,0,1,2.12,1v-3.2l1.63-.85v11.67Zm0-6a2.7,2.7,0,0,0-2-1.1c-1.18,0-1.82.89-1.82,2.67,0,2.11.67,3,1.89,3a2.59,2.59,0,0,0,1.9-1.07Z" transform="translate(-24.37 -24.73)"/><path class="cls-8" d="M286.3,268.29l-2-4H282v4H279.8V257.08H285c2.11,0,3.85,1.17,3.85,3.56a3.19,3.19,0,0,1-2.14,3.29l2.14,4.36Zm-1.33-9H282v2.88H285c1,0,1.6-.48,1.6-1.46S286,259.26,285,259.26Z" transform="translate(-24.37 -24.73)"/><path class="cls-8" d="M291.22,268.29V257.08H299v2.19h-5.54v1.94h3.22v2.18h-3.22v2.7h5.78v2.2Z" transform="translate(-24.37 -24.73)"/><path class="cls-8" d="M305.19,268.46a5.19,5.19,0,0,1-4.35-2l1.62-1.44a3.62,3.62,0,0,0,2.86,1.28c1.33,0,1.95-.37,1.95-1.22s-.38-1-2.49-1.52-3.51-1.13-3.51-3.34c0-2,1.79-3.28,4-3.28a5.35,5.35,0,0,1,4.09,1.76l-1.62,1.57a3.41,3.41,0,0,0-2.55-1.16c-1.2,0-1.6.52-1.6,1,0,.71.48.93,2.26,1.35s3.75,1,3.75,3.45C309.6,267,308.25,268.46,305.19,268.46Z" transform="translate(-24.37 -24.73)"/><path class="cls-8" d="M316.28,259.29v9H314v-9h-3.21v-2.21h8.67v2.21Z" transform="translate(-24.37 -24.73)"/><path class="cls-8" d="M272,287.66a5.19,5.19,0,0,1-4.36-2l1.62-1.44a3.62,3.62,0,0,0,2.86,1.28c1.33,0,2-.37,2-1.22s-.39-1-2.5-1.52-3.51-1.13-3.51-3.34c0-2,1.8-3.28,4-3.28a5.34,5.34,0,0,1,4.08,1.76l-1.62,1.57a3.41,3.41,0,0,0-2.54-1.16c-1.2,0-1.6.52-1.6,1,0,.71.48.93,2.25,1.35s3.75,1,3.75,3.45C276.39,286.22,275,287.66,272,287.66Z" transform="translate(-24.37 -24.73)"/><path class="cls-8" d="M285,284h-5a1.62,1.62,0,0,0,1.73,1.58,1.88,1.88,0,0,0,1.44-.59l1.57,1.31a3.92,3.92,0,0,1-3,1.36c-2.42,0-4-1.71-4-4.37s1.62-4.38,3.75-4.38,3.54,2,3.54,4.38A5.66,5.66,0,0,1,285,284Zm-3.61-3.17a1.46,1.46,0,0,0-1.38,1.5h2.88A1.48,1.48,0,0,0,281.43,280.83Z" transform="translate(-24.37 -24.73)"/><path class="cls-8" d="M291.75,281.66a1.93,1.93,0,0,0-1.28-.54c-.87,0-1.43.36-1.43,1.82v4.55h-2.21v-8.41H289v.56a2.33,2.33,0,0,1,1.73-.73,2.16,2.16,0,0,1,1.55.59Z" transform="translate(-24.37 -24.73)"/><path class="cls-8" d="M298.47,287.49h-2.28l-3-8.41h2.43l1.23,3.89c.21.64.44,1.44.53,1.84.1-.41.32-1.18.53-1.84l1.23-3.89h2.37Z" transform="translate(-24.37 -24.73)"/><path class="cls-8" d="M304.14,278.4a1.27,1.27,0,1,1,1.27-1.27A1.28,1.28,0,0,1,304.14,278.4Zm-1.1,9.09v-8.41h2.21v8.41Z" transform="translate(-24.37 -24.73)"/><path class="cls-8" d="M311,287.66a4.39,4.39,0,0,1,.09-8.75,3.77,3.77,0,0,1,3.33,1.85L313,282.24A2.26,2.26,0,0,0,311,281c-1.06,0-1.75.88-1.75,2.25s.69,2.24,1.75,2.24a2.42,2.42,0,0,0,2-1.07l1.41,1.33A4,4,0,0,1,311,287.66Z" transform="translate(-24.37 -24.73)"/><path class="cls-8" d="M322.69,284h-5a1.61,1.61,0,0,0,1.72,1.58,1.86,1.86,0,0,0,1.44-.59l1.57,1.31a3.9,3.9,0,0,1-3,1.36c-2.41,0-3.95-1.71-3.95-4.37s1.62-4.38,3.75-4.38,3.53,2,3.53,4.38A6.12,6.12,0,0,1,322.69,284Zm-3.62-3.17c-.8,0-1.29.65-1.37,1.5h2.88A1.49,1.49,0,0,0,319.07,280.83Z" transform="translate(-24.37 -24.73)"/><path class="cls-8" d="M327.54,287.66a6.59,6.59,0,0,1-3.52-1l.73-1.68a5.94,5.94,0,0,0,2.92.76c.86,0,1.12-.2,1.12-.64s-.31-.57-1.24-.84c-2-.61-3.31-1.11-3.31-2.89s1.39-2.49,3.36-2.49a6.79,6.79,0,0,1,3.11.81l-.71,1.75a5.39,5.39,0,0,0-2.45-.67c-.89,0-1.13.17-1.13.54s.25.5,1.74,1,2.8,1,2.8,2.72C331,287,329.43,287.66,327.54,287.66Z" transform="translate(-24.37 -24.73)"/><path class="cls-8" d="M182.28,114.1c-2.71,0-4.53-1.82-4.53-5.09v-6.29H180V109c0,1.79.86,2.93,2.29,2.93s2.3-1.1,2.3-2.9v-6.29h2.24V109C186.82,112.23,185.13,114.1,182.28,114.1Z" transform="translate(-24.37 -24.73)"/><path class="cls-8" d="M192.31,114.1a6.59,6.59,0,0,1-3.52-1l.73-1.68a5.94,5.94,0,0,0,2.92.76c.86,0,1.12-.2,1.12-.63s-.31-.58-1.24-.85c-2-.61-3.31-1.11-3.31-2.88s1.39-2.5,3.36-2.5a6.68,6.68,0,0,1,3.11.82l-.71,1.74a5.39,5.39,0,0,0-2.45-.67c-.89,0-1.13.17-1.13.54s.25.5,1.74,1,2.8,1,2.8,2.72C195.73,113.42,194.2,114.1,192.31,114.1Z" transform="translate(-24.37 -24.73)"/><path class="cls-8" d="M204.34,110.44h-5A1.62,1.62,0,0,0,201,112a1.86,1.86,0,0,0,1.44-.59l1.57,1.31a3.9,3.9,0,0,1-3,1.36c-2.41,0-3.95-1.71-3.95-4.37s1.62-4.38,3.75-4.38,3.53,2,3.53,4.38A6.12,6.12,0,0,1,204.34,110.44Zm-3.62-3.17c-.8,0-1.29.66-1.37,1.5h2.88A1.49,1.49,0,0,0,200.72,107.27Z" transform="translate(-24.37 -24.73)"/><path class="cls-8" d="M211,108.1a1.89,1.89,0,0,0-1.28-.54c-.86,0-1.42.37-1.42,1.82v4.55h-2.21v-8.41h2.21v.56a2.31,2.31,0,0,1,1.73-.73,2.16,2.16,0,0,1,1.55.59Z" transform="translate(-24.37 -24.73)"/><path class="cls-8" d="M227.51,113.93h-2.19l-1.38-5.76c-.16-.68-.32-1.51-.38-1.92-.05.41-.21,1.26-.37,1.92l-1.41,5.76h-2.1l-2.33-11.21h2.33l1,5.46c.09.55.22,1.38.27,1.84.08-.46.26-1.29.39-1.84l1.31-5.46h2l1.33,5.46c.13.55.3,1.38.38,1.84.05-.46.18-1.31.28-1.84l1-5.46h2.31Z" transform="translate(-24.37 -24.73)"/><path class="cls-8" d="M237.78,110.44h-5a1.62,1.62,0,0,0,1.73,1.58,1.86,1.86,0,0,0,1.44-.59l1.57,1.31a3.9,3.9,0,0,1-3,1.36c-2.42,0-3.95-1.71-3.95-4.37s1.61-4.38,3.74-4.38,3.54,2,3.54,4.38C237.81,110.05,237.79,110.28,237.78,110.44Zm-3.62-3.17a1.46,1.46,0,0,0-1.38,1.5h2.89A1.5,1.5,0,0,0,234.16,107.27Z" transform="translate(-24.37 -24.73)"/><path class="cls-8" d="M243.55,114.1a2.64,2.64,0,0,1-1.77-.65v.48h-2.21V103.36l2.21-1.1v3.79a2.55,2.55,0,0,1,1.77-.7c1.8,0,3.27,1.34,3.27,4.48C246.82,112.34,245.63,114.1,243.55,114.1Zm-.41-6.67a1.55,1.55,0,0,0-1.36.7v3.17a1.74,1.74,0,0,0,1.49.72c.84,0,1.31-.73,1.31-2.14C244.58,108.15,244,107.43,243.14,107.43Z" transform="translate(-24.37 -24.73)"/><path class="cls-8" d="M187.46,133.13h-5.09V121.92h5.14c2.17,0,3.55,1,3.55,3a2.48,2.48,0,0,1-1.18,2.18,2.58,2.58,0,0,1,1.57,2.45C191.45,131.86,189.86,133.13,187.46,133.13Zm-.05-9.14h-2.85v2.13h3c.93,0,1.27-.44,1.27-1.06S188.39,124,187.41,124Zm.13,4.11h-3V131h3c1.09,0,1.6-.58,1.6-1.46S188.63,128.1,187.54,128.1Z" transform="translate(-24.37 -24.73)"/><path class="cls-8" d="M198.28,127.3a1.93,1.93,0,0,0-1.28-.54c-.87,0-1.43.37-1.43,1.82v4.55h-2.21v-8.41h2.21v.57a2.28,2.28,0,0,1,1.73-.74,2.16,2.16,0,0,1,1.55.59Z" transform="translate(-24.37 -24.73)"/><path class="cls-8" d="M203.33,133.3c-2.19,0-3.79-1.79-3.79-4.37s1.6-4.38,3.79-4.38,3.81,1.81,3.81,4.38S205.53,133.3,203.33,133.3Zm0-6.62c-1.05,0-1.55,1-1.55,2.25s.5,2.24,1.55,2.24,1.57-1.07,1.57-2.24S204.39,126.68,203.33,126.68Z" transform="translate(-24.37 -24.73)"/><path class="cls-8" d="M216.53,133.13h-1.84l-.83-3.3c-.16-.66-.38-1.58-.45-2-.06.4-.29,1.32-.45,2l-.83,3.3h-1.84l-2.42-8.41h2.24l.74,3.11c.15.64.34,1.52.4,1.92.07-.42.27-1.26.45-1.92l.83-3.11h1.83l.83,3.11c.17.66.38,1.5.45,1.92.06-.4.25-1.28.4-1.92l.73-3.11H219Z" transform="translate(-24.37 -24.73)"/><path class="cls-8" d="M223.35,133.3a6.59,6.59,0,0,1-3.52-1l.73-1.68a5.94,5.94,0,0,0,2.91.77c.87,0,1.12-.21,1.12-.64s-.3-.58-1.23-.85c-2-.61-3.31-1.11-3.31-2.88s1.39-2.5,3.36-2.5a6.68,6.68,0,0,1,3.11.82l-.71,1.74a5.39,5.39,0,0,0-2.45-.67c-.89,0-1.13.17-1.13.54s.25.5,1.74,1,2.8,1,2.8,2.72C226.77,132.62,225.24,133.3,223.35,133.3Z" transform="translate(-24.37 -24.73)"/><path class="cls-8" d="M235.38,129.64h-5a1.62,1.62,0,0,0,1.73,1.58,1.86,1.86,0,0,0,1.44-.59l1.57,1.31a3.9,3.9,0,0,1-3,1.36c-2.41,0-4-1.71-4-4.37s1.62-4.38,3.74-4.38,3.54,2,3.54,4.38A6.12,6.12,0,0,1,235.38,129.64Zm-3.62-3.17c-.8,0-1.29.66-1.37,1.5h2.88A1.5,1.5,0,0,0,231.76,126.47Z" transform="translate(-24.37 -24.73)"/><path class="cls-8" d="M242.08,127.3a1.89,1.89,0,0,0-1.28-.54c-.86,0-1.42.37-1.42,1.82v4.55h-2.21v-8.41h2.21v.57a2.28,2.28,0,0,1,1.73-.74,2.16,2.16,0,0,1,1.55.59Z" transform="translate(-24.37 -24.73)"/><path class="cls-8" d="M271.48,321v-5h-5.16v5h-1.68V309.75h1.68v4.53h5.16v-4.53h1.68V321Z" transform="translate(-24.37 -24.73)"/><path class="cls-8" d="M280.31,311.4V321h-1.68V311.4h-3.27v-1.65h8.21v1.65Z" transform="translate(-24.37 -24.73)"/><path class="cls-8" d="M290,311.4V321h-1.68V311.4h-3.27v-1.65h8.21v1.65Z" transform="translate(-24.37 -24.73)"/><path class="cls-8" d="M300.07,316.78h-2.93V321h-1.65V309.75h4.69a3.3,3.3,0,0,1,3.6,3.51C303.78,315.56,302.24,316.78,300.07,316.78Zm.08-5.44h-3v3.85h3a1.74,1.74,0,0,0,1.92-1.93A1.77,1.77,0,0,0,300.15,311.34Z" transform="translate(-24.37 -24.73)"/><path class="cls-8" d="M317.65,321l-.94-2.66h-4.49L311.3,321h-1.75l4-11.21h1.77L319.44,321Zm-2.35-6.74c-.27-.8-.72-2.1-.85-2.58-.13.48-.53,1.76-.82,2.59l-.89,2.56h3.45Z" transform="translate(-24.37 -24.73)"/><path class="cls-8" d="M326.23,316.78H323.3V321h-1.65V309.75h4.69a3.3,3.3,0,0,1,3.6,3.51C329.94,315.56,328.4,316.78,326.23,316.78Zm.08-5.44h-3v3.85h3a1.74,1.74,0,0,0,1.92-1.93A1.77,1.77,0,0,0,326.31,311.34Z" transform="translate(-24.37 -24.73)"/><path class="cls-8" d="M332.18,321V309.75h1.68V321Z" transform="translate(-24.37 -24.73)"/><path class="cls-8" d="M271.35,340.16H266.9V329h4.61c2,0,3.22,1,3.22,2.91a2.38,2.38,0,0,1-1.42,2.25,2.57,2.57,0,0,1,1.89,2.6C275.2,339,273.8,340.16,271.35,340.16Zm.15-9.67h-3v2.9h3a1.38,1.38,0,0,0,1.55-1.43A1.36,1.36,0,0,0,271.5,330.49Zm0,4.42h-3v3.71h3c1.49,0,2-.75,2-1.86A1.76,1.76,0,0,0,271.53,334.91Z" transform="translate(-24.37 -24.73)"/><path class="cls-8" d="M282.12,340.16v-.84a3.27,3.27,0,0,1-2.3,1,2.72,2.72,0,0,1-2.92-2.83c0-1.87,1.44-2.72,3.35-2.72a4.59,4.59,0,0,1,1.87.32v-.63c0-.91-.56-1.42-1.58-1.42a4.25,4.25,0,0,0-2.2.53l-.64-1.25a5.2,5.2,0,0,1,2.89-.75c1.87,0,3.15.91,3.15,2.81v5.77Zm0-3.59a4.19,4.19,0,0,0-1.92-.37c-1.06,0-1.73.48-1.73,1.25s.53,1.39,1.62,1.39a2.62,2.62,0,0,0,2-1.07Z" transform="translate(-24.37 -24.73)"/><path class="cls-8" d="M291.39,334.17a2.78,2.78,0,0,0-2.05-1c-1.2,0-2,1.07-2,2.78s.7,2.83,2,2.83a2.47,2.47,0,0,0,1.9-1l1.06,1a3.56,3.56,0,0,1-3,1.57c-2,0-3.64-1.73-3.64-4.35,0-2.79,1.64-4.4,3.69-4.4a3.69,3.69,0,0,1,3,1.42Z" transform="translate(-24.37 -24.73)"/><path class="cls-8" d="M299.24,340.16,297.38,336l-1.28,1.69v2.49h-1.64V329.35l1.64-.86v5.3c0,.51,0,1.37,0,1.79.22-.34.65-1,.93-1.38l1.74-2.45h1.87l-2.12,2.82,2.52,5.59Z" transform="translate(-24.37 -24.73)"/><path class="cls-8" d="M314,336.54h-5.55c.17,1.61,1.08,2.3,2.11,2.3a2.92,2.92,0,0,0,1.82-.67l1,1.06a3.94,3.94,0,0,1-2.9,1.1c-2,0-3.63-1.58-3.63-4.37s1.5-4.38,3.68-4.38c2.39,0,3.54,1.93,3.54,4.21A6.65,6.65,0,0,1,314,336.54Zm-3.6-3.48c-1.11,0-1.78.77-1.92,2.12h3.9C312.31,334,311.77,333.06,310.41,333.06Z" transform="translate(-24.37 -24.73)"/><path class="cls-8" d="M321.21,340.16V335.4c0-1.69-.64-2.3-1.73-2.3s-1.73.78-1.73,2.14v4.92H316.1v-8.41h1.65v.8a2.57,2.57,0,0,1,2.11-1c2,0,3,1.28,3,3.76v4.82Z" transform="translate(-24.37 -24.73)"/><path class="cls-8" d="M330.28,340.16v-.8a3.19,3.19,0,0,1-2.19,1c-1.81,0-3.24-1.31-3.24-4.51,0-2.88,1.57-4.24,3.32-4.24a2.94,2.94,0,0,1,2.11,1v-3.2l1.63-.85v11.67Zm0-6a2.72,2.72,0,0,0-2-1.1c-1.19,0-1.83.89-1.83,2.67,0,2.11.68,3,1.89,3a2.61,2.61,0,0,0,1.91-1.07Z" transform="translate(-24.37 -24.73)"/><path class="cls-8" d="M494.82,268.29h-3.35V257.08H495c3.2,0,5.57,1.51,5.57,5.6C500.55,266.62,497.7,268.29,494.82,268.29Zm.08-9h-1.19v6.85h1.11a3.1,3.1,0,0,0,3.42-3.43C498.24,260.4,497.27,259.26,494.9,259.26Z" transform="translate(-24.37 -24.73)"/><path class="cls-8" d="M507,268.29v-.56a2.7,2.7,0,0,1-1.89.73,2.93,2.93,0,0,1-3.13-3c0-1.86,1.5-2.79,3.41-2.79A3.42,3.42,0,0,1,507,263v-.42a1.06,1.06,0,0,0-1.2-1.07,4.18,4.18,0,0,0-2.3.56l-.85-1.53a5.65,5.65,0,0,1,3.15-.85c2,0,3.41,1.05,3.41,2.94v5.64Zm0-3.52a2.46,2.46,0,0,0-1.53-.36c-.84,0-1.28.39-1.28,1.06s.33,1.12,1.28,1.12a1.8,1.8,0,0,0,1.53-.77Z" transform="translate(-24.37 -24.73)"/><path class="cls-8" d="M515.92,268a2.9,2.9,0,0,1-1.71.51,2.28,2.28,0,0,1-2.24-2.53v-4h-1.41v-2.08H512v-2.16l2.21-1.1v3.26h2V262h-2v3.38c0,.8.29,1,.82,1s.7-.18,1.24-.64Z" transform="translate(-24.37 -24.73)"/><path class="cls-8" d="M522.69,268.29v-.56a2.7,2.7,0,0,1-1.89.73,2.93,2.93,0,0,1-3.13-3c0-1.86,1.5-2.79,3.41-2.79a3.42,3.42,0,0,1,1.61.34v-.42a1.06,1.06,0,0,0-1.2-1.07,4.18,4.18,0,0,0-2.3.56l-.85-1.53a5.65,5.65,0,0,1,3.15-.85c2,0,3.41,1.05,3.41,2.94v5.64Zm0-3.52a2.46,2.46,0,0,0-1.53-.36c-.84,0-1.28.39-1.28,1.06s.33,1.12,1.28,1.12a1.8,1.8,0,0,0,1.53-.77Z" transform="translate(-24.37 -24.73)"/><path class="cls-8" d="M531,268.46a2.7,2.7,0,0,1-1.78-.65v.48H527V257.72l2.21-1.1v3.79a2.6,2.6,0,0,1,1.78-.7c1.79,0,3.26,1.34,3.26,4.48C534.21,266.7,533,268.46,531,268.46Zm-.42-6.67a1.55,1.55,0,0,0-1.36.7v3.17a1.75,1.75,0,0,0,1.49.72c.85,0,1.31-.73,1.31-2.14C532,262.51,531.4,261.79,530.53,261.79Z" transform="translate(-24.37 -24.73)"/><path class="cls-8" d="M540.45,268.29v-.56a2.7,2.7,0,0,1-1.89.73,2.92,2.92,0,0,1-3.13-3c0-1.86,1.5-2.79,3.41-2.79a3.42,3.42,0,0,1,1.61.34v-.42a1.06,1.06,0,0,0-1.2-1.07,4.18,4.18,0,0,0-2.3.56l-.85-1.53a5.63,5.63,0,0,1,3.15-.85c2,0,3.41,1.05,3.41,2.94v5.64Zm0-3.52a2.46,2.46,0,0,0-1.53-.36c-.84,0-1.28.39-1.28,1.06s.33,1.12,1.28,1.12a1.8,1.8,0,0,0,1.53-.77Z" transform="translate(-24.37 -24.73)"/><path class="cls-8" d="M547.94,268.46a6.59,6.59,0,0,1-3.52-1l.73-1.68a5.94,5.94,0,0,0,2.92.76c.86,0,1.12-.2,1.12-.64s-.31-.57-1.23-.84c-2-.61-3.32-1.11-3.32-2.89s1.39-2.49,3.36-2.49a6.79,6.79,0,0,1,3.11.81l-.71,1.75a5.39,5.39,0,0,0-2.44-.67c-.9,0-1.14.17-1.14.54s.25.5,1.74,1,2.8,1,2.8,2.72C551.36,267.77,549.83,268.46,547.94,268.46Z" transform="translate(-24.37 -24.73)"/><path class="cls-8" d="M560,264.8h-5a1.61,1.61,0,0,0,1.73,1.58,1.88,1.88,0,0,0,1.44-.59l1.56,1.31a3.88,3.88,0,0,1-3,1.36c-2.42,0-4-1.71-4-4.37s1.62-4.38,3.75-4.38,3.53,2,3.53,4.38A6.12,6.12,0,0,1,560,264.8Zm-3.61-3.17a1.46,1.46,0,0,0-1.38,1.5h2.88A1.48,1.48,0,0,0,556.36,261.63Z" transform="translate(-24.37 -24.73)"/><path class="cls-8" d="M505.44,287.66a5.19,5.19,0,0,1-4.35-2l1.62-1.44a3.62,3.62,0,0,0,2.86,1.28c1.33,0,2-.37,2-1.22s-.39-1-2.5-1.52-3.51-1.13-3.51-3.34c0-2,1.8-3.28,4-3.28a5.35,5.35,0,0,1,4.09,1.76L508,279.44a3.41,3.41,0,0,0-2.55-1.16c-1.2,0-1.6.52-1.6,1,0,.71.48.93,2.26,1.35s3.75,1,3.75,3.45C509.85,286.22,508.5,287.66,505.44,287.66Z" transform="translate(-24.37 -24.73)"/><path class="cls-8" d="M518.5,284h-5a1.61,1.61,0,0,0,1.72,1.58,1.86,1.86,0,0,0,1.44-.59l1.57,1.31a3.9,3.9,0,0,1-3,1.36c-2.41,0-4-1.71-4-4.37s1.62-4.38,3.75-4.38,3.53,2,3.53,4.38A6.12,6.12,0,0,1,518.5,284Zm-3.62-3.17c-.8,0-1.29.65-1.37,1.5h2.88A1.49,1.49,0,0,0,514.88,280.83Z" transform="translate(-24.37 -24.73)"/><path class="cls-8" d="M525.2,281.66a1.89,1.89,0,0,0-1.28-.54c-.86,0-1.42.36-1.42,1.82v4.55h-2.21v-8.41h2.21v.56a2.31,2.31,0,0,1,1.73-.73,2.16,2.16,0,0,1,1.55.59Z" transform="translate(-24.37 -24.73)"/><path class="cls-8" d="M531.92,287.49h-2.27l-3-8.41h2.43l1.23,3.89c.21.64.43,1.44.53,1.84.1-.41.32-1.18.53-1.84l1.23-3.89H535Z" transform="translate(-24.37 -24.73)"/><path class="cls-8" d="M543,284h-5a1.61,1.61,0,0,0,1.73,1.58,1.88,1.88,0,0,0,1.44-.59l1.56,1.31a3.88,3.88,0,0,1-3,1.36c-2.42,0-4-1.71-4-4.37s1.62-4.38,3.75-4.38,3.53,2,3.53,4.38A6.12,6.12,0,0,1,543,284Zm-3.61-3.17a1.46,1.46,0,0,0-1.38,1.5h2.88A1.48,1.48,0,0,0,539.35,280.83Z" transform="translate(-24.37 -24.73)"/><path class="cls-8" d="M549.67,281.66a1.93,1.93,0,0,0-1.28-.54c-.87,0-1.43.36-1.43,1.82v4.55h-2.21v-8.41H547v.56a2.34,2.34,0,0,1,1.73-.73,2.16,2.16,0,0,1,1.55.59Z" transform="translate(-24.37 -24.73)"/><path class="cls-8" d="M508.88,330.56v-5.93c0-.67,0-1.65,0-2-.13.32-.45,1.12-.72,1.76l-2.72,6.31-2.69-6.31c-.27-.64-.59-1.44-.72-1.76,0,.32,0,1.3,0,2v5.93h-1.58V319.35h1.72l2.52,6c.27.64.62,1.46.77,1.92.16-.46.48-1.26.75-1.92l2.46-6h1.8v11.21Z" transform="translate(-24.37 -24.73)"/><path class="cls-8" d="M516.12,333.52h-1.74l1.21-3.12-3.09-8.25h1.81l1.38,4.12c.26.73.64,2,.74,2.44.14-.49.49-1.69.75-2.41l1.42-4.15h1.75Z" transform="translate(-24.37 -24.73)"/><path class="cls-8" d="M525.69,330.73a5.16,5.16,0,0,1-4-1.81l1.2-1.17a4.06,4.06,0,0,0,2.91,1.33c1.57,0,2.32-.54,2.32-1.63,0-.86-.66-1.3-2.53-1.86-2.37-.7-3.5-1.29-3.5-3.29s1.63-3.13,3.69-3.13a5,5,0,0,1,3.67,1.52l-1.19,1.21a3.39,3.39,0,0,0-2.61-1.08c-1.31,0-1.87.64-1.87,1.4s.51,1.16,2.45,1.74c2.21.67,3.59,1.38,3.59,3.38S528.56,330.73,525.69,330.73Z" transform="translate(-24.37 -24.73)"/><path class="cls-8" d="M539.5,329.55l.75,1.17-1.37.86-.75-1.15a4.65,4.65,0,0,1-1.65.3c-2.9,0-4.74-2.38-4.74-5.78s1.84-5.78,4.74-5.78,4.75,2.39,4.75,5.78A6.23,6.23,0,0,1,539.5,329.55Zm-3-8.69c-2,0-3,1.58-3,4.09s1.07,4.13,3,4.13a3.32,3.32,0,0,0,.75-.08l-.82-1.26,1.38-.87.82,1.28a4.67,4.67,0,0,0,.91-3.2C539.52,322.44,538.45,320.86,536.48,320.86Z" transform="translate(-24.37 -24.73)"/><path class="cls-8" d="M543.61,330.56V319.35h1.68v9.56h5.59v1.65Z" transform="translate(-24.37 -24.73)"/><path class="cls-8" d="M477.7,485.86h-3.06V474.65h3.06c3,0,5.46,1.65,5.46,5.6S480.63,485.86,477.7,485.86Zm0-9.58h-1.38v7.94h1.38c2.66,0,3.74-1.61,3.74-4S480.36,476.28,477.7,476.28Z" transform="translate(-24.37 -24.73)"/><path class="cls-8" d="M490.08,485.86V485a3.27,3.27,0,0,1-2.3,1,2.72,2.72,0,0,1-2.92-2.83c0-1.88,1.45-2.72,3.35-2.72a4.59,4.59,0,0,1,1.87.32v-.63c0-.91-.56-1.42-1.58-1.42a4.18,4.18,0,0,0-2.19.53l-.64-1.25a5.16,5.16,0,0,1,2.88-.75c1.87,0,3.15.91,3.15,2.81v5.77Zm0-3.59a4.16,4.16,0,0,0-1.92-.37c-1.05,0-1.73.48-1.73,1.25s.53,1.39,1.62,1.39a2.62,2.62,0,0,0,2-1.07Z" transform="translate(-24.37 -24.73)"/><path class="cls-8" d="M498.08,485.65a3.39,3.39,0,0,1-1.61.38c-1.17,0-1.89-.72-1.89-2.22V479h-1.2v-1.51h1.2v-2.4l1.61-.86v3.26h2.09V479h-2.09v4.56c0,.78.26,1,.87,1a2.63,2.63,0,0,0,1.22-.34Z" transform="translate(-24.37 -24.73)"/><path class="cls-8" d="M505.09,485.86V485a3.27,3.27,0,0,1-2.3,1,2.72,2.72,0,0,1-2.92-2.83c0-1.88,1.45-2.72,3.35-2.72a4.59,4.59,0,0,1,1.87.32v-.63c0-.91-.56-1.42-1.58-1.42a4.18,4.18,0,0,0-2.19.53l-.64-1.25a5.16,5.16,0,0,1,2.88-.75c1.87,0,3.15.91,3.15,2.81v5.77Zm0-3.59a4.16,4.16,0,0,0-1.92-.37c-1.05,0-1.73.48-1.73,1.25s.53,1.39,1.62,1.39a2.62,2.62,0,0,0,2-1.07Z" transform="translate(-24.37 -24.73)"/><path class="cls-8" d="M512.82,486a3,3,0,0,1-2.11-1v.79h-1.64V475l1.64-.84v4.06a3.19,3.19,0,0,1,2.19-1c1.81,0,3.23,1.31,3.23,4.51C516.13,484.67,514.57,486,512.82,486Zm-.22-7.23a2.56,2.56,0,0,0-1.91,1.07v3.54a2.72,2.72,0,0,0,2,1.1c1.18,0,1.83-.9,1.83-2.67C514.49,479.72,513.81,478.8,512.6,478.8Z" transform="translate(-24.37 -24.73)"/><path class="cls-8" d="M522.88,485.86V485a3.27,3.27,0,0,1-2.3,1,2.71,2.71,0,0,1-2.91-2.83c0-1.88,1.44-2.72,3.34-2.72a4.59,4.59,0,0,1,1.87.32v-.63c0-.91-.56-1.42-1.58-1.42a4.18,4.18,0,0,0-2.19.53l-.64-1.25a5.16,5.16,0,0,1,2.88-.75c1.87,0,3.15.91,3.15,2.81v5.77Zm0-3.59a4.16,4.16,0,0,0-1.92-.37c-1.05,0-1.73.48-1.73,1.25s.53,1.39,1.62,1.39a2.62,2.62,0,0,0,2-1.07Z" transform="translate(-24.37 -24.73)"/><path class="cls-8" d="M529.59,486a5.77,5.77,0,0,1-3.22-1.07l.75-1.25a4.47,4.47,0,0,0,2.45.83c1,0,1.54-.33,1.54-.93s-.74-.94-2-1.4c-1.8-.71-2.46-1.32-2.46-2.65,0-1.5,1.18-2.28,2.86-2.28a5,5,0,0,1,2.85.92l-.72,1.27a3.65,3.65,0,0,0-2.17-.72c-.8,0-1.16.32-1.16.77s.29.72,1.56,1.21c1.87.72,2.83,1.24,2.83,2.82C532.74,485.41,531.24,486,529.59,486Z" transform="translate(-24.37 -24.73)"/><path class="cls-8" d="M541.46,482.24h-5.55c.17,1.61,1.08,2.3,2.11,2.3a2.92,2.92,0,0,0,1.82-.67l1,1.06a3.94,3.94,0,0,1-2.9,1.1c-2,0-3.63-1.58-3.63-4.37s1.5-4.38,3.68-4.38c2.39,0,3.54,1.93,3.54,4.2A6.68,6.68,0,0,1,541.46,482.24Zm-3.6-3.48c-1.11,0-1.78.77-1.92,2.12h3.9C539.76,479.72,539.22,478.76,537.86,478.76Z" transform="translate(-24.37 -24.73)"/><path class="cls-8" d="M550.85,475.68c-.54,0-.77.2-.77.81v1h1.55V479h-1.55v6.87h-1.65V479h-1.09v-1.54h1.09v-1.1a1.92,1.92,0,0,1,2.13-2.12,5.33,5.33,0,0,1,1.25.16v1.44A3.32,3.32,0,0,0,550.85,475.68Z" transform="translate(-24.37 -24.73)"/><path class="cls-8" d="M554.5,476.36a1.07,1.07,0,1,1,1.06-1.05A1.07,1.07,0,0,1,554.5,476.36Zm-.83,9.5v-8.41h1.65v8.41Z" transform="translate(-24.37 -24.73)"/><path class="cls-8" d="M557.91,485.86V475.05l1.65-.86v11.67Z" transform="translate(-24.37 -24.73)"/><path class="cls-8" d="M568.84,482.24h-5.56c.18,1.61,1.09,2.3,2.12,2.3a2.92,2.92,0,0,0,1.82-.67l1,1.06a3.94,3.94,0,0,1-2.9,1.1c-2,0-3.63-1.58-3.63-4.37s1.5-4.38,3.68-4.38c2.38,0,3.54,1.93,3.54,4.2C568.89,481.79,568.85,482.06,568.84,482.24Zm-3.6-3.48c-1.11,0-1.78.77-1.92,2.12h3.9C567.14,479.72,566.6,478.76,565.24,478.76Z" transform="translate(-24.37 -24.73)"/><path class="cls-8" d="M573.49,486a5.8,5.8,0,0,1-3.22-1.07l.76-1.25a4.42,4.42,0,0,0,2.45.83c1,0,1.53-.33,1.53-.93s-.73-.94-2-1.4c-1.81-.71-2.47-1.32-2.47-2.65,0-1.5,1.19-2.28,2.87-2.28a5,5,0,0,1,2.85.92l-.72,1.27a3.67,3.67,0,0,0-2.18-.72c-.8,0-1.15.32-1.15.77s.29.72,1.55,1.21c1.87.72,2.83,1.24,2.83,2.82C576.64,485.41,575.14,486,573.49,486Z" transform="translate(-24.37 -24.73)"/><polyline class="cls-6" points="187.57 129.26 187.57 149.78 100.22 149.78 100.22 206.1"/><polygon class="cls-7" points="182.58 130.72 187.57 122.08 192.55 130.72 182.58 130.72"/><polygon class="cls-7" points="95.23 204.65 100.22 213.28 105.2 204.65 95.23 204.65"/><polyline class="cls-6" points="187.57 129.26 187.57 149.78 274.92 149.78 274.92 206.1"/><polygon class="cls-7" points="182.58 130.72 187.57 122.08 192.55 130.72 182.58 130.72"/><polygon class="cls-7" points="269.93 204.65 274.92 213.28 279.9 204.65 269.93 204.65"/><path class="cls-8" d="M504.48,442.24h-.07A66.68,66.68,0,0,1,494,440.05a.49.49,0,0,1-.32-.63.49.49,0,0,1,.62-.32,65.59,65.59,0,0,0,10.23,2.15.5.5,0,0,1,.42.56A.49.49,0,0,1,504.48,442.24Z" transform="translate(-24.37 -24.73)"/><path class="cls-8" d="M525.36,443.83c-4.19,0-8.3-.14-12.22-.43a.75.75,0,1,1,.11-1.49c3.88.28,8,.42,12.11.42,12.78,0,24.5-1.35,31.37-3.6a.75.75,0,1,1,.46,1.42C550.19,442.46,538.29,443.83,525.36,443.83Z" transform="translate(-24.37 -24.73)"/><path class="cls-8" d="M525.36,467c-19.13,0-38.5-3.06-38.5-8.9V435.18c0-5.84,19.37-8.89,38.5-8.89s38.5,3,38.5,8.89v22.93C563.86,464,544.5,467,525.36,467Zm0-38.72c-22.61,0-36.5,4-36.5,6.89v22.93c0,2.88,13.89,6.9,36.5,6.9s36.5-4,36.5-6.9V435.18C561.86,432.3,548,428.29,525.36,428.29Z" transform="translate(-24.37 -24.73)"/><path class="cls-8" d="M211.94,36a28.67,28.67,0,1,0,0,57.34h0a28.67,28.67,0,1,0,0-57.34Zm22.58,13.67a39.54,39.54,0,0,0-5.79,7.06,1.68,1.68,0,0,0-.45-.06,1.92,1.92,0,0,0-.86.21,33.07,33.07,0,0,1-3.5-6.11,2,2,0,0,0,.87-1.61,2.17,2.17,0,0,0-.08-.52,27.56,27.56,0,0,0,5-4.45A27.13,27.13,0,0,1,234.52,49.64Zm-35.58,7.85c1.48-.15,3-.36,4.49-.63a2,2,0,0,0,1.71,1h0a1.86,1.86,0,0,0,.75-.15A42.38,42.38,0,0,0,221.41,71.3a2.42,2.42,0,0,0-.06.47,1.92,1.92,0,0,0,1.06,1.71,41.22,41.22,0,0,0-.48,6.72,2.62,2.62,0,0,0-1,.5,44.92,44.92,0,0,0-21.65-8.15,2.52,2.52,0,0,0-2.36-1.94,37.87,37.87,0,0,1-.47-6,38.46,38.46,0,0,1,.33-5A2.54,2.54,0,0,0,198.94,57.49ZM197.69,55a34.36,34.36,0,0,1,3-7.67,38.84,38.84,0,0,0,3.17,7.19,1.93,1.93,0,0,0-.63,1.18c-1.48.26-3,.46-4.43.61A2.51,2.51,0,0,0,197.69,55Zm25.43,14.82a1.94,1.94,0,0,0-1.37.76,41.54,41.54,0,0,1-15.22-13.27,2,2,0,0,0,.54-1.2,55.14,55.14,0,0,0,14.51-5.55,1.91,1.91,0,0,0,1.26.49h0a1.55,1.55,0,0,0,.37,0,32.76,32.76,0,0,0,3.6,6.3,1.89,1.89,0,0,0,.05,2.55,42.43,42.43,0,0,0-2.9,6.9C223.64,67.8,223.37,68.82,223.12,69.84Zm-.65-30.2a27.36,27.36,0,0,1,6.33,3.78,26.34,26.34,0,0,1-4.75,4.2,1.94,1.94,0,0,0-1.2-.42h-.16A15.08,15.08,0,0,1,222.47,39.64Zm-10.53-2.12a26.8,26.8,0,0,1,9.8,1.84,15.86,15.86,0,0,0,.22,8.06,1.93,1.93,0,0,0-1.05,1.71,1.61,1.61,0,0,0,.06.44A54.63,54.63,0,0,1,206.8,55a1.93,1.93,0,0,0-1.66-1,1.78,1.78,0,0,0-.61.11,37.78,37.78,0,0,1-3.32-7.7,30,30,0,0,1,7.57-8.74A25.41,25.41,0,0,1,211.94,37.52Zm-5.4.54a31.13,31.13,0,0,0-5.76,6.84,34.73,34.73,0,0,1-.84-4.58A27.09,27.09,0,0,1,206.54,38.06Zm-7.33,2.64a34.88,34.88,0,0,0,1,5.12,35.8,35.8,0,0,0-3.66,8.87h-.13A2.51,2.51,0,0,0,194,56.6a44.15,44.15,0,0,1-7.79-.56A27.25,27.25,0,0,1,199.21,40.7Zm-14.4,23.94a27.07,27.07,0,0,1,1.06-7.47,44.88,44.88,0,0,0,7.51.61l.61,0a2.54,2.54,0,0,0,1.63,1.81,40.35,40.35,0,0,0-.33,5.07,38.43,38.43,0,0,0,.49,6.2,2.55,2.55,0,0,0-1.33,1.51,43,43,0,0,0-8.22.92A27.06,27.06,0,0,1,184.81,64.64Zm1.82,9.74a42,42,0,0,1,7.73-.87,2.51,2.51,0,0,0,2.47,2.13h0a33.48,33.48,0,0,0,9.67,15.58A27.19,27.19,0,0,1,186.63,74.38Zm25.31,17.38h0a27.5,27.5,0,0,1-3.16-.19A31.79,31.79,0,0,1,198,75.35a2.54,2.54,0,0,0,1.28-1.63,43.49,43.49,0,0,1,20.94,7.9,2.49,2.49,0,0,0,2.09,3.53,39.6,39.6,0,0,0,.83,4.18A26.88,26.88,0,0,1,211.94,91.76Zm12.27-3a38.1,38.1,0,0,1-.75-3.83,2.8,2.8,0,0,0,.56-.32c.95.85,1.85,1.76,2.71,2.69A26.21,26.21,0,0,1,224.21,88.81Zm3.49-2.12c-.93-1-1.91-2-2.94-2.93a2.46,2.46,0,0,0,.27-1.11,2.51,2.51,0,0,0-1.94-2.44,39.92,39.92,0,0,1,.46-6.53,1.94,1.94,0,0,0,1.33-.82,37.76,37.76,0,0,0,11.91,2.64A27.38,27.38,0,0,1,227.7,86.69Zm9.4-12a36.66,36.66,0,0,1-11.91-2.58,2.38,2.38,0,0,0,0-.39,1.92,1.92,0,0,0-1-1.66q.35-1.48.81-3a42.18,42.18,0,0,1,2.8-6.66,2.87,2.87,0,0,0,.41.05h0a1.94,1.94,0,0,0,.9-.23c.65.74,1.34,1.48,2.06,2.19a38.34,38.34,0,0,0,7.57,5.77A26.55,26.55,0,0,1,237.1,74.73Zm-5.31-12.8c-.71-.69-1.37-1.41-2-2.13a2,2,0,0,0,.44-1.22,1.92,1.92,0,0,0-.49-1.28,38.37,38.37,0,0,1,5.43-6.65,26.94,26.94,0,0,1,3.9,14c0,.93-.05,1.86-.14,2.77A38.2,38.2,0,0,1,231.79,61.93Z" transform="translate(-24.37 -24.73)"/></svg>